<svg width="25" height="25" viewBox="0 0 25 25" fill="none" xmlns="http://www.w3.org/2000/svg">
<path d="M25.4288 12.9346C25.4288 14.7382 25.4338 16.5419 25.4288 18.3506C25.4187 20.9704 24.1995 22.9101 22.023 24.2804C20.7483 25.0765 19.3326 25.4291 17.8313 25.4291C14.5464 25.4291 11.2666 25.4442 7.98173 25.4241C5.69946 25.409 3.73459 24.6029 2.1778 22.9101C1.21552 21.8621 0.641175 20.6278 0.474917 19.202C0.43965 18.8997 0.434612 18.6025 0.434612 18.3002C0.434612 14.708 0.429574 11.1158 0.434612 7.52362C0.449727 4.89876 1.66895 2.95908 3.84542 1.5887C5.13015 0.787642 6.5509 0.440011 8.06234 0.440011C11.3371 0.440011 14.6119 0.424897 17.8867 0.44505C20.179 0.460164 22.1489 1.2713 23.7057 2.97419C24.6579 4.01708 25.2272 5.25142 25.3885 6.6621C25.454 7.21629 25.4237 7.77049 25.4288 8.31964C25.4338 9.86131 25.4288 11.3979 25.4288 12.9346ZM2.30376 12.9346C2.30376 14.7836 2.29872 16.6275 2.30376 18.4765C2.3088 19.7461 2.7723 20.8394 3.63886 21.7463C4.80267 22.9604 6.25365 23.5499 7.92127 23.56C11.2313 23.5801 14.5363 23.565 17.8464 23.565C18.9145 23.565 19.9322 23.3333 20.8592 22.7992C22.5923 21.8067 23.5697 20.3457 23.5697 18.3002C23.5697 14.6626 23.5697 11.0302 23.5697 7.39263C23.5697 6.1331 23.1112 5.04486 22.2497 4.14304C21.096 2.92381 19.64 2.32427 17.9774 2.3142C14.6321 2.289 11.2918 2.30412 7.94646 2.30412C6.90357 2.30412 5.9161 2.55099 5.00923 3.06488C3.28115 4.06243 2.29872 5.52348 2.30376 7.56896C2.30376 9.3575 2.30376 11.146 2.30376 12.9346Z" fill="#464646"/>
<path d="M12.9492 18.2752C9.69456 18.2752 7.08481 15.6755 7.08985 12.431C7.09489 9.27207 9.73991 6.68247 12.9693 6.68751C16.2139 6.68751 18.8337 9.29222 18.8287 12.5065C18.8236 15.6906 16.1887 18.2752 12.9492 18.2752ZM12.9492 16.4111C15.1609 16.4111 16.9646 14.6528 16.9646 12.4914C16.9646 10.32 15.176 8.55161 12.9693 8.55161C10.7576 8.55161 8.95396 10.3099 8.95396 12.4713C8.95396 14.6427 10.7425 16.4111 12.9492 16.4111Z" fill="#464646"/>
<path d="M18.2747 6.21359C18.2747 5.49818 18.8238 4.92383 19.509 4.92383C20.1942 4.92383 20.7433 5.50321 20.7433 6.21359C20.7433 6.91389 20.1942 7.48824 19.5191 7.49328C18.8339 7.49831 18.2747 6.92901 18.2747 6.21359Z" fill="#464646"/>
</svg>
