<svg width="25" height="24" viewBox="0 0 25 24" fill="none" xmlns="http://www.w3.org/2000/svg">
<path d="M20.8283 18.723C20.1666 19.3076 19.4387 19.8111 18.6541 20.2428C17.8601 20.6745 17.0188 21.0072 16.1397 21.241C15.2606 21.4748 14.3342 21.6007 13.3794 21.6007C11.9332 21.6007 10.5247 21.3759 9.2013 20.9353C7.90626 20.5036 6.75302 19.8471 5.78883 18.9928C4.82464 18.1565 3.81319 16.7536 3.21767 15.4317C2.69776 14.2806 2.48035 13.0396 2.48035 11.1241C2.48035 9.76619 2.81119 8.26439 3.37836 6.98741C3.92663 5.76439 4.6923 4.68525 5.64704 3.78597C6.59232 2.89568 7.74556 2.16727 9.07841 1.6277C10.2695 1.15108 11.6779 0.917265 13.3889 0.917265C14.7406 0.917265 16.0357 1.1241 17.2173 1.52878C18.3705 1.92446 19.382 2.49101 20.2233 3.21942C20.9984 3.89388 21.4805 4.71223 21.991 5.81834C22.4352 6.76259 22.6054 7.59892 22.6054 8.90288C22.6054 9.96403 22.4069 10.9802 22.0193 11.9065C21.6317 12.8147 21.3387 13.3723 20.7526 14.0647C20.1382 14.7662 19.7979 15.1529 19.1457 15.5126C18.3894 15.9353 17.8128 16.1331 17.3496 16.1331C16.981 16.1331 16.8675 16.0522 16.8581 16.0432C16.8014 15.9982 16.7541 15.9353 16.7257 15.7824C16.6974 15.5755 16.7257 15.2968 16.8108 14.982C16.9053 14.6223 17.0471 14.2806 17.2551 13.804L21.0362 4.14568H18.5501L18.1153 5.24281C17.775 4.86511 17.3685 4.54137 16.9148 4.28957C15.8372 3.69604 14.9297 3.45324 13.7765 3.45324C12.4342 3.45324 11.1769 3.78597 10.0615 4.44245C8.97443 5.08094 8.0386 5.90827 7.29183 6.89748C6.55451 7.8687 6.36545 8.39029 6.02515 9.35252L5.96843 9.51439C5.56196 10.6655 5.354 11.7986 5.354 12.8867C5.354 13.6151 5.49579 14.3255 5.76993 14.982C6.04406 15.6475 6.42217 16.223 6.89481 16.6906C7.358 17.1763 7.93462 17.5629 8.61522 17.8597C9.27692 18.1475 10.0048 18.3004 10.7894 18.3004C11.659 18.3004 12.4531 18.1655 13.3794 17.8597C13.8899 17.6888 14.3436 17.446 14.7785 17.0953C14.873 17.2482 14.9959 17.3831 15.1377 17.509C15.6859 18.0306 16.4138 18.3004 17.2835 18.3004C18.1531 18.3004 19.0889 18.0216 20.2138 17.4191C21.2158 16.8795 21.8019 16.259 22.5203 15.4406C23.3333 14.5144 23.7397 13.723 24.1746 12.6709C24.6661 11.5108 24.9119 10.2428 24.9119 8.91187C24.9119 7.23921 24.6756 6.09712 24.0706 4.83813C23.4278 3.50719 22.7755 2.43705 21.7074 1.53777C20.6487 0.638489 19.382 -0.0539573 17.9451 -0.539569C16.5272 -1.01619 15.0053 -1.25 13.4078 -1.25C11.4605 -1.25 9.79682 -0.971224 8.33164 -0.404677C6.74357 0.206834 5.3351 1.07014 4.14404 2.14928C2.95299 3.2464 1.99825 4.55935 1.31765 6.03417C0.608688 7.56295 0.21167 9.41547 0.21167 11.1331C0.21167 13.4442 0.51416 15.063 1.22312 16.5378C2.0077 18.1565 3.28383 19.8201 4.46544 20.7914C5.70376 21.8165 7.12168 22.5719 8.68139 23.0396C10.2222 23.5072 11.8197 23.75 13.4078 23.75C14.4949 23.75 15.6103 23.6061 16.7257 23.3273C17.8506 23.0306 18.8999 22.6259 19.8452 22.1133C20.8094 21.6007 21.7357 20.9622 22.5865 20.2068C23.4372 19.4514 24.4014 18.2734 24.7417 17.6978C24.9213 17.3831 25.0348 17.1493 25.0915 17.0054H22.4825C21.9815 17.5899 21.4427 18.1745 20.8283 18.723ZM14.1924 14.4514C13.767 14.964 13.4929 15.2698 13.162 15.4766C12.7934 15.7194 12.5003 15.8723 12.1222 15.9532H12.1128C11.7347 16.0432 11.3282 16.0971 10.9123 16.0971C10.4302 16.0971 9.99533 16.0162 9.60777 15.8543C9.21075 15.6924 8.8799 15.4766 8.58686 15.1799C8.30328 14.8921 8.06696 14.5504 7.89681 14.1547C7.73611 13.759 7.65103 13.3183 7.65103 12.8507C7.65103 12.0414 7.81173 11.1601 8.13313 10.2428C8.17094 10.1349 8.20875 10.018 8.23711 9.93705C8.49234 9.19065 8.62467 8.95683 9.09732 8.21043C9.53215 7.52698 10.2127 6.89748 11.158 6.29496C11.9048 5.81835 12.7366 5.57554 13.6441 5.57554C14.0128 5.57554 14.4003 5.6205 14.8068 5.70144C15.0999 5.76439 15.2511 5.84532 15.5441 6.00719L15.563 6.01619C15.6009 6.03417 15.6387 6.05216 15.6859 6.07914L15.7143 6.09712C16.0451 6.27698 16.3382 6.51079 16.5934 6.79856C16.7919 7.02338 16.9526 7.31115 17.0755 7.67086L15.1755 12.7518C14.8824 13.4353 14.5516 14.0108 14.1924 14.4514Z" fill="#464646"/>
</svg>
