<?xml version="1.0" standalone="no"?>
<!DOCTYPE svg PUBLIC "-//W3C//DTD SVG 1.1//EN" "http://www.w3.org/Graphics/SVG/1.1/DTD/svg11.dtd" >
<svg>
<metadata>
Created by FontForge 20090914 at Fri Dec  9 14:43:25 2022
 By www-data
Copyright 2018 The Staatliches Project Authors (https://github.com/googlefonts/staatliches)
</metadata>
<defs>
<font id="Staatliches-Regular" horiz-adv-x="0" >
  <font-face 
    font-family="Staatliches"
    font-weight="400"
    font-stretch="normal"
    units-per-em="1000"
    panose-1="0 0 0 0 0 0 0 0 0 0"
    ascent="800"
    descent="-200"
    x-height="696"
    cap-height="696"
    bbox="-193.498 -306 985.997 1006"
    underline-thickness="50"
    underline-position="-75"
    unicode-range="U+000D-U+FB02"
  />
<missing-glyph horiz-adv-x="500" 
d="M50 -200h400v1000h-400v-1000zM100 -150v900h300v-900h-300z" />
    <glyph glyph-name="fi" unicode="fi" horiz-adv-x="641" 
d="M45 0c-3.33301 0 -5 1.66699 -5 5l2 687c0 2.66699 1.33301 4 4 4h320c3.33301 0 5 -1.33301 5 -4v-113c0 -2.66699 -1.33301 -4 -4 -4h-205v-155h205c2.66699 0 4 -1.66699 4 -5l1 -113c0 -2.66699 -1.66699 -4 -5 -4h-205v-293c0 -3.33301 -1.66699 -5 -5 -5h-112z
M476 0c-3.33301 0 -5 1.66699 -5 5l1 687c0 2.66699 1.33301 4 4 4h112c2.66699 0 4 -1.33301 4 -4l1 -687c0 -3.33301 -1.33301 -5 -4 -5h-113z" />
    <glyph glyph-name="fl" unicode="fl" horiz-adv-x="828" 
d="M45 0c-3.33301 0 -5 1.66699 -5 5l2 687c0 2.66699 1.33301 4 4 4h320c3.33301 0 5 -1.33301 5 -4v-113c0 -2.66699 -1.33301 -4 -4 -4h-205v-155h205c2.66699 0 4 -1.66699 4 -5l1 -113c0 -2.66699 -1.66699 -4 -5 -4h-205v-293c0 -3.33301 -1.66699 -5 -5 -5h-112z
M475 0c-2.66699 0 -4 1.66699 -4 5l1 686c0 3.33301 1.66699 5 5 5h111c3.33301 0 5 -1.66699 5 -5l-1 -568h206c3.33301 0 5 -1.66699 5 -5v-113c0 -3.33301 -1.66699 -5 -5 -5h-323z" />
    <glyph glyph-name=".notdef" horiz-adv-x="500" 
d="M50 -200h400v1000h-400v-1000zM100 -150v900h300v-900h-300z" />
    <glyph glyph-name="CR" unicode="&#xd;" horiz-adv-x="600" 
 />
    <glyph glyph-name="space" unicode=" " horiz-adv-x="148" 
 />
    <glyph glyph-name="exclam" unicode="!" horiz-adv-x="203" 
d="M66 184c-2.66699 0 -4.33203 1.66699 -4.99902 5l-21 230v272c0 3.33301 1.33301 5 4 5h112c3.33301 0 5 -1.66699 5 -5l-1 -272l-21 -230c-0.666992 -3.33301 -2.33398 -5 -5.00098 -5h-68zM44.002 0c-2.66699 0 -4 1.66699 -4 5v109c0 2.66699 1.33301 4 4 4h112
c2.66699 0 4 -1.33301 4 -4v-109c0 -3.33301 -1.33301 -5 -4 -5h-112z" />
    <glyph glyph-name="quotedbl" unicode="&#x22;" horiz-adv-x="391" 
d="M47 461c-2.66699 0 -4 1.66699 -4 5l16 226c0.666992 2.66699 2.33398 4 5.00098 4h99c3.33301 0 4.66602 -1.33301 3.99902 -4l-19 -228c0 -2 -1 -3 -3 -3h-98zM226 461c-2.66699 0 -4 1.66699 -4 5l16 226c0.666992 2.66699 2.33398 4 5.00098 4h99
c3.33301 0 4.66602 -1.33301 3.99902 -4l-19 -228c0 -2 -1 -3 -3 -3h-98z" />
    <glyph glyph-name="numbersign" unicode="#" horiz-adv-x="474" 
d="M100 198c-3.33301 0 -5 1.66602 -5 4.99902v98h-68c-4 0 -6 1.66699 -6 5v79c0 0.666992 0.5 1.83398 1.5 3.50098s2.5 2.5 4.5 2.5h68v111h-68c-4 0 -6 2 -6 6v81c0 3.33301 2 5 6 5h68v98c0 2.66699 1 4 3 4h88c1.33301 0 2 -1.33301 2 -4v-98h92v98
c0 2.66699 1.33301 4 4 4h88c1.33301 0 2 -0.666992 2 -2v-100h67c3.33301 0 5 -1.33301 5 -4v-82c0 -4 -1.66699 -6 -5 -6h-67v-111h67c3.33301 0 5 -2 5 -6v-79c0 -3.33301 -1.66699 -5 -5 -5h-67v-98c0 -3.33301 -0.666992 -5 -2 -5h-87c-3.33301 0 -5 1.66699 -5 5v98
h-92v-98c0 -3.33301 -1.33301 -5 -4 -5h-84zM188 390.999h92v111h-92v-111z" />
    <glyph glyph-name="dollar" unicode="$" horiz-adv-x="375" 
d="M139 0c-2.66699 0 -3.99805 1.33496 -3.99805 4.00195v58c-33.333 10 -60.833 29.5 -82.5 58.5s-32.5 61.833 -32.5 98.5v38c0 2.66699 1.33301 4 4 4h91c2 0 3 -1.33301 3 -4v-38c0 -17.333 6.16699 -32.5 18.5 -45.5s26.833 -19.5 43.5 -19.5
c17.333 0 31.833 6.5 43.5 19.5s17.5 27.5 17.5 43.5c0 20.667 -13 38.334 -39 53.001c-8.66699 5.33301 -22.334 13 -41.001 23l-52 28c-31.333 17.333 -54.166 39.666 -68.499 66.999s-21.5 58 -21.5 92c0 37.333 10.833 69.833 32.5 97.5s48.834 46.5 81.501 56.5v58
c0 2.66699 1.33301 4 4 4h87c3.33301 0 5 -1.33301 5 -4v-59c32 -10 58.5 -29 79.5 -57s31.5 -60 31.5 -96v-67c0 -2 -1 -3 -3 -3h-92c-2 0 -3 1 -3 3l-1 67c0 19.333 -6.16699 34.833 -18.5 46.5s-26.5 17.5 -42.5 17.5c-16.667 0 -30.834 -6.33301 -42.501 -19
s-17.5 -27.667 -17.5 -45c0 -16.667 3.66699 -30.834 11 -42.501s20.666 -23.167 39.999 -34.5l83 -46c27.333 -14.667 48.833 -33 64.5 -55s23.5 -49.667 23.5 -83c0 -38 -10.333 -70.833 -31 -98.5s-47.334 -46.834 -80.001 -57.501v-59c0 -2.66699 -1.66699 -4 -5 -4h-87
z" />
    <glyph glyph-name="percent" unicode="%" horiz-adv-x="678" 
d="M145 373c-23.333 0 -44.833 6 -64.5 18s-35.334 28 -47.001 48s-17.5 41.667 -17.5 65v71c0 24 5.83301 46 17.5 66s27.334 35.833 47.001 47.5s41.167 17.5 64.5 17.5c24 0 45.667 -5.83301 65 -17.5s34.666 -27.5 45.999 -47.5s17 -42 17 -66v-71
c0 -24 -5.83301 -45.833 -17.5 -65.5s-27.167 -35.5 -46.5 -47.5s-40.666 -18 -63.999 -18zM73 0c-3.33301 0 -4.33301 1.66699 -3 5l399 687c2 2.66699 4 4 6 4h116c3.33301 0 4.33301 -1.33301 3 -4l-398 -687c-1.33301 -3.33301 -3.33301 -5 -6 -5h-117zM143 454
c13.333 0 24.333 4.83301 33 14.5s13 21.5 13 35.5v69c0 13.333 -4.33301 24.833 -13 34.5s-19.667 14.5 -33 14.5s-24.5 -4.83301 -33.5 -14.5s-13.5 -21.167 -13.5 -34.5v-69c0 -13.333 4.66699 -25 14 -35s20.333 -15 33 -15zM530 -10c-23.333 0 -44.833 6 -64.5 18
s-35.334 28 -47.001 48s-17.5 41.667 -17.5 65v71c0 24 5.83301 46 17.5 66s27.334 35.833 47.001 47.5s41.167 17.5 64.5 17.5c24 0 45.667 -5.83301 65 -17.5s34.666 -27.5 45.999 -47.5s17 -42 17 -66v-71c0 -24 -5.83301 -45.833 -17.5 -65.5s-27.167 -35.5 -46.5 -47.5
s-40.666 -18 -63.999 -18zM529 71c13.333 0 24.333 4.83301 33 14.5s13 21.5 13 35.5v69c0 13.333 -4.33301 24.833 -13 34.5s-19.667 14.5 -33 14.5s-24.5 -4.83301 -33.5 -14.5s-13.5 -21.167 -13.5 -34.5v-69c0 -13.333 4.66699 -25 14 -35s20.333 -15 33 -15z" />
    <glyph glyph-name="ampersand" unicode="&#x26;" horiz-adv-x="497" 
d="M210 -1c-39.333 0 -73.832 9.67188 -103.499 29.0049s-52.834 43.666 -69.501 72.999s-25 58.666 -25 87.999v66c0 22.667 5.33301 44.667 16 66s24.667 40.333 42 57c-14 15.333 -25 34.166 -33 56.499s-12 47.166 -12 74.499c0 34.667 8.16699 66.167 24.5 94.5
s38.333 50.833 66 67.5s58.5 25 92.5 25h135c4.66699 0 7 -2.33301 7 -7v-106c0 -4 -2 -6 -6 -6h-136c-16.667 0 -31.167 -6.66699 -43.5 -20s-18.5 -29.333 -18.5 -48c0 -22.667 5.16699 -40.334 15.5 -53.001s25.833 -19 46.5 -19h272c3.33301 0 5 -1.66699 5 -5v-111
c0 -2.66699 -1.33301 -4 -4 -4h-88l-1 -313c0 -2.66699 -1.33301 -4 -4 -4zM210.001 119.005l65.001 1l1 197h-69c-14 0 -26.833 -3.5 -38.5 -10.5s-20.834 -15.167 -27.501 -24.5s-10 -18.333 -10 -27v-66c0 -10 3.16699 -20.5 9.5 -31.5s15.5 -20.167 27.5 -27.5
s26 -11 42 -11z" />
    <glyph glyph-name="quotesingle" unicode="'" horiz-adv-x="212" 
d="M47 461c-2.66699 0 -4 1.66699 -4 5l16 226c0.666992 2.66699 2.33398 4 5.00098 4h99c3.33301 0 4.66602 -1.33301 3.99902 -4l-19 -228c0 -2 -1 -3 -3 -3h-98z" />
    <glyph glyph-name="parenleft" unicode="(" horiz-adv-x="326" 
d="M281 -10l-54.002 0.000976562c-34.667 1.33301 -66.334 11.166 -95.001 29.499s-51.667 42.5 -69 72.5s-26 63 -26 99l1 317c0 35.333 8.5 67.833 25.5 97.5s39.833 53.667 68.5 72s60.334 28.166 95.001 29.499h1h55c3.33301 0 5 -1.33301 5 -4v-113
c0 -2.66699 -1.66699 -4 -5 -4h-57c-19.333 0 -35.666 -7.66699 -48.999 -23s-20 -33.666 -20 -54.999v-317c0 -20.667 6.83301 -38.667 20.5 -54s29.834 -24 48.501 -26h54c3.33301 0 5 -1.33301 5 -4l1 -113c0 -2.66699 -1.66699 -4 -5 -4z" />
    <glyph glyph-name="parenright" unicode=")" horiz-adv-x="326" 
d="M45 -10c-3.33301 0 -5.00098 1.33203 -5.00098 3.99902v113c0 2.66699 1.66699 4 5 4h53c20 2 36.833 10.667 50.5 26s20.5 33.333 20.5 54v317c0 21.333 -6.66699 39.666 -20 54.999s-30.333 23 -51 23h-55c-3.33301 0 -5 1.33301 -5 4v113c0 2.66699 1.66699 4 5 4h55
h1c34.667 -1.33301 66.334 -11.166 95.001 -29.499s51.5 -42.333 68.5 -72s25.5 -62.167 25.5 -97.5l1 -317c0 -36 -8.66699 -69 -26 -99s-40.333 -54.167 -69 -72.5s-60.667 -28.166 -96 -29.499h-53z" />
    <glyph glyph-name="asterisk" unicode="*" horiz-adv-x="352" 
d="M130 395l4 87l-63 -49l-43 58l83 51l-84 52l44 58l64 -49l-5 92h74l-6 -92l65 47l43 -58l-83 -49l83 -50l-44 -58l-63 48l4 -88h-73z" />
    <glyph glyph-name="plus" unicode="+" horiz-adv-x="442" 
d="M176 128c-3.33301 0 -5 1.66602 -5 4.99902v179h-142c-4 0 -6 1.66699 -6 5v79c0 0.666992 0.5 1.83398 1.5 3.50098s2.5 2.5 4.5 2.5h142v182c0 1.33301 1.66699 2 5 2h84c2.66699 0 4 -0.666992 4 -2v-182h149c3.33301 0 5 -2 5 -6v-79
c0 -1.33301 -0.666992 -2.5 -2 -3.5s-2.33301 -1.5 -3 -1.5h-149v-179c0 -3.33301 -1.33301 -5 -4 -5h-84z" />
    <glyph glyph-name="comma" unicode="," horiz-adv-x="203" 
d="M40 -126l-0.00292969 61.999c16.667 0 30.834 6.33301 42.501 19s17.5 27.667 17.5 45h-56c-2.66699 0 -4 1.33301 -4 4v112c0 2.66699 1.33301 4 4 4h113c2.66699 0 4 -1.33301 4 -4v-116c0 -23.333 -5.66699 -44.666 -17 -63.999s-26.166 -34.5 -44.499 -45.5
s-38.166 -16.5 -59.499 -16.5z" />
    <glyph glyph-name="hyphen" unicode="-" horiz-adv-x="303" 
d="M48 289c-3.33301 0 -5 1.33301 -5 4v109c0 2.66699 1.66699 4 5 4h193c3.33301 0 5 -1.33301 5 -4v-109c0 -2.66699 -1.66699 -4 -5 -4h-193z" />
    <glyph glyph-name="period" unicode="." horiz-adv-x="203" 
d="M44 0c-2.66699 0 -4 1.33301 -4 4v113c0 2.66699 1.33301 4 4 4h113c2.66699 0 4 -1.33301 4 -4v-113c0 -2.66699 -1.33301 -4 -4 -4h-113z" />
    <glyph glyph-name="slash" unicode="/" horiz-adv-x="299" 
d="M35 0c-3.33301 0 -4.66602 1.66699 -3.99902 5l124 687c0.666992 2.66699 2.33398 4 5.00098 4h104c3.33301 0 4.66602 -1.33301 3.99902 -4l-126 -687c-0.666992 -3.33301 -2.33398 -5 -5.00098 -5h-102z" />
    <glyph glyph-name="zero" unicode="0" horiz-adv-x="497" 
d="M245 -10c-42.667 0 -80.334 9.16699 -113.001 27.5s-58.167 42.666 -76.5 72.999s-27.5 63.833 -27.5 100.5l1 317c0 36.667 9.16699 70 27.5 100s43.833 54 76.5 72s70 27 112 27c42.667 0 80 -9 112 -27s57.167 -42 75.5 -72s27.5 -63.333 27.5 -100l1 -317
c0 -36.667 -9.16699 -70.167 -27.5 -100.5s-43.666 -54.666 -75.999 -72.999s-69.833 -27.5 -112.5 -27.5zM340 191l-1 317c0 23.333 -8.66699 42.333 -26 57s-40 22 -68 22c-28.667 0 -51.667 -7.33301 -69 -22s-26 -33.667 -26 -57v-317
c0 -24.667 8.66699 -44.167 26 -58.5s40.333 -21.5 69 -21.5c28 0 50.833 7.16699 68.5 21.5s26.5 33.833 26.5 58.5z" />
    <glyph glyph-name="one" unicode="1" horiz-adv-x="210" 
d="M45 0c-3.33301 0 -5 1.66699 -5 5l1 687c0 2.66699 1.33301 4 4 4h112c2.66699 0 4 -1.33301 4 -4l1 -687c0 -3.33301 -1.33301 -5 -4 -5h-113z" />
    <glyph glyph-name="two" unicode="2" horiz-adv-x="439" 
d="M26 0c-3.33301 0 -5 1.66895 -5 5.00195v113c0 1.33301 0.666992 2.66602 2 3.99902l247 339c4.66699 6 8.5 13.833 11.5 23.5s4.5 18.167 4.5 25.5c0 19.333 -7 37.166 -21 53.499s-31.667 24.5 -53 24.5c-20.667 0 -38.167 -7.83301 -52.5 -23.5
s-21.5 -35.5 -21.5 -59.5v-49c0 -3.33301 -1.66699 -5 -5 -5h-112c-2.66699 0 -4 1.66699 -4 5v49c0 37.333 9.16699 71.333 27.5 102s42.333 55 72 73s61.5 27 95.5 27c36 0 68.667 -9.16699 98 -27.5s52.833 -42.5 70.5 -72.5s26.5 -62.333 26.5 -97
c0 -22 -3.83301 -44.333 -11.5 -67s-18.167 -42.667 -31.5 -60l-190 -261h225c2.66699 0 4 -1.33301 4 -4v-113c0 -3.33301 -1.33301 -5 -4 -5h-373z" />
    <glyph glyph-name="three" unicode="3" horiz-adv-x="440" 
d="M212 -11c-35.333 0 -67.8311 9.16113 -97.498 27.4941s-53.334 42.833 -71.001 73.5s-26.5 64.334 -26.5 101.001v45c0 3.33301 1.33301 5 4 5h112c3.33301 0 5 -1.66699 5 -5v-45c0 -22 7 -40.833 21 -56.5s31.667 -23.5 53 -23.5c23.333 0 41.666 8.16699 54.999 24.5
s20 34.833 20 55.5v27c0 20.667 -6.5 39.334 -19.5 56.001s-29.5 25 -49.5 25h-39c-3.33301 0 -5 1.66699 -5 5l1 112c0 2.66699 1.33301 4 4 4h39c18 0 34 7 48 21s21 32.333 21 55v14c0 21.333 -7.16699 39.5 -21.5 54.5s-32.166 22.5 -53.499 22.5
c-20.667 0 -38.167 -7.5 -52.5 -22.5s-21.5 -33.167 -21.5 -54.5v-48c0 -3.33301 -1.33301 -5 -4 -5h-112c-2.66699 0 -4 1.66699 -4 5v53c0 36.667 9.16699 69.334 27.5 98.001s42.333 51.5 72 68.5s61.167 25.5 94.5 25.5c36 0 68.833 -8.83301 98.5 -26.5
s53.167 -41.167 70.5 -70.5s26 -61.666 26 -96.999v-16c0 -29.333 -4.83301 -54.666 -14.5 -75.999s-23.167 -41.666 -40.5 -60.999c17.333 -20 31 -41.833 41 -65.5s15 -48.167 15 -73.5v-30c0 -37.333 -8.83301 -71.333 -26.5 -102s-41.334 -55 -71.001 -73
s-62.5 -27 -98.5 -27z" />
    <glyph glyph-name="four" unicode="4" horiz-adv-x="451" 
d="M238 0c-2.66699 0 -4 1.66699 -4 5v117h-216c-2.66699 0 -4 1.66699 -4 5v110l218 455c1.33301 2.66699 3.33301 4 6 4h113c2 0 3 -1.33301 3 -4l1 -451h70c3.33301 0 5 -1.66699 5 -5v-109c0 -3.33301 -1.33301 -5 -4 -5h-71v-117c0 -3.33301 -1.33301 -5 -4 -5h-113z
M132 241h102v218z" />
    <glyph glyph-name="five" unicode="5" horiz-adv-x="433" 
d="M219 -10c-35.333 0 -67.999 8.99902 -97.999 26.999s-54 41.833 -72 71.5s-27 61.834 -27 96.501v30c0 2.66699 1.66699 4 5 4h113c2.66699 0 4 -1.33301 4 -4v-23c0 -22.667 7.33301 -41.667 22 -57s32.334 -23 53.001 -23s38.167 7.83301 52.5 23.5
s21.5 34.5 21.5 56.5v68c0 20.667 -7.5 38 -22.5 52s-33.5 21 -55.5 21c-28.667 0 -52.334 -11.333 -71.001 -34l-2 -3l-107 8c-3.33301 0 -5 1.66699 -5 5l12 274l6 109c0 2.66699 1.33301 4 4 4h336c2.66699 0 4 -1.33301 4 -4v-109c0 -3.33301 -1.33301 -5 -4 -5h-234
l-5 -138c8 4 18.5 7.33301 31.5 10s24.833 4 35.5 4c36 0 69.167 -8.83301 99.5 -26.5s54.5 -41.167 72.5 -70.5s27 -61.666 27 -96.999v-68c0 -36.667 -8.83301 -70.334 -26.5 -101.001s-41.334 -55.167 -71.001 -73.5s-62.5 -27.5 -98.5 -27.5z" />
    <glyph glyph-name="six" unicode="6" horiz-adv-x="455" 
d="M225 -10c-35.333 0 -67.834 9.16406 -97.501 27.4971s-53.5 42.5 -71.5 72.5s-27 63 -27 99l-1 316c0 36.667 9 70.334 27 101.001s42 55.167 72 73.5s62.667 27.5 98 27.5c36 0 68.833 -9.16699 98.5 -27.5s53.334 -42.666 71.001 -72.999s26.5 -64.166 26.5 -101.499
v-20c0 -2.66699 -1.66699 -4 -5 -4h-112c-2.66699 0 -4 1.33301 -4 4v20c0 22 -7.16699 40.833 -21.5 56.5s-32.166 23.5 -53.499 23.5c-20.667 0 -38.334 -7.83301 -53.001 -23.5s-22 -34.5 -22 -56.5v-69c24 10 49 15 75 15c36 0 68.833 -9 98.5 -27
s53.167 -42.167 70.5 -72.5s26 -63.833 26 -100.5v-62c0 -36 -8.83301 -69.167 -26.5 -99.5s-41.167 -54.5 -70.5 -72.5s-62 -27 -98 -27zM224.999 109.997c20.667 0 38.167 7.66699 52.5 23s21.5 34 21.5 56v62c0 21.333 -7.16699 39.833 -21.5 55.5
s-31.833 23.5 -52.5 23.5s-38.334 -7.66699 -53.001 -23s-22 -34 -22 -56v-62c0 -21.333 7.33301 -39.833 22 -55.5s32.334 -23.5 53.001 -23.5z" />
    <glyph glyph-name="seven" unicode="7" horiz-adv-x="442" 
d="M92 0c-2.66699 0 -3.33301 1.66699 -2 5l206 573h-273c-2.66699 0 -4 1.33301 -4 4v109c0 3.33301 1.33301 5 4 5h387c2.66699 0 4 -1.66699 4 -5v-112l-192 -574c-1.33301 -3.33301 -3.33301 -5 -6 -5h-124z" />
    <glyph glyph-name="eight" unicode="8" horiz-adv-x="449" 
d="M218 -10c-35.333 0 -67.834 9.16602 -97.501 27.499s-53.5 42.5 -71.5 72.5s-27 63 -27 99v62c0 28 5.33301 54.167 16 78.5s25 45.833 43 64.5c-14.667 16 -26.167 34.833 -34.5 56.5s-12.5 44.834 -12.5 69.501c0 34.667 8.16699 66.167 24.5 94.5
s38.5 50.833 66.5 67.5s59 25 93 25s64.833 -8.5 92.5 -25.5s49.834 -39.5 66.501 -67.5s25 -59.333 25 -94c0 -24.667 -4.16699 -47.667 -12.5 -69s-19.833 -40.333 -34.5 -57c18 -18 32.167 -39.333 42.5 -64s15.5 -51 15.5 -79v-62c0 -36 -8.83301 -69.167 -26.5 -99.5
s-41.167 -54.5 -70.5 -72.5s-62 -27 -98 -27zM217.999 452.999c17.333 0 32.166 6.5 44.499 19.5s18.5 28.833 18.5 47.5s-6.16699 34.667 -18.5 48s-27.166 20 -44.499 20s-32.333 -6.66699 -45 -20s-19 -29.333 -19 -48c0 -18 6.33301 -33.667 19 -47s27.667 -20 45 -20z
M217.999 109.999c20.667 0 38.167 7.66699 52.5 23s21.5 34 21.5 56v62c0 21.333 -7.16699 39.833 -21.5 55.5s-31.833 23.5 -52.5 23.5s-38.334 -7.66699 -53.001 -23s-22 -34 -22 -56v-62c0 -21.333 7.33301 -39.833 22 -55.5s32.334 -23.5 53.001 -23.5z" />
    <glyph glyph-name="nine" unicode="9" horiz-adv-x="449" 
d="M216 -10c-35.333 0 -68.0029 9.16699 -98.0029 27.5s-53.833 42.833 -71.5 73.5s-26.5 64.334 -26.5 101.001v20c0 2.66699 1.66699 4 5 4h112c2.66699 0 4 -1.33301 4 -4v-20c0 -22 7.33301 -40.833 22 -56.5s32.334 -23.5 53.001 -23.5s38.334 7.83301 53.001 23.5
s22 34.5 22 56.5v69c-24 -10 -49 -15 -75 -15c-36 0 -68.667 9 -98 27s-52.833 42.167 -70.5 72.5s-26.5 63.833 -26.5 100.5v62c0 36.667 8.83301 70 26.5 100s41.334 54 71.001 72s62.167 27 97.5 27s67.833 -9 97.5 -27s53.5 -42.167 71.5 -72.5s27 -63.5 27 -99.5v-62
l1 -254c0 -36.667 -9 -70.334 -27 -101.001s-41.833 -55.167 -71.5 -73.5s-62.5 -27.5 -98.5 -27.5zM215.997 367c21.333 0 39.168 7.66699 53.501 23s21.5 34 21.5 56v62c0 21.333 -7.33301 39.833 -22 55.5s-32.334 23.5 -53.001 23.5s-38.167 -7.66699 -52.5 -23
s-21.5 -34 -21.5 -56v-62c0 -21.333 7.16699 -39.833 21.5 -55.5s31.833 -23.5 52.5 -23.5z" />
    <glyph glyph-name="colon" unicode=":" horiz-adv-x="203" 
d="M44 297c-2.66699 0 -4 1.33301 -4 4v113c0 2.66699 1.33301 4 4 4h113c2.66699 0 4 -1.33301 4 -4v-113c0 -2.66699 -1.33301 -4 -4 -4h-113zM44 0c-2.66699 0 -4 1.33301 -4 4v113c0 2.66699 1.33301 4 4 4h113c2.66699 0 4 -1.33301 4 -4v-113
c0 -2.66699 -1.33301 -4 -4 -4h-113z" />
    <glyph glyph-name="semicolon" unicode=";" horiz-adv-x="203" 
d="M44 297c-2.66699 0 -4 1.33301 -4 4v113c0 2.66699 1.33301 4 4 4h113c2.66699 0 4 -1.33301 4 -4v-113c0 -2.66699 -1.33301 -4 -4 -4h-113zM40 -126l-0.00292969 61.999c16.667 0 30.834 6.33301 42.501 19s17.5 27.667 17.5 45h-56c-2.66699 0 -4 1.33301 -4 4v112
c0 2.66699 1.33301 4 4 4h113c2.66699 0 4 -1.33301 4 -4v-116c0 -23.333 -5.66699 -44.666 -17 -63.999s-26.166 -34.5 -44.499 -45.5s-38.166 -16.5 -59.499 -16.5z" />
    <glyph glyph-name="less" unicode="&#x3c;" horiz-adv-x="426" 
d="M307 120l-277 221c-5.33301 5.33301 -8 11.333 -8 18s2.66699 12 8 16l270 215c2 2 4.33301 1.66699 7 -1l49 -61c2 -4 2.33301 -6.66699 1 -8l-200 -162l207 -168c2 -2 2 -4.66699 0 -8l-50 -61c-2.66699 -2.66699 -5 -3 -7 -1z" />
    <glyph glyph-name="equal" unicode="=" horiz-adv-x="443" 
d="M29 396c-4 0 -6 1.66699 -6 5v79c0 4 2 6 6 6h384c3.33301 0 5 -2 5 -6v-79c0 -3.33301 -1.66699 -5 -5 -5h-384zM30 226c-4 0 -6 1.66699 -6 5v79c0 4 2 6 6 6h384c3.33301 0 5 -2 5 -6v-79c0 -3.33301 -1.66699 -5 -5 -5h-384z" />
    <glyph glyph-name="greater" unicode="&#x3e;" horiz-adv-x="426" 
d="M97 120c-2 -2 -4.33301 -1.66699 -7 1l-50 61c-2 3.33301 -2 6 0 8l207 168l-200 162c-1.33301 1.33301 -1 4 1 8l49 61c2.66699 2.66699 5 3 7 1l270 -215c5.33301 -4 8 -9.33301 8 -16s-2.66699 -12.667 -8 -18z" />
    <glyph glyph-name="question" unicode="?" horiz-adv-x="435" 
d="M154 184c-3.33301 0 -4.99902 1.33203 -4.99902 3.99902v54c0 26.667 6.16699 53.5 18.5 80.5s29.166 51.167 50.499 72.5c20 20 34.667 35.5 44 46.5s15.333 21.167 18 30.5s4 20.333 4 33c0 23.333 -7 42.833 -21 58.5s-31.667 23.5 -53 23.5
s-39.166 -7.83301 -53.499 -23.5s-21.5 -35.167 -21.5 -58.5v-73c0 -2.66699 -1.33301 -4 -4 -4h-113c-2.66699 0 -4 1.33301 -4 4v73c0 37.333 8.83301 71.333 26.5 102s41.334 55 71.001 73s62.5 27 98.5 27s68.833 -9 98.5 -27s53.167 -42.333 70.5 -73
s26 -64.667 26 -102c0 -22 -2.33301 -41.5 -7 -58.5s-13.334 -34.667 -26.001 -53s-31.334 -41.166 -56.001 -68.499c-16.667 -16.667 -28.5 -31.667 -35.5 -45s-10.5 -28 -10.5 -44v-48c0 -2.66699 -1.66699 -4 -5 -4h-111zM154.001 -0.000976562
c-3.33301 0 -5 1.66699 -5 5v111c0 2.66699 1.66699 4 5 4h111c3.33301 0 5 -1.33301 5 -4v-111c0 -3.33301 -1.66699 -5 -5 -5h-111z" />
    <glyph glyph-name="at" unicode="@" horiz-adv-x="541" 
d="M225 -10c-36 0 -68.835 9.16895 -98.502 27.502s-53.5 42.666 -71.5 72.999s-27 63.833 -27 100.5l1 317c0 36.667 8.83301 69.834 26.5 99.501s41.334 53.667 71.001 72s62.167 27.5 97.5 27.5h64c38 0 71.833 -9.33301 101.5 -28s53 -43.334 70 -74.001
s25.167 -64 24.5 -100l-1 -145c0 -35.333 -5 -67.333 -15 -96s-26 -51.334 -48 -68.001s-51.667 -25 -89 -25c-44.667 0 -78.5 17.833 -101.5 53.5s-34.5 80.834 -34.5 135.501v131c0 2 1.33301 3 4 3h108c2 0 3 -1 3 -3v-134c0 -28.667 1.83301 -49 5.5 -61
s10.167 -18 19.5 -18c11.333 0 18.5 5.5 21.5 16.5s4.5 31.833 4.5 62.5l1 151c0 22 -7 40.667 -21 56s-31.667 23 -53 23h-64c-20.667 -0.666992 -38.167 -8.5 -52.5 -23.5s-21.5 -33.5 -21.5 -55.5v-317c0 -22 7.33301 -38.5 22 -49.5s32.334 -16.5 53.001 -16.5
c38.667 0 82.834 0.5 132.501 1.5s97.167 3.5 142.5 7.5c3.33301 0 5 -1.66699 5 -5v-124c0 -2.66699 -1.66699 -4.33398 -5 -5.00098c-6.66699 -0.666992 -19.834 -1.5 -39.501 -2.5l-70 -3.5c-27 -1.33301 -55 -2.33301 -84 -3s-56.167 -1 -81.5 -1z" />
    <glyph glyph-name="A" unicode="A" horiz-adv-x="427" 
d="M6 5l123.999 687c0.666992 2.66699 2.33398 4 5.00098 4h145c2.66699 0 4.33398 -1.33301 5.00098 -4l119 -687c0.666992 -3.33301 -0.666016 -5 -3.99902 -5h-111c-2.66699 0 -4.33398 1.66699 -5.00098 5l-11 73h-136l-11 -73
c-0.666992 -3.33301 -2.33398 -5 -5.00098 -5h-111c-2.66699 0 -4 1.66699 -4 5zM156.999 185h96l-41 281l-6 37l-4 -37z" />
    <glyph glyph-name="B" unicode="B" horiz-adv-x="464" 
d="M44 0c-2.66699 0 -3.99805 1.66699 -3.99805 5l2 687c0 2.66699 1.33301 4 4 4h192c38 0 72 -9.16699 102 -27.5s53.667 -42.5 71 -72.5s26 -62.667 26 -98c0 -28.667 -6.5 -55.334 -19.5 -80.001s-28.5 -44.667 -46.5 -60c19.333 -19.333 34.333 -41.666 45 -66.999
s16 -52 16 -80c0 -38.667 -9.33301 -74 -28 -106s-43.834 -57.5 -75.501 -76.5s-66.834 -28.5 -105.501 -28.5h-179zM162.002 420l76 0.000976562c23.333 0 42.166 8.16699 56.499 24.5s21.5 34.166 21.5 53.499c0 21.333 -7.66699 39.833 -23 55.5
s-33.666 23.5 -54.999 23.5h-76v-157zM161.002 122.001h62c24 0 44.667 8.83301 62 26.5s26 38.5 26 62.5s-8.66699 44.667 -26 62s-38 26 -62 26h-61z" />
    <glyph glyph-name="C" unicode="C" horiz-adv-x="453" 
d="M224 -10c-36.667 0 -69.833 9.16602 -99.5 27.499s-53.167 42.833 -70.5 73.5s-26 65 -26 103l1 312c0 36.667 8.5 70.167 25.5 100.5s40.333 54.666 70 72.999s62.834 27.5 99.501 27.5s69.667 -9 99 -27s52.666 -42.167 69.999 -72.5s26 -64.166 26 -101.499v-46
c0 -2.66699 -1.33301 -4 -4 -4h-112c-2.66699 0 -4 1.33301 -4 4v46c0 22 -7.16699 41 -21.5 57s-32.166 24 -53.499 24c-24 0 -42.333 -8.16699 -55 -24.5s-19 -35.166 -19 -56.499v-312c0 -24.667 7.16699 -44.667 21.5 -60s31.833 -23 52.5 -23
c21.333 0 39.166 8.5 53.499 25.5s21.5 36.167 21.5 57.5v46c0 2.66699 1.33301 4 4 4h113c2.66699 0 4 -1.33301 4 -4v-46c0 -38 -8.83301 -72.333 -26.5 -103s-41.167 -55.167 -70.5 -73.5s-62.333 -27.5 -99 -27.5z" />
    <glyph glyph-name="D" unicode="D" horiz-adv-x="472" 
d="M45 0c-3.33301 0 -5.00098 1.66992 -5.00098 5.00293l2 687c0 2.66699 1.33301 4 4 4l187 1c36.667 0.666992 70.167 -8 100.5 -26s54.5 -42.167 72.5 -72.5s27 -63.833 27 -100.5v-287c0 -38.667 -9.33301 -73.834 -28 -105.501s-43.667 -56.834 -75 -75.501
s-66.666 -28.334 -105.999 -29.001zM161.999 123.003h62c24.667 0 45.5 8.66699 62.5 26s25.5 38 25.5 62v288c0 21.333 -7.83301 39.833 -23.5 55.5s-34.167 23.167 -55.5 22.5l-70 -1z" />
    <glyph glyph-name="E" unicode="E" horiz-adv-x="420" 
d="M44 0c-2.66699 0 -4 1.66699 -4 5l1 687c0 2.66699 1.33301 4 4 4h321c2.66699 0 4 -1.66699 4 -5v-112c0 -2.66699 -1.33301 -4 -4 -4h-205v-156h205c2.66699 0 4 -1.33301 4 -4l1 -113c0 -2.66699 -1.33301 -4 -4 -4h-206v-175h206c2.66699 0 4 -1.66699 4 -5v-114
c0 -2.66699 -1.33301 -4 -4 -4h-323z" />
    <glyph glyph-name="F" unicode="F" horiz-adv-x="421" 
d="M45 0c-3.33301 0 -5 1.66699 -5 5l2 687c0 2.66699 1.33301 4 4 4h320c3.33301 0 5 -1.33301 5 -4v-113c0 -2.66699 -1.33301 -4 -4 -4h-205v-155h205c2.66699 0 4 -1.66699 4 -5l1 -113c0 -2.66699 -1.66699 -4 -5 -4h-205v-293c0 -3.33301 -1.66699 -5 -5 -5h-112z" />
    <glyph glyph-name="G" unicode="G" horiz-adv-x="450" 
d="M223 -10c-36 0 -68.6689 9 -98.002 27s-52.833 42.167 -70.5 72.5s-26.5 64.166 -26.5 101.499v317c0 36 8.83301 69.167 26.5 99.5s41.334 54.5 71.001 72.5s62.167 27 97.5 27c36.667 0 69.834 -8.83301 99.501 -26.5s53.167 -41.5 70.5 -71.5s26 -63.667 26 -101v-46
c0 -2.66699 -1.66699 -4 -5 -4h-112c-2.66699 0 -4 1.33301 -4 4v38c0 25.333 -7.16699 46.333 -21.5 63s-32.166 25 -53.499 25c-19.333 0 -36.5 -8 -51.5 -24s-22.5 -34.667 -22.5 -56v-317c0 -22 7.33301 -40.833 22 -56.5s32 -23.5 52 -23.5
c21.333 0 39.166 7.66699 53.499 23s21.5 34.333 21.5 57v49h-70c-3.33301 0 -5 1.66699 -5 5v112c0 3.33301 1.66699 5 5 5h187c2.66699 0 4 -1.66699 4 -5v-166c0 -37.333 -8.83301 -71.166 -26.5 -101.499s-41.167 -54.5 -70.5 -72.5s-62.333 -27 -99 -27z" />
    <glyph glyph-name="H" unicode="H" horiz-adv-x="475" 
d="M44 0c-2.66699 0 -4 1.66699 -4 5l1 687c0 2.66699 1.66699 4 5 4h111c3.33301 0 5 -1.33301 5 -4l-1 -272h150v272c0 2.66699 1.33301 4 4 4h111c3.33301 0 5 -1.33301 5 -4l2 -687c0 -3.33301 -1.66699 -5 -5 -5h-112c-3.33301 0 -5 1.66699 -5 5v294h-150v-294
c0 -3.33301 -1.33301 -5 -4 -5h-113z" />
    <glyph glyph-name="I" unicode="I" horiz-adv-x="210" 
d="M45 0c-3.33301 0 -5 1.66699 -5 5l1 687c0 2.66699 1.33301 4 4 4h112c2.66699 0 4 -1.33301 4 -4l1 -687c0 -3.33301 -1.33301 -5 -4 -5h-113z" />
    <glyph glyph-name="J" unicode="J" horiz-adv-x="435" 
d="M204 -10c-37.333 0 -70.833 8.83301 -100.5 26.5s-53 42 -70 73s-25.5 65.833 -25.5 104.5v46c0 2.66699 1.33301 4 4 4h113c2.66699 0 4 -1.66699 4 -5v-45c0 -24.667 7 -44.667 21 -60s32 -23 54 -23c20 0 37.333 8.33301 52 25s22 36 22 58v497
c0 2.66699 1.33301 4 4 4h112c2.66699 0 4 -1.66699 4 -5l1 -496c0 -36.667 -8.83301 -70.5 -26.5 -101.5s-41.167 -55.833 -70.5 -74.5s-62 -28 -98 -28z" />
    <glyph glyph-name="K" unicode="K" horiz-adv-x="469" 
d="M44 0c-2.66699 0 -4 1.66699 -4 5l2 686c0 3.33301 1.33301 5 4 5h112c2.66699 0 4 -1.66699 4 -5v-237l157 238c2 2.66699 4.33301 4 7 4h115c2.66699 0 3.33398 -1.33301 2.00098 -4l-173 -276l194 -412c1.33301 -2.66699 -0.333984 -4 -5.00098 -4h-122
c-3.33301 -0 -5.33301 1.33301 -6 4l-135 294l-35 -55v-238c0 -3.33301 -1.33301 -5 -4 -5h-113z" />
    <glyph glyph-name="L" unicode="L" horiz-adv-x="397" 
d="M44 0c-2.66699 0 -4 1.66699 -4 5l1 686c0 3.33301 1.66699 5 5 5h111c3.33301 0 5 -1.66699 5 -5l-1 -568h206c3.33301 0 5 -1.66699 5 -5v-113c0 -3.33301 -1.66699 -5 -5 -5h-323z" />
    <glyph glyph-name="M" unicode="M" horiz-adv-x="537" 
d="M44 0c-2.66699 0 -4 1.66699 -4 5l2 687c0 2.66699 1.33301 4 4 4h122c2.66699 0 5 -1.33301 7 -4l91 -132l91 132c2 2.66699 4.33301 4 7 4h123c2.66699 0 4 -1.33301 4 -4l2 -687c0 -3.33301 -1.33301 -5 -4 -5h-113c-2.66699 0 -4 1.66699 -4 5l-1 510l-105 -152
l-104 152l-1 -510c0 -3.33301 -1.33301 -5 -4 -5h-113z" />
    <glyph glyph-name="N" unicode="N" horiz-adv-x="464" 
d="M49 0c-5.33301 0 -8 2.33301 -8 7l-1 681c0 5.33301 2.66699 8 8 8h90l169 -394l-5 386c0 5.33301 3 8 9 8h99c4 0 6 -2.66699 6 -8l1 -682c0 -4 -1.66699 -6 -5 -6h-88l-173 368l7 -360c0 -5.33301 -3 -8 -9 -8h-100z" />
    <glyph glyph-name="O" unicode="O" horiz-adv-x="457" 
d="M225 -10c-36 0 -68.832 9.16699 -98.499 27.5s-53.5 42.666 -71.5 72.999s-27 63.833 -27 100.5l1 317c0 36.667 8.83301 70 26.5 100s41.5 54 71.5 72s62.667 27 98 27c36 0 68.667 -9 98 -27s52.833 -42 70.5 -72s26.5 -63.333 26.5 -100l1 -317
c0 -36.667 -8.83301 -70.167 -26.5 -100.5s-41.334 -54.666 -71.001 -72.999s-62.5 -27.5 -98.5 -27.5zM225.001 111c20 0 37.5 8.16699 52.5 24.5s22.5 34.833 22.5 55.5l-1 317c0 22 -7 40.667 -21 56s-31.667 23 -53 23c-20.667 0 -38.334 -7.5 -53.001 -22.5
s-22 -33.833 -22 -56.5v-317c0 -22 7.33301 -40.833 22 -56.5s32.334 -23.5 53.001 -23.5z" />
    <glyph glyph-name="P" unicode="P" horiz-adv-x="457" 
d="M45 0c-3.33301 0 -5 1.66797 -5 5.00098l2 687c0 2.66699 1.33301 4 4 4h192c61.333 0 109.833 -18.667 145.5 -56s53.5 -88 53.5 -152c0 -47.333 -9.33301 -88.333 -28 -123s-43 -61.334 -73 -80.001s-62.667 -28 -98 -28h-76v-252c0 -3.33301 -1.66699 -5 -5 -5h-112z
M162 378.001h76c21.333 0 39.833 10.167 55.5 30.5s23.5 46.833 23.5 79.5c0 26 -7 47.333 -21 64s-33.333 25 -58 25l-76 -1v-198z" />
    <glyph glyph-name="Q" unicode="Q" horiz-adv-x="466" 
d="M369 -64l-69.002 70.001c-24 -10.667 -49 -16 -75 -16c-35.333 0 -68 9 -98 27s-54 42.333 -72 73s-27 64.334 -27 101.001l1 317c0 35.333 8.66699 68.166 26 98.499s40.833 54.666 70.5 72.999s62.834 27.5 99.501 27.5c35.333 0 67.833 -8.83301 97.5 -26.5
s53.334 -41.5 71.001 -71.5s26.5 -63.667 26.5 -101l1 -317c0 -19.333 -2.66699 -38 -8 -56s-12.333 -34.667 -21 -50l62 -63c2.66699 -2.66699 3 -5 1 -7l-79 -79c-2.66699 -2 -5 -2 -7 0zM224.998 111.001c22.667 0 40.833 8.5 54.5 25.5s20.5 35.167 20.5 54.5l-1 317
c0 21.333 -7 39.833 -21 55.5s-31.667 23.5 -53 23.5c-22.667 0 -40.834 -8 -54.501 -24s-20.5 -34.333 -20.5 -55v-317c0 -24 7.83301 -43.333 23.5 -58s32.834 -22 51.501 -22z" />
    <glyph glyph-name="R" unicode="R" horiz-adv-x="482" 
d="M44 0c-2.66699 0 -4 1.6709 -4 5.00391l2 687c0 2.66699 1.33301 4 4 4h202c36 0 69.167 -8.83301 99.5 -26.5s54.5 -41.334 72.5 -71.001s27 -63.167 27 -100.5c0 -24.667 -3.66699 -46.834 -11 -66.501s-16 -36.334 -26 -50.001s-19 -23.834 -27 -30.501
c36 -40 54 -87 54 -141l1 -205c0 -3.33301 -1.66699 -5 -5 -5h-113c-2.66699 0 -4 1 -4 3v207c0 24 -8.5 44.833 -25.5 62.5s-37.833 26.5 -62.5 26.5h-66l-1 -294c0 -3.33301 -1.33301 -5 -4 -5h-113zM162 419.004l86 0.000976562c20.667 0 39 7.66699 55 23s24 34 24 56
c0 21.333 -7.83301 39.666 -23.5 54.999s-34.167 23 -55.5 23h-86v-157z" />
    <glyph glyph-name="S" unicode="S" horiz-adv-x="436" 
d="M210 -10c-36 0 -68.832 9.1709 -98.499 27.5039s-53.334 42.666 -71.001 72.999s-26.5 63.833 -26.5 100.5v46c0 3.33301 1.66699 5 5 5h112c2.66699 0 4 -1.66699 4 -5v-46c0 -22 7.33301 -40.833 22 -56.5s32.334 -23.5 53.001 -23.5s38.334 8 53.001 24
s22 34.667 22 56c0 24.667 -16 46 -48 64l-50 28l-64 36c-36.667 21.333 -63.834 48.166 -81.501 80.499s-26.5 68.833 -26.5 109.5c0 37.333 9 70.833 27 100.5s41.833 53.167 71.5 70.5s61.834 26 96.501 26c35.333 0 67.833 -8.83301 97.5 -26.5
s53.334 -41.334 71.001 -71.001s26.5 -62.834 26.5 -99.501v-82c0 -2.66699 -1.33301 -4 -4 -4h-112c-2.66699 0 -4 1.33301 -4 4l-1 82c0 23.333 -7.33301 42.333 -22 57s-32 22 -52 22c-20.667 0 -38.334 -7.83301 -53.001 -23.5s-22 -34.167 -22 -55.5
c0 -22 4.66699 -40.333 14 -55s26.333 -28.667 51 -42c3.33301 -2 9.83301 -5.5 19.5 -10.5l31.5 -17l30.5 -16.5c9 -4.66699 14.5 -7.66699 16.5 -9c33.333 -18.667 59.666 -41.5 78.999 -68.5s29 -60.167 29 -99.5c0 -38 -8.83301 -72.167 -26.5 -102.5
s-41.334 -54.333 -71.001 -72s-62.5 -26.5 -98.5 -26.5z" />
    <glyph glyph-name="T" unicode="T" horiz-adv-x="400" 
d="M140 0c-2.66699 0 -4 1.66699 -4 5v570h-130c-3.33301 0 -5 1.66699 -5 5l1 112c0 2.66699 1.33301 4 4 4h380c3.33301 0 5 -1.33301 5 -4v-112c0 -3.33301 -1.33301 -5 -4 -5h-131l1 -570c0 -3.33301 -1.33301 -5 -4 -5h-113z" />
    <glyph glyph-name="U" unicode="U" horiz-adv-x="460" 
d="M224 -10c-35.333 0 -67.9971 9.16602 -97.9971 27.499s-53.833 42.833 -71.5 73.5s-26.5 64.334 -26.5 101.001l2 500c0 2.66699 1.33301 4 4 4h112c2.66699 0 4 -1.33301 4 -4v-500c0 -22.667 7.16699 -41.834 21.5 -57.501s31.833 -23.5 52.5 -23.5
c21.333 0 39.166 7.83301 53.499 23.5s21.5 34.834 21.5 57.501v500c0 2.66699 1.33301 4 4 4h112c2.66699 0 4 -1.33301 4 -4l2 -500c0 -37.333 -8.83301 -71.333 -26.5 -102s-41.334 -55 -71.001 -73s-62.834 -27 -99.501 -27z" />
    <glyph glyph-name="V" unicode="V" horiz-adv-x="433" 
d="M152 0c-2.66699 0 -4.33203 1.66699 -4.99902 5l-138 687c-0.666992 2.66699 0.666016 4 3.99902 4h113c2.66699 0 4.33398 -1.33301 5.00098 -4l82 -458l80 458c0.666992 2.66699 2.33398 4 5.00098 4h112c3.33301 0 4.66602 -1.33301 3.99902 -4l-136 -687
c-0.666992 -3.33301 -2.33398 -5 -5.00098 -5h-121z" />
    <glyph glyph-name="W" unicode="W" horiz-adv-x="629" 
d="M132 0c-2.66699 0 -4.33398 1.66699 -5.00098 5l-118 687c-0.666992 2.66699 0.333008 4 3 4h112c2.66699 0 4.33398 -1.33301 5.00098 -4l64 -452l66 452c0.666992 2.66699 2.66699 4 6 4h90c2.66699 0 4.33398 -1.33301 5.00098 -4l65 -452l65 452
c0.666992 2.66699 2.33398 4 5.00098 4h111c3.33301 0 4.66602 -1.33301 3.99902 -4l-119 -687c-0.666992 -1.33301 -1.66699 -2.5 -3 -3.5l-2 -1.5h-121c-2 0 -3.66699 1.66699 -5 5l-51 359l-51 -359c-0.666992 -3.33301 -2.33398 -5 -5.00098 -5h-121z" />
    <glyph glyph-name="X" unicode="X" horiz-adv-x="404" 
d="M9 0c-2.66699 0 -3.66699 1.66699 -3 5l114 357l-112 330c-0.666992 2.66699 0.333008 4 3 4h112c3.33301 0 5.33301 -1.33301 6 -4l67 -238l68 238c0.666992 2.66699 2.66699 4 6 4h111c2.66699 0 3.66699 -1.33301 3 -4l-112 -329l113 -358
c1.33301 -3.33301 0.333008 -5 -3 -5h-112c-2.66699 0 -4.66699 1.66699 -6 5l-68 258l-69 -258c-0.666992 -3.33301 -2.66699 -5 -6 -5h-112z" />
    <glyph glyph-name="Y" unicode="Y" horiz-adv-x="401" 
d="M133 0c-2 0 -3.00098 1.33301 -3.00098 4l1 284l-134 404c-0.666992 2.66699 0.333008 4 3 4h111c3.33301 0 5.33301 -1.33301 6 -4l74 -269l75 269c0.666992 2.66699 2.33398 4 5.00098 4h112c2.66699 0 3.66699 -1.33301 3 -4l-135 -400l1 -288
c0 -2.66699 -1.33301 -4 -4 -4h-115z" />
    <glyph glyph-name="Z" unicode="Z" horiz-adv-x="414" 
d="M13 0c-3.33301 0 -5 1.66699 -5 5l1 109l245 468h-232c-2.66699 0 -4 1.33301 -4 4v105c0 3.33301 1.33301 5 4 5h362c3.33301 0 5 -1.66699 5 -5v-108l-244 -466h241c2.66699 0 4 -1.66699 4 -5l1 -107c0 -3.33301 -1.66699 -5 -5 -5h-373z" />
    <glyph glyph-name="bracketleft" unicode="[" horiz-adv-x="334" 
d="M41 0c-2.66699 0 -4 1.33301 -4 4v688c0 2.66699 1.33301 4 4 4h250c3.33301 0 5 -1.33301 5 -4v-109c0 -2.66699 -1.66699 -4 -5 -4h-138v-462h138c3.33301 0 5 -1.33301 5 -4v-109c0 -2.66699 -1.66699 -4 -5 -4h-250z" />
    <glyph glyph-name="backslash" unicode="\" horiz-adv-x="301" 
d="M161 0c-2.66699 0 -4.33398 1.66699 -5.00098 5l-125 687c-0.666992 2.66699 0.666016 4 3.99902 4h104c2.66699 0 4.33398 -1.33301 5.00098 -4l126 -687c0.666992 -3.33301 -0.666016 -5 -3.99902 -5h-105z" />
    <glyph glyph-name="bracketright" unicode="]" horiz-adv-x="334" 
d="M43 0c-3.33301 0 -5 1.33301 -5 4v109c0 2.66699 1.66699 4 5 4h138v462h-138c-3.33301 0 -5 1.33301 -5 4v109c0 2.66699 1.66699 4 5 4h250c2.66699 0 4 -1.33301 4 -4v-688c0 -2.66699 -1.33301 -4 -4 -4h-250z" />
    <glyph glyph-name="asciicircum" unicode="^" horiz-adv-x="368" 
d="M92 418l-72.999 53l136 213c5.33301 5.33301 13.166 8 23.499 8s17.5 -2.66699 21.5 -8l136 -212l-73 -54l-86 139z" />
    <glyph glyph-name="underscore" unicode="_" horiz-adv-x="547" 
d="M44 -105c-2.66699 0 -4 1.33301 -4 4v102c0 2.66699 1.33301 4 4 4h457c2.66699 0 4 -1.33301 4 -4v-102c0 -2.66699 -1.33301 -4 -4 -4h-457z" />
    <glyph glyph-name="grave" unicode="`" horiz-adv-x="285" 
d="M139 749c-2.66699 0 -4.66895 1.33301 -6.00195 4l-93 173c-1.33301 2.66699 0 4 4 4h114c2.66699 0 4.33398 -1.33301 5.00098 -4l80 -173c0.666992 -2.66699 -0.666016 -4 -3.99902 -4h-100z" />
    <glyph glyph-name="a" unicode="a" horiz-adv-x="427" 
d="M6 5l123.999 687c0.666992 2.66699 2.33398 4 5.00098 4h145c2.66699 0 4.33398 -1.33301 5.00098 -4l119 -687c0.666992 -3.33301 -0.666016 -5 -3.99902 -5h-111c-2.66699 0 -4.33398 1.66699 -5.00098 5l-11 73h-136l-11 -73
c-0.666992 -3.33301 -2.33398 -5 -5.00098 -5h-111c-2.66699 0 -4 1.66699 -4 5zM156.999 185h96l-41 281l-6 37l-4 -37z" />
    <glyph glyph-name="b" unicode="b" horiz-adv-x="464" 
d="M44 0c-2.66699 0 -3.99805 1.66699 -3.99805 5l2 687c0 2.66699 1.33301 4 4 4h192c38 0 72 -9.16699 102 -27.5s53.667 -42.5 71 -72.5s26 -62.667 26 -98c0 -28.667 -6.5 -55.334 -19.5 -80.001s-28.5 -44.667 -46.5 -60c19.333 -19.333 34.333 -41.666 45 -66.999
s16 -52 16 -80c0 -38.667 -9.33301 -74 -28 -106s-43.834 -57.5 -75.501 -76.5s-66.834 -28.5 -105.501 -28.5h-179zM162.002 420l76 0.000976562c23.333 0 42.166 8.16699 56.499 24.5s21.5 34.166 21.5 53.499c0 21.333 -7.66699 39.833 -23 55.5
s-33.666 23.5 -54.999 23.5h-76v-157zM161.002 122.001h62c24 0 44.667 8.83301 62 26.5s26 38.5 26 62.5s-8.66699 44.667 -26 62s-38 26 -62 26h-61z" />
    <glyph glyph-name="c" unicode="c" horiz-adv-x="453" 
d="M224 -10c-36.667 0 -69.833 9.16602 -99.5 27.499s-53.167 42.833 -70.5 73.5s-26 65 -26 103l1 312c0 36.667 8.5 70.167 25.5 100.5s40.333 54.666 70 72.999s62.834 27.5 99.501 27.5s69.667 -9 99 -27s52.666 -42.167 69.999 -72.5s26 -64.166 26 -101.499v-46
c0 -2.66699 -1.33301 -4 -4 -4h-112c-2.66699 0 -4 1.33301 -4 4v46c0 22 -7.16699 41 -21.5 57s-32.166 24 -53.499 24c-24 0 -42.333 -8.16699 -55 -24.5s-19 -35.166 -19 -56.499v-312c0 -24.667 7.16699 -44.667 21.5 -60s31.833 -23 52.5 -23
c21.333 0 39.166 8.5 53.499 25.5s21.5 36.167 21.5 57.5v46c0 2.66699 1.33301 4 4 4h113c2.66699 0 4 -1.33301 4 -4v-46c0 -38 -8.83301 -72.333 -26.5 -103s-41.167 -55.167 -70.5 -73.5s-62.333 -27.5 -99 -27.5z" />
    <glyph glyph-name="d" unicode="d" horiz-adv-x="472" 
d="M45 0c-3.33301 0 -5.00098 1.66992 -5.00098 5.00293l2 687c0 2.66699 1.33301 4 4 4l187 1c36.667 0.666992 70.167 -8 100.5 -26s54.5 -42.167 72.5 -72.5s27 -63.833 27 -100.5v-287c0 -38.667 -9.33301 -73.834 -28 -105.501s-43.667 -56.834 -75 -75.501
s-66.666 -28.334 -105.999 -29.001zM161.999 123.003h62c24.667 0 45.5 8.66699 62.5 26s25.5 38 25.5 62v288c0 21.333 -7.83301 39.833 -23.5 55.5s-34.167 23.167 -55.5 22.5l-70 -1z" />
    <glyph glyph-name="e" unicode="e" horiz-adv-x="420" 
d="M44 0c-2.66699 0 -4 1.66699 -4 5l1 687c0 2.66699 1.33301 4 4 4h321c2.66699 0 4 -1.66699 4 -5v-112c0 -2.66699 -1.33301 -4 -4 -4h-205v-156h205c2.66699 0 4 -1.33301 4 -4l1 -113c0 -2.66699 -1.33301 -4 -4 -4h-206v-175h206c2.66699 0 4 -1.66699 4 -5v-114
c0 -2.66699 -1.33301 -4 -4 -4h-323z" />
    <glyph glyph-name="f" unicode="f" horiz-adv-x="421" 
d="M45 0c-3.33301 0 -5 1.66699 -5 5l2 687c0 2.66699 1.33301 4 4 4h320c3.33301 0 5 -1.33301 5 -4v-113c0 -2.66699 -1.33301 -4 -4 -4h-205v-155h205c2.66699 0 4 -1.66699 4 -5l1 -113c0 -2.66699 -1.66699 -4 -5 -4h-205v-293c0 -3.33301 -1.66699 -5 -5 -5h-112z" />
    <glyph glyph-name="g" unicode="g" horiz-adv-x="450" 
d="M223 -10c-36 0 -68.6689 9 -98.002 27s-52.833 42.167 -70.5 72.5s-26.5 64.166 -26.5 101.499v317c0 36 8.83301 69.167 26.5 99.5s41.334 54.5 71.001 72.5s62.167 27 97.5 27c36.667 0 69.834 -8.83301 99.501 -26.5s53.167 -41.5 70.5 -71.5s26 -63.667 26 -101v-46
c0 -2.66699 -1.66699 -4 -5 -4h-112c-2.66699 0 -4 1.33301 -4 4v38c0 25.333 -7.16699 46.333 -21.5 63s-32.166 25 -53.499 25c-19.333 0 -36.5 -8 -51.5 -24s-22.5 -34.667 -22.5 -56v-317c0 -22 7.33301 -40.833 22 -56.5s32 -23.5 52 -23.5
c21.333 0 39.166 7.66699 53.499 23s21.5 34.333 21.5 57v49h-70c-3.33301 0 -5 1.66699 -5 5v112c0 3.33301 1.66699 5 5 5h187c2.66699 0 4 -1.66699 4 -5v-166c0 -37.333 -8.83301 -71.166 -26.5 -101.499s-41.167 -54.5 -70.5 -72.5s-62.333 -27 -99 -27z" />
    <glyph glyph-name="h" unicode="h" horiz-adv-x="475" 
d="M44 0c-2.66699 0 -4 1.66699 -4 5l1 687c0 2.66699 1.66699 4 5 4h111c3.33301 0 5 -1.33301 5 -4l-1 -272h150v272c0 2.66699 1.33301 4 4 4h111c3.33301 0 5 -1.33301 5 -4l2 -687c0 -3.33301 -1.66699 -5 -5 -5h-112c-3.33301 0 -5 1.66699 -5 5v294h-150v-294
c0 -3.33301 -1.33301 -5 -4 -5h-113z" />
    <glyph glyph-name="i" unicode="i" horiz-adv-x="210" 
d="M45 0c-3.33301 0 -5 1.66699 -5 5l1 687c0 2.66699 1.33301 4 4 4h112c2.66699 0 4 -1.33301 4 -4l1 -687c0 -3.33301 -1.33301 -5 -4 -5h-113z" />
    <glyph glyph-name="j" unicode="j" horiz-adv-x="435" 
d="M204 -10c-37.333 0 -70.833 8.83301 -100.5 26.5s-53 42 -70 73s-25.5 65.833 -25.5 104.5v46c0 2.66699 1.33301 4 4 4h113c2.66699 0 4 -1.66699 4 -5v-45c0 -24.667 7 -44.667 21 -60s32 -23 54 -23c20 0 37.333 8.33301 52 25s22 36 22 58v497
c0 2.66699 1.33301 4 4 4h112c2.66699 0 4 -1.66699 4 -5l1 -496c0 -36.667 -8.83301 -70.5 -26.5 -101.5s-41.167 -55.833 -70.5 -74.5s-62 -28 -98 -28z" />
    <glyph glyph-name="k" unicode="k" horiz-adv-x="469" 
d="M44 0c-2.66699 0 -4 1.66699 -4 5l2 686c0 3.33301 1.33301 5 4 5h112c2.66699 0 4 -1.66699 4 -5v-237l157 238c2 2.66699 4.33301 4 7 4h115c2.66699 0 3.33398 -1.33301 2.00098 -4l-173 -276l194 -412c1.33301 -2.66699 -0.333984 -4 -5.00098 -4h-122
c-3.33301 -0 -5.33301 1.33301 -6 4l-135 294l-35 -55v-238c0 -3.33301 -1.33301 -5 -4 -5h-113z" />
    <glyph glyph-name="l" unicode="l" horiz-adv-x="397" 
d="M44 0c-2.66699 0 -4 1.66699 -4 5l1 686c0 3.33301 1.66699 5 5 5h111c3.33301 0 5 -1.66699 5 -5l-1 -568h206c3.33301 0 5 -1.66699 5 -5v-113c0 -3.33301 -1.66699 -5 -5 -5h-323z" />
    <glyph glyph-name="m" unicode="m" horiz-adv-x="537" 
d="M44 0c-2.66699 0 -4 1.66699 -4 5l2 687c0 2.66699 1.33301 4 4 4h122c2.66699 0 5 -1.33301 7 -4l91 -132l91 132c2 2.66699 4.33301 4 7 4h123c2.66699 0 4 -1.33301 4 -4l2 -687c0 -3.33301 -1.33301 -5 -4 -5h-113c-2.66699 0 -4 1.66699 -4 5l-1 510l-105 -152
l-104 152l-1 -510c0 -3.33301 -1.33301 -5 -4 -5h-113z" />
    <glyph glyph-name="n" unicode="n" horiz-adv-x="464" 
d="M49 0c-5.33301 0 -8 2.33301 -8 7l-1 681c0 5.33301 2.66699 8 8 8h90l169 -394l-5 386c0 5.33301 3 8 9 8h99c4 0 6 -2.66699 6 -8l1 -682c0 -4 -1.66699 -6 -5 -6h-88l-173 368l7 -360c0 -5.33301 -3 -8 -9 -8h-100z" />
    <glyph glyph-name="o" unicode="o" horiz-adv-x="457" 
d="M225 -10c-36 0 -68.832 9.16699 -98.499 27.5s-53.5 42.666 -71.5 72.999s-27 63.833 -27 100.5l1 317c0 36.667 8.83301 70 26.5 100s41.5 54 71.5 72s62.667 27 98 27c36 0 68.667 -9 98 -27s52.833 -42 70.5 -72s26.5 -63.333 26.5 -100l1 -317
c0 -36.667 -8.83301 -70.167 -26.5 -100.5s-41.334 -54.666 -71.001 -72.999s-62.5 -27.5 -98.5 -27.5zM225.001 111c20 0 37.5 8.16699 52.5 24.5s22.5 34.833 22.5 55.5l-1 317c0 22 -7 40.667 -21 56s-31.667 23 -53 23c-20.667 0 -38.334 -7.5 -53.001 -22.5
s-22 -33.833 -22 -56.5v-317c0 -22 7.33301 -40.833 22 -56.5s32.334 -23.5 53.001 -23.5z" />
    <glyph glyph-name="p" unicode="p" horiz-adv-x="465" 
d="M45 0c-3.33301 0 -5 1.66797 -5 5.00098l2 687c0 2.66699 1.33301 4 4 4h192c61.333 0 109.833 -18.667 145.5 -56s53.5 -88 53.5 -152c0 -47.333 -9.33301 -88.333 -28 -123s-43 -61.334 -73 -80.001s-62.667 -28 -98 -28h-76v-252c0 -3.33301 -1.66699 -5 -5 -5h-112z
M162 378.001h76c21.333 0 39.833 10.167 55.5 30.5s23.5 46.833 23.5 79.5c0 26 -7 47.333 -21 64s-33.333 25 -58 25l-76 -1v-198z" />
    <glyph glyph-name="q" unicode="q" horiz-adv-x="466" 
d="M369 -64l-69.002 70.001c-24 -10.667 -49 -16 -75 -16c-35.333 0 -68 9 -98 27s-54 42.333 -72 73s-27 64.334 -27 101.001l1 317c0 35.333 8.66699 68.166 26 98.499s40.833 54.666 70.5 72.999s62.834 27.5 99.501 27.5c35.333 0 67.833 -8.83301 97.5 -26.5
s53.334 -41.5 71.001 -71.5s26.5 -63.667 26.5 -101l1 -317c0 -19.333 -2.66699 -38 -8 -56s-12.333 -34.667 -21 -50l62 -63c2.66699 -2.66699 3 -5 1 -7l-79 -79c-2.66699 -2 -5 -2 -7 0zM224.998 111.001c22.667 0 40.833 8.5 54.5 25.5s20.5 35.167 20.5 54.5l-1 317
c0 21.333 -7 39.833 -21 55.5s-31.667 23.5 -53 23.5c-22.667 0 -40.834 -8 -54.501 -24s-20.5 -34.333 -20.5 -55v-317c0 -24 7.83301 -43.333 23.5 -58s32.834 -22 51.501 -22z" />
    <glyph glyph-name="r" unicode="r" horiz-adv-x="482" 
d="M44 0c-2.66699 0 -4 1.6709 -4 5.00391l2 687c0 2.66699 1.33301 4 4 4h202c36 0 69.167 -8.83301 99.5 -26.5s54.5 -41.334 72.5 -71.001s27 -63.167 27 -100.5c0 -24.667 -3.66699 -46.834 -11 -66.501s-16 -36.334 -26 -50.001s-19 -23.834 -27 -30.501
c36 -40 54 -87 54 -141l1 -205c0 -3.33301 -1.66699 -5 -5 -5h-113c-2.66699 0 -4 1 -4 3v207c0 24 -8.5 44.833 -25.5 62.5s-37.833 26.5 -62.5 26.5h-66l-1 -294c0 -3.33301 -1.33301 -5 -4 -5h-113zM162 419.004l86 0.000976562c20.667 0 39 7.66699 55 23s24 34 24 56
c0 21.333 -7.83301 39.666 -23.5 54.999s-34.167 23 -55.5 23h-86v-157z" />
    <glyph glyph-name="s" unicode="s" horiz-adv-x="436" 
d="M210 -10c-36 0 -68.832 9.1709 -98.499 27.5039s-53.334 42.666 -71.001 72.999s-26.5 63.833 -26.5 100.5v46c0 3.33301 1.66699 5 5 5h112c2.66699 0 4 -1.66699 4 -5v-46c0 -22 7.33301 -40.833 22 -56.5s32.334 -23.5 53.001 -23.5s38.334 8 53.001 24
s22 34.667 22 56c0 24.667 -16 46 -48 64l-50 28l-64 36c-36.667 21.333 -63.834 48.166 -81.501 80.499s-26.5 68.833 -26.5 109.5c0 37.333 9 70.833 27 100.5s41.833 53.167 71.5 70.5s61.834 26 96.501 26c35.333 0 67.833 -8.83301 97.5 -26.5
s53.334 -41.334 71.001 -71.001s26.5 -62.834 26.5 -99.501v-82c0 -2.66699 -1.33301 -4 -4 -4h-112c-2.66699 0 -4 1.33301 -4 4l-1 82c0 23.333 -7.33301 42.333 -22 57s-32 22 -52 22c-20.667 0 -38.334 -7.83301 -53.001 -23.5s-22 -34.167 -22 -55.5
c0 -22 4.66699 -40.333 14 -55s26.333 -28.667 51 -42c3.33301 -2 9.83301 -5.5 19.5 -10.5l31.5 -17l30.5 -16.5c9 -4.66699 14.5 -7.66699 16.5 -9c33.333 -18.667 59.666 -41.5 78.999 -68.5s29 -60.167 29 -99.5c0 -38 -8.83301 -72.167 -26.5 -102.5
s-41.334 -54.333 -71.001 -72s-62.5 -26.5 -98.5 -26.5z" />
    <glyph glyph-name="t" unicode="t" horiz-adv-x="400" 
d="M140 0c-2.66699 0 -4 1.66699 -4 5v570h-130c-3.33301 0 -5 1.66699 -5 5l1 112c0 2.66699 1.33301 4 4 4h380c3.33301 0 5 -1.33301 5 -4v-112c0 -3.33301 -1.33301 -5 -4 -5h-131l1 -570c0 -3.33301 -1.33301 -5 -4 -5h-113z" />
    <glyph glyph-name="u" unicode="u" horiz-adv-x="460" 
d="M224 -10c-35.333 0 -67.9971 9.16602 -97.9971 27.499s-53.833 42.833 -71.5 73.5s-26.5 64.334 -26.5 101.001l2 500c0 2.66699 1.33301 4 4 4h112c2.66699 0 4 -1.33301 4 -4v-500c0 -22.667 7.16699 -41.834 21.5 -57.501s31.833 -23.5 52.5 -23.5
c21.333 0 39.166 7.83301 53.499 23.5s21.5 34.834 21.5 57.501v500c0 2.66699 1.33301 4 4 4h112c2.66699 0 4 -1.33301 4 -4l2 -500c0 -37.333 -8.83301 -71.333 -26.5 -102s-41.334 -55 -71.001 -73s-62.834 -27 -99.501 -27z" />
    <glyph glyph-name="v" unicode="v" horiz-adv-x="433" 
d="M152 0c-2.66699 0 -4.33203 1.66699 -4.99902 5l-138 687c-0.666992 2.66699 0.666016 4 3.99902 4h113c2.66699 0 4.33398 -1.33301 5.00098 -4l82 -458l80 458c0.666992 2.66699 2.33398 4 5.00098 4h112c3.33301 0 4.66602 -1.33301 3.99902 -4l-136 -687
c-0.666992 -3.33301 -2.33398 -5 -5.00098 -5h-121z" />
    <glyph glyph-name="w" unicode="w" horiz-adv-x="629" 
d="M132 0c-2.66699 0 -4.33398 1.66699 -5.00098 5l-118 687c-0.666992 2.66699 0.333008 4 3 4h112c2.66699 0 4.33398 -1.33301 5.00098 -4l64 -452l66 452c0.666992 2.66699 2.66699 4 6 4h90c2.66699 0 4.33398 -1.33301 5.00098 -4l65 -452l65 452
c0.666992 2.66699 2.33398 4 5.00098 4h111c3.33301 0 4.66602 -1.33301 3.99902 -4l-119 -687c-0.666992 -1.33301 -1.66699 -2.5 -3 -3.5l-2 -1.5h-121c-2 0 -3.66699 1.66699 -5 5l-51 359l-51 -359c-0.666992 -3.33301 -2.33398 -5 -5.00098 -5h-121z" />
    <glyph glyph-name="x" unicode="x" horiz-adv-x="404" 
d="M9 0c-2.66699 0 -3.66699 1.66699 -3 5l114 357l-112 330c-0.666992 2.66699 0.333008 4 3 4h112c3.33301 0 5.33301 -1.33301 6 -4l67 -238l68 238c0.666992 2.66699 2.66699 4 6 4h111c2.66699 0 3.66699 -1.33301 3 -4l-112 -329l113 -358
c1.33301 -3.33301 0.333008 -5 -3 -5h-112c-2.66699 0 -4.66699 1.66699 -6 5l-68 258l-69 -258c-0.666992 -3.33301 -2.66699 -5 -6 -5h-112z" />
    <glyph glyph-name="y" unicode="y" horiz-adv-x="401" 
d="M133 0c-2 0 -3.00098 1.33301 -3.00098 4l1 284l-134 404c-0.666992 2.66699 0.333008 4 3 4h111c3.33301 0 5.33301 -1.33301 6 -4l74 -269l75 269c0.666992 2.66699 2.33398 4 5.00098 4h112c2.66699 0 3.66699 -1.33301 3 -4l-135 -400l1 -288
c0 -2.66699 -1.33301 -4 -4 -4h-115z" />
    <glyph glyph-name="z" unicode="z" horiz-adv-x="414" 
d="M13 0c-3.33301 0 -5 1.66699 -5 5l1 109l245 468h-232c-2.66699 0 -4 1.33301 -4 4v105c0 3.33301 1.33301 5 4 5h362c3.33301 0 5 -1.66699 5 -5v-108l-244 -466h241c2.66699 0 4 -1.66699 4 -5l1 -107c0 -3.33301 -1.66699 -5 -5 -5h-373z" />
    <glyph glyph-name="braceleft" unicode="{" horiz-adv-x="406" 
d="M113 0c-2.66699 0 -4 1.33301 -4 4v293h-97c-3.33301 0 -5 1.33301 -5 4v109c0 2.66699 1.66699 4 5 4h97v278c0 2.66699 1.33301 4 4 4h250c3.33301 0 5 -1.33301 5 -4v-109c0 -2.66699 -1.66699 -4 -5 -4h-138v-462h138c3.33301 0 5 -1.33301 5 -4v-109
c0 -2.66699 -1.66699 -4 -5 -4h-250z" />
    <glyph glyph-name="bar" unicode="|" horiz-adv-x="198" 
d="M44 0c-2.66699 0 -4 1.33301 -4 4v688c0 2.66699 1.33301 4 4 4h108c2.66699 0 4 -1.33301 4 -4v-688c0 -2.66699 -0.666992 -4 -2 -4h-110z" />
    <glyph glyph-name="braceright" unicode="}" horiz-adv-x="406" 
d="M43 0c-3.33301 0 -5 1.33301 -5 4v109c0 2.66699 1.66699 4 5 4h138v462h-138c-3.33301 0 -5 1.33301 -5 4v109c0 2.66699 1.66699 4 5 4h250c2.66699 0 4 -1.33301 4 -4v-278h97c3.33301 0 5 -1.33301 5 -4v-109c0 -2.66699 -1.66699 -4 -5 -4h-97v-293
c0 -2.66699 -1.33301 -4 -4 -4h-250z" />
    <glyph glyph-name="asciitilde" unicode="~" horiz-adv-x="475" 
d="M305 305c-18.667 0 -35.833 3.50098 -51.5 10.501s-29.834 14 -42.501 21s-24.667 10.5 -36 10.5c-12.667 0 -22.334 -3.16699 -29.001 -9.5s-10 -14.166 -10 -23.499c0 -2.66699 -1.33301 -4 -4 -4h-90c-2.66699 0 -4 1.33301 -4 4c0 17.333 5.16699 35.166 15.5 53.499
s25 33.833 44 46.5s41.833 19 68.5 19c19.333 0 36.333 -3.33301 51 -10s27.834 -13.167 39.501 -19.5s21.834 -9.5 30.501 -9.5c9.33301 0 17.5 3 24.5 9s10.5 15.333 10.5 28c0 2.66699 1.33301 4 4 4h90c2.66699 0 4 -1.33301 4 -4c0 -27.333 -5.5 -50.333 -16.5 -69
s-25.333 -32.834 -43 -42.501s-36.167 -14.5 -55.5 -14.5z" />
    <glyph glyph-name="uni00A0" unicode="&#xa0;" horiz-adv-x="148" 
 />
    <glyph glyph-name="exclamdown" unicode="&#xa1;" horiz-adv-x="202" 
d="M44 578c-2.66699 0 -4 1.33301 -4 4v109c0 3.33301 1.33301 5 4 5h112c2.66699 0 4 -1.66699 4 -5v-109c0 -2.66699 -1.33301 -4 -4 -4h-112zM45 0c-3.33301 0 -5.00195 1.66699 -5.00195 5l1 272l20 230c0.666992 3.33301 2.33398 5 5.00098 5h68
c2.66699 0 4.33398 -1.66699 5.00098 -5l21 -230v-272c0 -3.33301 -1.33301 -5 -4 -5h-111z" />
    <glyph glyph-name="cent" unicode="&#xa2;" horiz-adv-x="388" 
d="M148 0c-2.66699 0 -4.00098 1.33203 -4.00098 3.99902v58c-33.333 9.33301 -61 28.5 -83 57.5s-33 62.833 -33 101.5v257c0 36.667 10.667 69.5 32 98.5s48.666 48.5 81.999 58.5v57c0 2.66699 1.33301 4 4 4h87c3.33301 0 5 -1.33301 5 -4v-59c32 -11.333 58 -31 78 -59
s30 -60 30 -96v-37c0 -2.66699 -1.33301 -4 -4 -4h-91c-2 0 -3 1.33301 -3 4v37c0 18 -5.83301 33.5 -17.5 46.5s-26.167 19.5 -43.5 19.5c-19.333 0 -34.166 -6.66699 -44.499 -20s-15.5 -28.666 -15.5 -45.999v-257c0 -19.333 5.83301 -35.333 17.5 -48
s25.834 -19 42.501 -19c17.333 0 31.833 6.83301 43.5 20.5s17.5 29.167 17.5 46.5v38c0 2 1 3 3 3h92c2 0 3 -1 3 -3v-38c0 -36.667 -9.83301 -69 -29.5 -97s-45.167 -47.667 -76.5 -59v-61c0 -2.66699 -1.66699 -4 -5 -4h-87z" />
    <glyph glyph-name="sterling" unicode="&#xa3;" horiz-adv-x="484" 
d="M51 0c-4 0 -6.00195 1.99609 -6.00195 5.99609v112c28.667 36.667 47.5 68.834 56.5 96.501s12.5 52.834 10.5 75.501h-86c-2.66699 0 -4 1.66699 -4 5v92c0 2.66699 1.66699 4 5 4h52c-6.66699 16.667 -12.667 34 -18 52s-8 37.667 -8 59
c0 36.667 8.83301 69.667 26.5 99s41.167 52.5 70.5 69.5s61.333 25.5 96 25.5s66 -8.5 94 -25.5s50.5 -39.833 67.5 -68.5s25.5 -60.667 25.5 -96c0 -2.66699 -1.33301 -4 -4 -4h-102c-2.66699 0 -4 1.33301 -4 4c0 21.333 -7.16699 40.5 -21.5 57.5
s-32.833 25.5 -55.5 25.5s-41.5 -8.33301 -56.5 -25s-22.5 -36.667 -22.5 -60c0 -21.333 3 -41.166 9 -59.499s12.333 -36.166 19 -53.499h189c2.66699 0 4 -1.33301 4 -4v-92c0 -3.33301 -1.33301 -5 -4 -5h-157c2.66699 -23.333 0.333984 -48.833 -6.99902 -76.5
s-23.666 -59.5 -48.999 -95.5h263c2.66699 0 4 -1.66699 4 -5v-109c0 -2.66699 -1.33301 -4 -4 -4h-383z" />
    <glyph glyph-name="yen" unicode="&#xa5;" horiz-adv-x="392" 
d="M30 114c-2.66699 0 -4.00098 1.33301 -4.00098 4v92c0 3.33301 1.66699 5 5 5h100v66h-102c-2.66699 0 -4 1.66699 -4 5v92c0 2.66699 1.66699 4 5 4h70l-103 310c-0.666992 2.66699 0.333008 4 3 4h111c3.33301 0 5.33301 -1.33301 6 -4l74 -269l75 269
c0.666992 2.66699 2.33398 4 5.00098 4h112c2.66699 0 3.66699 -1.33301 3 -4l-105 -310h74c2.66699 0 4 -1.33301 4 -4v-92c0 -3.33301 -1.33301 -5 -4 -5h-104v-66h105c2.66699 0 4 -1.66699 4 -5v-92c0 -2.66699 -1.33301 -4 -4 -4h-104v-110
c0 -2.66699 -1.33301 -4 -4 -4h-115c-2 -0 -3 1.33301 -3 4v110h-100z" />
    <glyph glyph-name="brokenbar" unicode="&#xa6;" horiz-adv-x="198" 
d="M40 451v241c0 2.66699 1.33301 4 4 4h108c2.66699 0 4 -1.33301 4 -4v-241h-116zM44 0c-2.66699 0 -4 1.33301 -4 4v264h116v-264c0 -2.66699 -0.666992 -4 -2 -4h-110z" />
    <glyph glyph-name="section" unicode="&#xa7;" horiz-adv-x="405" 
d="M193 -84c-31.333 0 -60.0029 7.99902 -86.0029 23.999s-46.5 37.167 -61.5 63.5s-22.5 55.5 -22.5 87.5v40c0 2.66699 1.33301 4 4 4h97c2.66699 0 4 -1.33301 4 -4v-40c0 -18.667 6.33301 -35 19 -49s28 -21 46 -21s33.333 7 46 21s19 30.333 19 49
c0 11.333 -3.16699 21.5 -9.5 30.5s-17.166 17.5 -32.499 25.5l-43.5 24l-55.5 31c-32 18.667 -55.667 42 -71 70s-23 60 -23 96c0 23.333 4.33301 45.166 13 65.499s20.334 38.166 35.001 53.499c-25.333 32 -38 71.667 -38 119c0 32.667 7.83301 61.834 23.5 87.501
s36.334 46 62.001 61s53.5 22.5 83.5 22.5c30.667 0 58.834 -7.5 84.501 -22.5s46.334 -35.5 62.001 -61.5s23.5 -55 23.5 -87v-71c0 -2.66699 -1.33301 -4 -4 -4h-97c-2.66699 0 -4 1.33301 -4 4l-1 71c0 20.667 -6.33301 37.334 -19 50.001s-27.667 19 -45 19
c-18 0 -33.333 -6.83301 -46 -20.5s-19 -29.834 -19 -48.501s4 -34.667 12 -48s22.667 -25.333 44 -36c3.33301 -1.33301 9.16602 -4.33301 17.499 -9l27.5 -15l26.5 -14c7.66699 -4 12.5 -6.66699 14.5 -8c29.333 -16.667 52.166 -36.667 68.499 -60s24.5 -52 24.5 -86
c0 -26 -4.83301 -50 -14.5 -72s-22.834 -41 -39.501 -57c14.667 -14 25.834 -30 33.501 -48s11.5 -38.667 11.5 -62c0 -33.333 -7.66699 -63.166 -23 -89.499s-35.833 -47.166 -61.5 -62.499s-54.167 -23 -85.5 -23zM226.997 260.999c13.333 6 23.333 15.1689 30 27.502
s10 26.166 10 41.499c0 21.333 -13.667 39.666 -41 54.999l-70 39c-18.667 -13.333 -28 -32 -28 -56c0 -19.333 4 -35.5 12 -48.5s22.667 -25.167 44 -36.5z" />
    <glyph glyph-name="dieresis" unicode="&#xa8;" horiz-adv-x="600" 
d="M49 766c-2.66699 0 -4 1.33301 -4 4v113c0 2.66699 1.33301 4 4 4h113c2.66699 0 4 -1.33301 4 -4v-113c0 -2.66699 -1.33301 -4 -4 -4h-113zM-159 766c-2.66699 0 -4 1.33301 -4 4v113c0 2.66699 1.33301 4 4 4h113c2.66699 0 4 -1.33301 4 -4v-113
c0 -2.66699 -1.33301 -4 -4 -4h-113z" />
    <glyph glyph-name="copyright" unicode="&#xa9;" horiz-adv-x="659" 
d="M324 -10c-84.667 0 -150.334 21.833 -197.001 65.5s-70 102.167 -70 175.5v232c0 48 10.5 90.167 31.5 126.5s51.333 64.833 91 85.5s87.834 31 144.501 31s104.667 -10.333 144 -31s69.5 -49.167 90.5 -85.5s31.5 -78.5 31.5 -126.5v-232
c0 -73.333 -23.167 -131.833 -69.5 -175.5s-111.833 -65.5 -196.5 -65.5zM324 72c56 0 100.167 14.5 132.5 43.5s48.5 68.5 48.5 118.5v226c0 50 -16.167 89.833 -48.5 119.5s-76.5 44.5 -132.5 44.5c-56.667 0 -101.167 -14.833 -133.5 -44.5s-48.5 -69.5 -48.5 -119.5
v-226c0 -50 16.167 -89.5 48.5 -118.5s76.833 -43.5 133.5 -43.5zM320 132c-33.333 0 -61.334 11.833 -84.001 35.5s-34 52.5 -34 86.5l1 185c0 33.333 11.167 61.666 33.5 84.999s50.166 35 83.499 35c32.667 0 60.167 -11.667 82.5 -35s33.5 -51.666 33.5 -84.999v-27
l-0.5 -1c-0.333008 -0.666992 -1.16602 -1 -2.49902 -1h-66c-0.666992 0 -1.16699 0.333008 -1.5 1l-0.5 1v27c0 14 -4.5 25.667 -13.5 35s-19.5 14 -31.5 14c-14 0 -25 -4.83301 -33 -14.5s-12 -21.167 -12 -34.5v-185c0 -14.667 4.33301 -26.667 13 -36
s19.334 -14 32.001 -14c12 0 22.5 5.16699 31.5 15.5s13.5 21.833 13.5 34.5v27c0 1.33301 0.666992 2 2 2h67c2 0 3 -0.666992 3 -2v-27c0 -22.667 -5.16699 -43.167 -15.5 -61.5s-24.333 -33 -42 -44s-37.5 -16.5 -59.5 -16.5z" />
    <glyph glyph-name="ordfeminine" unicode="&#xaa;" horiz-adv-x="427" 
d="M6 227l124 466c1.33301 2 3 3 5 3h145c2.66699 0 4.33398 -1 5.00098 -3l119 -466c0.666992 -2.66699 -0.666016 -4 -3.99902 -4h-111c-2.66699 0 -4.33398 1.33301 -5.00098 4l-11 49h-136l-11 -49c-0.666992 -2.66699 -2.33398 -4 -5.00098 -4h-111
c-2.66699 0 -4 1.33301 -4 4zM157 349h96l-41 191l-6 25l-4 -25z" />
    <glyph glyph-name="guillemotleft" unicode="&#xab;" horiz-adv-x="607" 
d="M489 104l-207 216.001c-4 3.33301 -6.33301 8.66602 -7 15.999s1.66602 13.666 6.99902 18.999l212 217c2.66699 2.66699 5 2.33398 7 -0.999023l66 -75c2 -3.33301 2 -6 0 -8l-161 -149l159 -155c2.66699 -2 2.33398 -4.66699 -0.999023 -8l-68 -71
c-2.66699 -2.66699 -5 -3 -7 -1zM239 104.001l-207 216.001c-4 3.33301 -6.33301 8.66602 -7 15.999s1.66602 13.666 6.99902 18.999l212 217c2.66699 2.66699 5 2.33398 7 -0.999023l66 -75c2 -3.33301 2 -6 0 -8l-161 -149l159 -155
c2.66699 -2 2.33398 -4.66699 -0.999023 -8l-68 -71c-2.66699 -2.66699 -5 -3 -7 -1z" />
    <glyph glyph-name="logicalnot" unicode="&#xac;" horiz-adv-x="442" 
d="M339 206c-2.66699 0 -4 1.33301 -4 4v144h-306c-4 0 -6 1.66699 -6 5v79c0 4 2 6 6 6h384c3.33301 0 5 -2 5 -6v-228c0 -2.66699 -1.33301 -4 -4 -4h-75z" />
    <glyph glyph-name="uni00AD" unicode="&#xad;" horiz-adv-x="303" 
d="M48 289c-3.33301 0 -5 1.33301 -5 4v109c0 2.66699 1.66699 4 5 4h193c3.33301 0 5 -1.33301 5 -4v-109c0 -2.66699 -1.66699 -4 -5 -4h-193z" />
    <glyph glyph-name="registered" unicode="&#xae;" horiz-adv-x="395" 
d="M188 268c-46 0 -81.833 13.333 -107.5 40s-38.5 62.667 -38.5 108v141c0 44 13.667 80 41 108s62.333 42 105 42c45.333 0 81.166 -14 107.499 -42s39.5 -64 39.5 -108v-141c0 -45.333 -14.167 -81.333 -42.5 -108s-63.166 -40 -104.499 -40zM188 319
c32.667 0 57.167 8.83301 73.5 26.5s24.5 41.834 24.5 72.501v138c0 30.667 -8.66699 55.5 -26 74.5s-41.333 28.5 -72 28.5c-33.333 0 -58 -9.5 -74 -28.5s-24 -43.833 -24 -74.5v-138c0 -30.667 8.16699 -54.834 24.5 -72.501s40.833 -26.5 73.5 -26.5zM122 382
c-0.666992 0 -1.16895 0.166016 -1.50195 0.499023l-0.5 0.5l1 218c0 0.666992 0.333008 1 1 1h70c17.333 0 32.5 -6 45.5 -18s19.5 -26.667 19.5 -44c0 -11.333 -2.66699 -21.166 -8 -29.499s-9.66602 -13.833 -12.999 -16.5c11.333 -14.667 17 -30 17 -46v-65
c0 -0.666992 -0.333008 -1 -1 -1h-37c-1.33301 0 -2 0.333008 -2 1v65c0 8 -2.66699 14.833 -8 20.5s-11.666 8.5 -18.999 8.5h-25l-1 -94c0 -0.666992 -0.333008 -1 -1 -1h-37zM160.998 513.999l31 -0.000976562c6.66699 0 12.5 2.66699 17.5 8s7.5 11.333 7.5 18
s-2.33301 12.334 -7 17.001s-10.667 7 -18 7h-31v-50z" />
    <glyph glyph-name="macron" unicode="&#xaf;" horiz-adv-x="600" 
d="M-150 771c-2.66699 0 -4 1.33301 -4 4v81c0 2.66699 1.33301 4 4 4h299c2.66699 0 4 -1.33301 4 -4v-81c0 -2.66699 -1.33301 -4 -4 -4h-299z" />
    <glyph glyph-name="degree" unicode="&#xb0;" horiz-adv-x="367" 
d="M170 461c-21.333 0 -41.3311 5.66797 -59.998 17.001s-33.667 26.5 -45 45.5s-17 39.167 -17 60.5c0 23.333 5.66699 44.333 17 63s26.333 33.667 45 45s38.667 17 60 17s41.166 -5.66699 59.499 -17s33.166 -26.333 44.499 -45s17 -39.667 17 -63
c0 -22.667 -5.83301 -43.334 -17.5 -62.001s-26.667 -33.5 -45 -44.5s-37.833 -16.5 -58.5 -16.5zM169.002 523.001c15.333 0 28.833 6 40.5 18s17.5 26.333 17.5 43c0 17.333 -5.83301 32.166 -17.5 44.499s-25.167 18.5 -40.5 18.5c-16.667 0 -30.667 -6.16699 -42 -18.5
s-17 -27.166 -17 -44.499c0 -16 5.66699 -30.167 17 -42.5s25.333 -18.5 42 -18.5z" />
    <glyph glyph-name="plusminus" unicode="&#xb1;" horiz-adv-x="401" 
d="M160 248c-2.66699 0 -4 1.33301 -4 4v141h-127c-4 0 -6 1.33301 -6 4v71c0 0.666992 0.5 1.66699 1.5 3s2.5 2 4.5 2h127v143c0 1.33301 1.33301 2 4 2h75c2.66699 0 4 -0.666992 4 -2v-143h134c2.66699 0 4 -1.66699 4 -5v-71c0 -0.666992 -0.666992 -1.5 -2 -2.5
l-2 -1.5h-134v-141c0 -2.66699 -1.33301 -4 -4 -4h-75zM29 92c-4 0 -6 1.33301 -6 4v71c0 0.666992 0.5 1.66699 1.5 3s2.5 2 4.5 2h344c2.66699 0 4 -1.66699 4 -5v-71c0 -0.666992 -0.666992 -1.5 -2 -2.5l-2 -1.5h-344z" />
    <glyph glyph-name="uni00B2" unicode="&#xb2;" horiz-adv-x="284" 
d="M18 446c-2 0 -3 1.00195 -3 3.00195v67c0 1.33301 0.666992 2 2 2l151 184c2.66699 3.33301 5.5 8.16602 8.5 14.499s4.5 12.833 4.5 19.5s-3.5 14.5 -10.5 23.5s-18.167 13.5 -33.5 13.5c-12.667 0 -23.5 -4.16699 -32.5 -12.5s-13.5 -17.5 -13.5 -27.5v-28
c0 -2 -1.33301 -3 -4 -3h-73c-1.33301 0 -2 1 -2 3v28c0 20.667 5.66699 39.667 17 57s26.5 31.333 45.5 42s39.833 16 62.5 16c23.333 0 44.333 -5.33301 63 -16s33.5 -24.834 44.5 -42.501s16.5 -36.5 16.5 -56.5c0 -12.667 -2.83301 -26.167 -8.5 -40.5
s-13.167 -26.833 -22.5 -37.5l-110 -132h136c1.33301 0 2 -0.666992 2 -2v-72c0 -2 -0.666992 -3 -2 -3h-238z" />
    <glyph glyph-name="uni00B3" unicode="&#xb3;" horiz-adv-x="287" 
d="M135 433c-23.333 0 -43.999 5.66602 -61.999 16.999s-31.833 25.833 -41.5 43.5s-14.5 35.167 -14.5 52.5v31l0.5 0.5c0.333008 0.333008 0.833008 0.5 1.5 0.5h78l1 -1v-29c0 -10.667 3.66699 -19.834 11 -27.501s16 -11.5 26 -11.5
c9.33301 0 18.166 3.83301 26.499 11.5s12.5 18.834 12.5 33.501c0 22 -3.66699 37.5 -11 46.5s-15.333 13.5 -24 13.5h-23c-2.66699 0 -4 0.666992 -4 2v64c0 1.33301 1.33301 2 4 2h23c8.66699 0 16.667 4.83301 24 14.5s11 20.5 11 32.5
c0 14.667 -4.16699 25.667 -12.5 33s-17.166 11 -26.499 11c-10 0 -18.667 -3.83301 -26 -11.5s-11 -16.5 -11 -26.5v-29l-1 -1h-78c-0.666992 0 -1.16699 0.166992 -1.5 0.5l-0.5 0.5v31c0 18 4.83301 35.667 14.5 53s23.5 31.666 41.5 42.999s38.667 17 62 17
c33.333 0 61.166 -11.5 83.499 -34.5s33.5 -51.167 33.5 -84.5c0 -15.333 -3.33301 -31.166 -10 -47.499s-16.667 -28.166 -30 -35.499c13.333 -8 23.833 -19.5 31.5 -34.5s11.5 -35.5 11.5 -61.5c0 -22 -5.5 -42 -16.5 -60s-25.5 -32.333 -43.5 -43s-38 -16 -60 -16z" />
    <glyph glyph-name="acute" unicode="&#xb4;" horiz-adv-x="285" 
d="M44 749c-3.33301 0 -4.66797 1.33301 -4.00098 4l80 173c0.666992 2.66699 2.33398 4 5.00098 4h114c4 0 5.33301 -1.33301 4 -4l-93 -173c-1.33301 -2.66699 -3.33301 -4 -6 -4h-100z" />
    <glyph glyph-name="paragraph" unicode="&#xb6;" horiz-adv-x="495" 
d="M224 0c-4 0 -6.00195 0.999023 -6.00195 2.99902v294h-55c-28.667 0 -53.667 8.66699 -75 26s-38.166 41 -50.499 71s-18.5 63.333 -18.5 100c0 34.667 6 67.334 18 98.001s28.833 55.667 50.5 75s46.834 29 75.501 29h140c2.66699 0 4 -1 4 -3v-690
c0 -2 -1.33301 -3 -4 -3h-79zM363.998 -0.000976562c-2.66699 0 -4 1.33301 -4 4v688c0 2.66699 1.33301 4 4 4h81c2.66699 0 4 -1.33301 4 -4v-688c0 -2.66699 -1.33301 -4 -4 -4h-81z" />
    <glyph glyph-name="periodcentered" unicode="&#xb7;" horiz-adv-x="203" 
d="M44 297c-2.66699 0 -4 1.33301 -4 4v113c0 2.66699 1.33301 4 4 4h113c2.66699 0 4 -1.33301 4 -4v-113c0 -2.66699 -1.33301 -4 -4 -4h-113z" />
    <glyph glyph-name="cedilla" unicode="&#xb8;" horiz-adv-x="600" 
d="M-106 -99c-4 0 -5.33398 1.33301 -4.00098 4l67 110c1.33301 2.66699 3.33301 4 6 4h83c3.33301 0 4.66602 -1.33301 3.99902 -4l-32 -57c34.667 -5.33301 62.334 -18 83.001 -38s31 -44 31 -72c0 -26.667 -7.16699 -51 -21.5 -73s-33.5 -39.333 -57.5 -52
s-51.333 -19 -82 -19c-18 0 -36.167 1.5 -54.5 4.5s-32.166 7.16699 -41.499 12.5c-1.33301 1.33301 -2 2.33301 -2 3l-3 88c0 4 2 5.33301 6 4c20 -6.66699 37.833 -11.167 53.5 -13.5s28.834 -3.5 39.501 -3.5c21.333 0 37.666 4 48.999 12s17 18.667 17 32
c0 17.333 -10.333 31.333 -31 42s-53.667 16 -99 16h-11z" />
    <glyph glyph-name="uni00B9" unicode="&#xb9;" horiz-adv-x="192" 
d="M53 444c-2 0 -3 1 -3 3l1 392c0 1.33301 0.666992 2 2 2h78c1.33301 0 2 -0.666992 2 -2l1 -392c0 -2 -0.666992 -3 -2 -3h-79z" />
    <glyph glyph-name="ordmasculine" unicode="&#xba;" horiz-adv-x="457" 
d="M225 210c-36 0 -68.832 9.16699 -98.499 27.5s-53.5 42.666 -71.5 72.999s-27 63.833 -27 100.5l1 97c0 36.667 8.83301 70 26.5 100s41.5 54 71.5 72s62.667 27 98 27c36 0 68.667 -9 98 -27s52.833 -42 70.5 -72s26.5 -63.333 26.5 -100l1 -97
c0 -36.667 -8.83301 -70.167 -26.5 -100.5s-41.334 -54.666 -71.001 -72.999s-62.5 -27.5 -98.5 -27.5zM225.001 331c20 0 37.5 8.16699 52.5 24.5s22.5 34.833 22.5 55.5l-1 97c0 22 -7 40.667 -21 56s-31.667 23 -53 23c-20.667 0 -38.334 -7.5 -53.001 -22.5
s-22 -33.833 -22 -56.5v-97c0 -22 7.33301 -40.833 22 -56.5s32.334 -23.5 53.001 -23.5z" />
    <glyph glyph-name="guillemotright" unicode="&#xbb;" horiz-adv-x="607" 
d="M363 104c-2.66699 -2.66699 -5 -2.33496 -7 0.998047l-66 75c-2 3.33301 -2 6 0 8l161 149l-159 155c-2.66699 2 -2.33398 4.66699 0.999023 8l68 71c2.66699 2.66699 5 3 7 1l207 -216c4 -3.33301 6.33301 -8.66602 7 -15.999s-1.66602 -13.666 -6.99902 -18.999z
M113 103.999c-2.66699 -2.66699 -5 -2.33496 -7 0.998047l-66 75c-2 3.33301 -2 6 0 8l161 149l-159 155c-2.66699 2 -2.33398 4.66699 0.999023 8l68 71c2.66699 2.66699 5 3 7 1l207 -216c4 -3.33301 6.33301 -8.66602 7 -15.999s-1.66602 -13.666 -6.99902 -18.999z" />
    <glyph glyph-name="onequarter" unicode="&#xbc;" horiz-adv-x="651" 
d="M73 -10c-2 0 -3.33301 0.833008 -4 2.5s-0.666992 3.16699 0 4.5l379 708c0 1.33301 1 2 3 2h83c2 0 3.5 -0.833008 4.5 -2.5s0.833008 -3.16699 -0.5 -4.5l-381 -708c0 -1.33301 -1 -2 -3 -2h-81zM83 316c-2 0 -3 1 -3 3l1 386c0 1.33301 0.666992 2 2 2h78
c1.33301 0 2 -0.666992 2 -2l1 -386c0 -2 -0.666992 -3 -2 -3h-79zM489 0c-2 0 -3 1 -3 3v63h-139c-1.33301 0 -2 0.666992 -2 2v66l140 259c0.666992 1.33301 2 2 4 2h76c1.33301 0 2 -0.666992 2 -2v-257h45c2.66699 0 4 -0.666992 4 -2v-66c0 -1.33301 -1.33301 -2 -4 -2
h-45v-63c0 -2 -0.666992 -3 -2 -3h-76zM419 136h67v127z" />
    <glyph glyph-name="onehalf" unicode="&#xbd;" horiz-adv-x="712" 
d="M73 -10c-2 0 -3.33301 0.833008 -4 2.5s-0.666992 3.16699 0 4.5l379 708c0 1.33301 1 2 3 2h83c2 0 3.5 -0.833008 4.5 -2.5s0.833008 -3.16699 -0.5 -4.5l-381 -708c0 -1.33301 -1 -2 -3 -2h-81zM78 299c-2 0 -3 1 -3 3l1 392c0 1.33301 0.666992 2 2 2h78
c1.33301 0 2 -0.666992 2 -2l1 -392c0 -2 -0.666992 -3 -2 -3h-79zM410 2c-2 0 -3 1.00098 -3 3.00098v67c0 1.33301 0.666992 2 2 2l151 184c2.66699 3.33301 5.5 8.16602 8.5 14.499s4.5 12.833 4.5 19.5s-3.5 14.5 -10.5 23.5s-18.167 13.5 -33.5 13.5
c-12.667 0 -23.5 -4.16699 -32.5 -12.5s-13.5 -17.5 -13.5 -27.5v-28c0 -2 -1.33301 -3 -4 -3h-73c-1.33301 0 -2 1 -2 3v28c0 20.667 5.66699 39.667 17 57s26.5 31.333 45.5 42s39.833 16 62.5 16c23.333 0 44.333 -5.5 63 -16.5s33.5 -25.167 44.5 -42.5
s16.5 -36 16.5 -56c0 -12.667 -2.83301 -26.167 -8.5 -40.5s-13.167 -26.833 -22.5 -37.5l-110 -132h136c1.33301 0 2 -0.666992 2 -2v-72c0 -2 -0.666992 -3 -2 -3h-238z" />
    <glyph glyph-name="threequarters" unicode="&#xbe;" horiz-adv-x="722" 
d="M151 293c-23.333 0 -43.999 5.66602 -61.999 16.999s-31.833 25.833 -41.5 43.5s-14.5 35.167 -14.5 52.5v31l0.5 0.5c0.333008 0.333008 0.833008 0.5 1.5 0.5h78l1 -1v-29c0 -10.667 3.66699 -19.834 11 -27.501s16 -11.5 26 -11.5
c9.33301 0 18.166 3.83301 26.499 11.5s12.5 18.834 12.5 33.501c0 22 -3.66699 37.5 -11 46.5s-15.333 13.5 -24 13.5h-23c-2.66699 0 -4 0.666992 -4 2v64c0 1.33301 1.33301 2 4 2h23c8.66699 0 16.667 4.83301 24 14.5s11 20.5 11 32.5
c0 14.667 -4.16699 25.667 -12.5 33s-17.166 11 -26.499 11c-10 0 -18.667 -3.83301 -26 -11.5s-11 -16.5 -11 -26.5v-29l-1 -1h-78c-0.666992 0 -1.16699 0.166992 -1.5 0.5l-0.5 0.5v31c0 18 4.83301 35.667 14.5 53s23.5 31.666 41.5 42.999s38.667 17 62 17
c33.333 0 61.166 -11.5 83.499 -34.5s33.5 -51.167 33.5 -84.5c0 -15.333 -3.33301 -31.166 -10 -47.499s-16.667 -28.166 -30 -35.499c13.333 -8 23.833 -19.5 31.5 -34.5s11.5 -35.5 11.5 -61.5c0 -22 -5.5 -42 -16.5 -60s-25.5 -32.333 -43.5 -43s-38 -16 -60 -16z
M134.001 -10.001c-2 0 -3.33301 0.833008 -4 2.5s-0.666992 3.16699 0 4.5l379 708c0 1.33301 1 2 3 2h86c2 0 3.5 -0.833008 4.5 -2.5s0.833008 -3.16699 -0.5 -4.5l-381 -708c0 -1.33301 -1 -2 -3 -2h-84zM565.001 -0.000976562c-2 0 -3 1 -3 3v63h-139
c-1.33301 0 -2 0.666992 -2 2v66l140 259c0.666992 1.33301 2 2 4 2h76c1.33301 0 2 -0.666992 2 -2v-257h45c2.66699 0 4 -0.666992 4 -2v-66c0 -1.33301 -1.33301 -2 -4 -2h-45v-63c0 -2 -0.666992 -3 -2 -3h-76zM495.001 135.999h67v127z" />
    <glyph glyph-name="questiondown" unicode="&#xbf;" horiz-adv-x="435" 
d="M154 577c-3.33301 0 -5 1.33301 -5 4v111c0 3.33301 1.66699 5 5 5h111c3.33301 0 5 -1.66699 5 -5v-111c0 -2.66699 -1.66699 -4 -5 -4h-111zM209 -10c-36 0 -68.666 8.99609 -97.999 26.9961s-52.833 42.333 -70.5 73s-26.5 64.667 -26.5 102
c0 22.667 2.33301 42.334 7 59.001s13.5 34.334 26.5 53.001s31.5 41.334 55.5 68.001c17.333 17.333 29.333 32.5 36 45.5s10 27.5 10 43.5v48c0 2.66699 1.66699 4 5 4h111c3.33301 0 5 -1.33301 5 -4v-54c0 -26.667 -6.16699 -53.5 -18.5 -80.5
s-29.166 -51.167 -50.499 -72.5c-19.333 -19.333 -33.833 -34.666 -43.5 -45.999s-15.834 -21.5 -18.501 -30.5s-4 -20.167 -4 -33.5c0 -23.333 7.16699 -42.666 21.5 -57.999s31.833 -23 52.5 -23c21.333 0 39.166 7.66699 53.499 23s21.5 34.666 21.5 57.999v73
c0 2.66699 1.33301 4 4 4h113c2.66699 0 4 -1.33301 4 -4v-73c0 -37.333 -8.83301 -71.333 -26.5 -102s-41.167 -55 -70.5 -73s-62.333 -27 -99 -27z" />
    <glyph glyph-name="Agrave" unicode="&#xc0;" horiz-adv-x="427" 
d="M6 5l123.999 687c0.666992 2.66699 2.33398 4 5.00098 4h145c2.66699 0 4.33398 -1.33301 5.00098 -4l119 -687c0.666992 -3.33301 -0.666016 -5 -3.99902 -5h-111c-2.66699 0 -4.33398 1.66699 -5.00098 5l-11 73h-136l-11 -73
c-0.666992 -3.33301 -2.33398 -5 -5.00098 -5h-111c-2.66699 0 -4 1.66699 -4 5zM156.999 185h96l-41 281l-6 37l-4 -37zM158.999 747c-2.66699 0 -4.66895 1.33301 -6.00195 4l-93 173c-1.33301 2.66699 0 4 4 4h114c2.66699 0 4.33398 -1.33301 5.00098 -4l80 -173
c0.666992 -2.66699 -0.666016 -4 -3.99902 -4h-100z" />
    <glyph glyph-name="Aacute" unicode="&#xc1;" horiz-adv-x="427" 
d="M6 5l123.999 687c0.666992 2.66699 2.33398 4 5.00098 4h145c2.66699 0 4.33398 -1.33301 5.00098 -4l119 -687c0.666992 -3.33301 -0.666016 -5 -3.99902 -5h-111c-2.66699 0 -4.33398 1.66699 -5.00098 5l-11 73h-136l-11 -73
c-0.666992 -3.33301 -2.33398 -5 -5.00098 -5h-111c-2.66699 0 -4 1.66699 -4 5zM156.999 185h96l-41 281l-6 37l-4 -37zM144.999 747c-3.33301 0 -4.66797 1.33301 -4.00098 4l80 173c0.666992 2.66699 2.33398 4 5.00098 4h114c4 0 5.33301 -1.33301 4 -4l-93 -173
c-1.33301 -2.66699 -3.33301 -4 -6 -4h-100z" />
    <glyph glyph-name="Acircumflex" unicode="&#xc2;" horiz-adv-x="427" 
d="M6 5l123.999 687c0.666992 2.66699 2.33398 4 5.00098 4h145c2.66699 0 4.33398 -1.33301 5.00098 -4l119 -687c0.666992 -3.33301 -0.666016 -5 -3.99902 -5h-111c-2.66699 0 -4.33398 1.66699 -5.00098 5l-11 73h-136l-11 -73
c-0.666992 -3.33301 -2.33398 -5 -5.00098 -5h-111c-2.66699 0 -4 1.66699 -4 5zM156.999 185h96l-41 281l-6 37l-4 -37zM14.999 748c-4 0 -5.33105 1.33301 -3.99805 4l130 153c1.33301 2.66699 3.33301 4 6 4h115c2.66699 0 4.66699 -1.33301 6 -4l130 -153
c1.33301 -2.66699 0 -4 -4 -4h-117c-2.66699 0 -4.33398 1.33301 -5.00098 4l-70 87l-71 -87c-0.666992 -2.66699 -2.33398 -4 -5.00098 -4h-111z" />
    <glyph glyph-name="Atilde" unicode="&#xc3;" horiz-adv-x="427" 
d="M6 5l123.999 687c0.666992 2.66699 2.33398 4 5.00098 4h145c2.66699 0 4.33398 -1.33301 5.00098 -4l119 -687c0.666992 -3.33301 -0.666016 -5 -3.99902 -5h-111c-2.66699 0 -4.33398 1.66699 -5.00098 5l-11 73h-136l-11 -73
c-0.666992 -3.33301 -2.33398 -5 -5.00098 -5h-111c-2.66699 0 -4 1.66699 -4 5zM156.999 185h96l-41 281l-6 37l-4 -37zM294.999 753c-18.667 0 -35.833 3.50098 -51.5 10.501s-29.834 14 -42.501 21s-24.667 10.5 -36 10.5c-12.667 0 -22.334 -3.16699 -29.001 -9.5
s-10 -14.166 -10 -23.499c0 -2.66699 -1.33301 -4 -4 -4h-90c-2.66699 0 -4 1.33301 -4 4c0 17.333 5.16699 35.166 15.5 53.499s25 33.833 44 46.5s41.833 19 68.5 19c19.333 0 36.333 -3.16699 51 -9.5s27.834 -12.833 39.501 -19.5s21.834 -10 30.501 -10
c9.33301 0 17.5 3 24.5 9s10.5 15.333 10.5 28c0 2.66699 1.33301 4 4 4h90c2.66699 0 4 -1.33301 4 -4c0 -27.333 -5.5 -50.333 -16.5 -69s-25.333 -32.834 -43 -42.501s-36.167 -14.5 -55.5 -14.5z" />
    <glyph glyph-name="Adieresis" unicode="&#xc4;" horiz-adv-x="427" 
d="M6 5l123.999 687c0.666992 2.66699 2.33398 4 5.00098 4h145c2.66699 0 4.33398 -1.33301 5.00098 -4l119 -687c0.666992 -3.33301 -0.666016 -5 -3.99902 -5h-111c-2.66699 0 -4.33398 1.66699 -5.00098 5l-11 73h-136l-11 -73
c-0.666992 -3.33301 -2.33398 -5 -5.00098 -5h-111c-2.66699 0 -4 1.66699 -4 5zM156.999 185h96l-41 281l-6 37l-4 -37zM252.999 764c-2.66699 0 -4 1.33301 -4 4v113c0 2.66699 1.33301 4 4 4h113c2.66699 0 4 -1.33301 4 -4v-113c0 -2.66699 -1.33301 -4 -4 -4h-113z
M44.999 764c-2.66699 0 -4 1.33301 -4 4v113c0 2.66699 1.33301 4 4 4h113c2.66699 0 4 -1.33301 4 -4v-113c0 -2.66699 -1.33301 -4 -4 -4h-113z" />
    <glyph glyph-name="Aring" unicode="&#xc5;" horiz-adv-x="427" 
d="M6 5l123.999 687c0.666992 2.66699 2.33398 4 5.00098 4h145c2.66699 0 4.33398 -1.33301 5.00098 -4l119 -687c0.666992 -3.33301 -0.666016 -5 -3.99902 -5h-111c-2.66699 0 -4.33398 1.66699 -5.00098 5l-11 73h-136l-11 -73
c-0.666992 -3.33301 -2.33398 -5 -5.00098 -5h-111c-2.66699 0 -4 1.66699 -4 5zM156.999 185h96l-41 281l-6 37l-4 -37zM205.999 741c-24.667 0 -46.334 9.5 -65.001 28.5s-28 40.833 -28 65.5c0 26 9.33301 48.333 28 67s40.334 28 65.001 28c24 0 45.333 -9.33301 64 -28
s28 -41 28 -67c0 -26.667 -9.5 -49 -28.5 -67s-40.167 -27 -63.5 -27zM204.999 788c12 0 22.333 4.66699 31 14s13 20.333 13 33c0 13.333 -4.33301 24.666 -13 33.999s-19 14 -31 14c-12.667 0 -23.334 -4.66699 -32.001 -14s-13 -20.666 -13 -33.999
c0 -12.667 4.33301 -23.667 13 -33s19.334 -14 32.001 -14z" />
    <glyph glyph-name="AE" unicode="&#xc6;" horiz-adv-x="696" 
d="M6 0c-4 0 -5.33301 2 -4 6l279 687c1.33301 2 3.33301 3 6 3h355c2.66699 0 4 -1.66699 4 -5v-112c0 -2.66699 -1.33301 -4 -4 -4h-205v-156h205c2.66699 0 4 -1.33301 4 -4l1 -113c0 -2.66699 -1.33301 -4 -4 -4h-206v-175h206c2.66699 0 4 -1.66699 4 -5v-114
c0 -2.66699 -1.33301 -4 -4 -4h-323c-2.66699 0 -4 1.66699 -4 5v73h-158l-30 -76c0 -1.33301 -1 -2 -3 -2h-119zM199 185h117l1 303l-14 -37z" />
    <glyph glyph-name="Ccedilla" unicode="&#xc7;" horiz-adv-x="453" 
d="M224 -10c-36.667 0 -69.833 9.16602 -99.5 27.499s-53.167 42.833 -70.5 73.5s-26 65 -26 103l1 312c0 36.667 8.5 70.167 25.5 100.5s40.333 54.666 70 72.999s62.834 27.5 99.501 27.5s69.667 -9 99 -27s52.666 -42.167 69.999 -72.5s26 -64.166 26 -101.499v-46
c0 -2.66699 -1.33301 -4 -4 -4h-112c-2.66699 0 -4 1.33301 -4 4v46c0 22 -7.16699 41 -21.5 57s-32.166 24 -53.499 24c-24 0 -42.333 -8.16699 -55 -24.5s-19 -35.166 -19 -56.499v-312c0 -24.667 7.16699 -44.667 21.5 -60s31.833 -23 52.5 -23
c21.333 0 39.166 8.5 53.499 25.5s21.5 36.167 21.5 57.5v46c0 2.66699 1.33301 4 4 4h113c2.66699 0 4 -1.33301 4 -4v-46c0 -38 -8.83301 -72.333 -26.5 -103s-41.167 -55.167 -70.5 -73.5s-62.333 -27.5 -99 -27.5zM121.001 -98.001c-4 0 -5.33398 1.33301 -4.00098 4
l67 110c1.33301 2.66699 3.33301 4 6 4h83c3.33301 0 4.66602 -1.33301 3.99902 -4l-32 -57c34.667 -5.33301 62.334 -18 83.001 -38s31 -44 31 -72c0 -26.667 -7.16699 -51 -21.5 -73s-33.5 -39.333 -57.5 -52s-51.333 -19 -82 -19c-18 0 -36.167 1.5 -54.5 4.5
s-32.166 7.16699 -41.499 12.5c-1.33301 1.33301 -2 2.33301 -2 3l-3 88c0 4 2 5.33301 6 4c20 -6.66699 37.833 -11.167 53.5 -13.5s28.834 -3.5 39.501 -3.5c21.333 0 37.666 4 48.999 12s17 18.667 17 32c0 17.333 -10.333 31.333 -31 42s-53.667 16 -99 16h-11z" />
    <glyph glyph-name="Egrave" unicode="&#xc8;" horiz-adv-x="420" 
d="M44 0c-2.66699 0 -4 1.66699 -4 5l1 687c0 2.66699 1.33301 4 4 4h321c2.66699 0 4 -1.66699 4 -5v-112c0 -2.66699 -1.33301 -4 -4 -4h-205v-156h205c2.66699 0 4 -1.33301 4 -4l1 -113c0 -2.66699 -1.33301 -4 -4 -4h-206v-175h206c2.66699 0 4 -1.66699 4 -5v-114
c0 -2.66699 -1.33301 -4 -4 -4h-323zM157 747c-2.66699 0 -4.66895 1.33301 -6.00195 4l-93 173c-1.33301 2.66699 0 4 4 4h114c2.66699 0 4.33398 -1.33301 5.00098 -4l80 -173c0.666992 -2.66699 -0.666016 -4 -3.99902 -4h-100z" />
    <glyph glyph-name="Eacute" unicode="&#xc9;" horiz-adv-x="420" 
d="M44 0c-2.66699 0 -4 1.66699 -4 5l1 687c0 2.66699 1.33301 4 4 4h321c2.66699 0 4 -1.66699 4 -5v-112c0 -2.66699 -1.33301 -4 -4 -4h-205v-156h205c2.66699 0 4 -1.33301 4 -4l1 -113c0 -2.66699 -1.33301 -4 -4 -4h-206v-175h206c2.66699 0 4 -1.66699 4 -5v-114
c0 -2.66699 -1.33301 -4 -4 -4h-323zM143 747c-3.33301 0 -4.66797 1.33301 -4.00098 4l80 173c0.666992 2.66699 2.33398 4 5.00098 4h114c4 0 5.33301 -1.33301 4 -4l-93 -173c-1.33301 -2.66699 -3.33301 -4 -6 -4h-100z" />
    <glyph glyph-name="Ecircumflex" unicode="&#xca;" horiz-adv-x="420" 
d="M44 0c-2.66699 0 -4 1.66699 -4 5l1 687c0 2.66699 1.33301 4 4 4h321c2.66699 0 4 -1.66699 4 -5v-112c0 -2.66699 -1.33301 -4 -4 -4h-205v-156h205c2.66699 0 4 -1.33301 4 -4l1 -113c0 -2.66699 -1.33301 -4 -4 -4h-206v-175h206c2.66699 0 4 -1.66699 4 -5v-114
c0 -2.66699 -1.33301 -4 -4 -4h-323zM13 748c-4 0 -5.33105 1.33301 -3.99805 4l130 153c1.33301 2.66699 3.33301 4 6 4h115c2.66699 0 4.66699 -1.33301 6 -4l130 -153c1.33301 -2.66699 0 -4 -4 -4h-117c-2.66699 0 -4.33398 1.33301 -5.00098 4l-70 87l-71 -87
c-0.666992 -2.66699 -2.33398 -4 -5.00098 -4h-111z" />
    <glyph glyph-name="Edieresis" unicode="&#xcb;" horiz-adv-x="420" 
d="M44 0c-2.66699 0 -4 1.66699 -4 5l1 687c0 2.66699 1.33301 4 4 4h321c2.66699 0 4 -1.66699 4 -5v-112c0 -2.66699 -1.33301 -4 -4 -4h-205v-156h205c2.66699 0 4 -1.33301 4 -4l1 -113c0 -2.66699 -1.33301 -4 -4 -4h-206v-175h206c2.66699 0 4 -1.66699 4 -5v-114
c0 -2.66699 -1.33301 -4 -4 -4h-323zM251 764c-2.66699 0 -4 1.33301 -4 4v113c0 2.66699 1.33301 4 4 4h113c2.66699 0 4 -1.33301 4 -4v-113c0 -2.66699 -1.33301 -4 -4 -4h-113zM43 764c-2.66699 0 -4 1.33301 -4 4v113c0 2.66699 1.33301 4 4 4h113
c2.66699 0 4 -1.33301 4 -4v-113c0 -2.66699 -1.33301 -4 -4 -4h-113z" />
    <glyph glyph-name="Igrave" unicode="&#xcc;" horiz-adv-x="210" 
d="M45 0c-3.33301 0 -5 1.66699 -5 5l1 687c0 2.66699 1.33301 4 4 4h112c2.66699 0 4 -1.33301 4 -4l1 -687c0 -3.33301 -1.33301 -5 -4 -5h-113zM58 747c-2.66699 0 -4.66895 1.33301 -6.00195 4l-93 173c-1.33301 2.66699 0 4 4 4h114
c2.66699 0 4.33398 -1.33301 5.00098 -4l80 -173c0.666992 -2.66699 -0.666016 -4 -3.99902 -4h-100z" />
    <glyph glyph-name="Iacute" unicode="&#xcd;" horiz-adv-x="210" 
d="M45 0c-3.33301 0 -5 1.66699 -5 5l1 687c0 2.66699 1.33301 4 4 4h112c2.66699 0 4 -1.33301 4 -4l1 -687c0 -3.33301 -1.33301 -5 -4 -5h-113zM44 747c-3.33301 0 -4.66797 1.33301 -4.00098 4l80 173c0.666992 2.66699 2.33398 4 5.00098 4h114
c4 0 5.33301 -1.33301 4 -4l-93 -173c-1.33301 -2.66699 -3.33301 -4 -6 -4h-100z" />
    <glyph glyph-name="Icircumflex" unicode="&#xce;" horiz-adv-x="210" 
d="M45 0c-3.33301 0 -5 1.66699 -5 5l1 687c0 2.66699 1.33301 4 4 4h112c2.66699 0 4 -1.33301 4 -4l1 -687c0 -3.33301 -1.33301 -5 -4 -5h-113zM-86 748c-4 0 -5.33105 1.33301 -3.99805 4l130 153c1.33301 2.66699 3.33301 4 6 4h115c2.66699 0 4.66699 -1.33301 6 -4
l130 -153c1.33301 -2.66699 0 -4 -4 -4h-117c-2.66699 0 -4.33398 1.33301 -5.00098 4l-70 87l-71 -87c-0.666992 -2.66699 -2.33398 -4 -5.00098 -4h-111z" />
    <glyph glyph-name="Idieresis" unicode="&#xcf;" horiz-adv-x="210" 
d="M45 0c-3.33301 0 -5 1.66699 -5 5l1 687c0 2.66699 1.33301 4 4 4h112c2.66699 0 4 -1.33301 4 -4l1 -687c0 -3.33301 -1.33301 -5 -4 -5h-113zM152 764c-2.66699 0 -4 1.33301 -4 4v113c0 2.66699 1.33301 4 4 4h113c2.66699 0 4 -1.33301 4 -4v-113
c0 -2.66699 -1.33301 -4 -4 -4h-113zM-56 764c-2.66699 0 -4 1.33301 -4 4v113c0 2.66699 1.33301 4 4 4h113c2.66699 0 4 -1.33301 4 -4v-113c0 -2.66699 -1.33301 -4 -4 -4h-113z" />
    <glyph glyph-name="Eth" unicode="&#xd0;" horiz-adv-x="472" 
d="M45 0c-3.33301 0 -5.00098 1.66992 -5.00098 5.00293l1 305h-51c-2.66699 0 -4 1.66699 -4 5v104c0 3.33301 1.66699 5 5 5h50l1 268c0 2.66699 1.33301 4 4 4l187 1c36.667 0.666992 70.167 -8 100.5 -26s54.5 -42.167 72.5 -72.5s27 -63.833 27 -100.5v-287
c0 -38.667 -9.33301 -73.834 -28 -105.501s-43.667 -56.834 -75 -75.501s-66.666 -28.334 -105.999 -29.001zM161.999 123.003h62c24.667 0 45.5 8.66699 62.5 26s25.5 38 25.5 62v288c0 21.333 -7.83301 39.833 -23.5 55.5s-34.167 23.167 -55.5 22.5l-70 -1v-152h78
c2.66699 0 4 -1.66699 4 -5v-104c0 -3.33301 -1.33301 -5 -4 -5h-79v-187z" />
    <glyph glyph-name="Ntilde" unicode="&#xd1;" horiz-adv-x="464" 
d="M49 0c-5.33301 0 -8 2.33301 -8 7l-1 681c0 5.33301 2.66699 8 8 8h90l169 -394l-5 386c0 5.33301 3 8 9 8h99c4 0 6 -2.66699 6 -8l1 -682c0 -4 -1.66699 -6 -5 -6h-88l-173 368l7 -360c0 -5.33301 -3 -8 -9 -8h-100zM305 753c-18.667 0 -35.833 3.50098 -51.5 10.501
s-29.834 14 -42.501 21s-24.667 10.5 -36 10.5c-12.667 0 -22.334 -3.16699 -29.001 -9.5s-10 -14.166 -10 -23.499c0 -2.66699 -1.33301 -4 -4 -4h-90c-2.66699 0 -4 1.33301 -4 4c0 17.333 5.16699 35.166 15.5 53.499s25 33.833 44 46.5s41.833 19 68.5 19
c19.333 0 36.333 -3.16699 51 -9.5s27.834 -12.833 39.501 -19.5s21.834 -10 30.501 -10c9.33301 0 17.5 3 24.5 9s10.5 15.333 10.5 28c0 2.66699 1.33301 4 4 4h90c2.66699 0 4 -1.33301 4 -4c0 -27.333 -5.5 -50.333 -16.5 -69s-25.333 -32.834 -43 -42.501
s-36.167 -14.5 -55.5 -14.5z" />
    <glyph glyph-name="Ograve" unicode="&#xd2;" horiz-adv-x="457" 
d="M225 -10c-36 0 -68.832 9.16699 -98.499 27.5s-53.5 42.666 -71.5 72.999s-27 63.833 -27 100.5l1 317c0 36.667 8.83301 70 26.5 100s41.5 54 71.5 72s62.667 27 98 27c36 0 68.667 -9 98 -27s52.833 -42 70.5 -72s26.5 -63.333 26.5 -100l1 -317
c0 -36.667 -8.83301 -70.167 -26.5 -100.5s-41.334 -54.666 -71.001 -72.999s-62.5 -27.5 -98.5 -27.5zM225.001 111c20 0 37.5 8.16699 52.5 24.5s22.5 34.833 22.5 55.5l-1 317c0 22 -7 40.667 -21 56s-31.667 23 -53 23c-20.667 0 -38.334 -7.5 -53.001 -22.5
s-22 -33.833 -22 -56.5v-317c0 -22 7.33301 -40.833 22 -56.5s32.334 -23.5 53.001 -23.5zM178.001 747c-2.66699 0 -4.66895 1.33301 -6.00195 4l-93 173c-1.33301 2.66699 0 4 4 4h114c2.66699 0 4.33398 -1.33301 5.00098 -4l80 -173
c0.666992 -2.66699 -0.666016 -4 -3.99902 -4h-100z" />
    <glyph glyph-name="Oacute" unicode="&#xd3;" horiz-adv-x="457" 
d="M225 -10c-36 0 -68.832 9.16699 -98.499 27.5s-53.5 42.666 -71.5 72.999s-27 63.833 -27 100.5l1 317c0 36.667 8.83301 70 26.5 100s41.5 54 71.5 72s62.667 27 98 27c36 0 68.667 -9 98 -27s52.833 -42 70.5 -72s26.5 -63.333 26.5 -100l1 -317
c0 -36.667 -8.83301 -70.167 -26.5 -100.5s-41.334 -54.666 -71.001 -72.999s-62.5 -27.5 -98.5 -27.5zM225.001 111c20 0 37.5 8.16699 52.5 24.5s22.5 34.833 22.5 55.5l-1 317c0 22 -7 40.667 -21 56s-31.667 23 -53 23c-20.667 0 -38.334 -7.5 -53.001 -22.5
s-22 -33.833 -22 -56.5v-317c0 -22 7.33301 -40.833 22 -56.5s32.334 -23.5 53.001 -23.5zM164.001 747c-3.33301 0 -4.66797 1.33301 -4.00098 4l80 173c0.666992 2.66699 2.33398 4 5.00098 4h114c4 0 5.33301 -1.33301 4 -4l-93 -173
c-1.33301 -2.66699 -3.33301 -4 -6 -4h-100z" />
    <glyph glyph-name="Ocircumflex" unicode="&#xd4;" horiz-adv-x="457" 
d="M225 -10c-36 0 -68.832 9.16699 -98.499 27.5s-53.5 42.666 -71.5 72.999s-27 63.833 -27 100.5l1 317c0 36.667 8.83301 70 26.5 100s41.5 54 71.5 72s62.667 27 98 27c36 0 68.667 -9 98 -27s52.833 -42 70.5 -72s26.5 -63.333 26.5 -100l1 -317
c0 -36.667 -8.83301 -70.167 -26.5 -100.5s-41.334 -54.666 -71.001 -72.999s-62.5 -27.5 -98.5 -27.5zM225.001 111c20 0 37.5 8.16699 52.5 24.5s22.5 34.833 22.5 55.5l-1 317c0 22 -7 40.667 -21 56s-31.667 23 -53 23c-20.667 0 -38.334 -7.5 -53.001 -22.5
s-22 -33.833 -22 -56.5v-317c0 -22 7.33301 -40.833 22 -56.5s32.334 -23.5 53.001 -23.5zM34.001 748c-4 0 -5.33105 1.33301 -3.99805 4l130 153c1.33301 2.66699 3.33301 4 6 4h115c2.66699 0 4.66699 -1.33301 6 -4l130 -153c1.33301 -2.66699 0 -4 -4 -4h-117
c-2.66699 0 -4.33398 1.33301 -5.00098 4l-70 87l-71 -87c-0.666992 -2.66699 -2.33398 -4 -5.00098 -4h-111z" />
    <glyph glyph-name="Otilde" unicode="&#xd5;" horiz-adv-x="458" 
d="M303 753c-18.667 0 -35.833 3.50098 -51.5 10.501s-29.834 14 -42.501 21s-24.667 10.5 -36 10.5c-12.667 0 -22.334 -3.16699 -29.001 -9.5s-10 -14.166 -10 -23.499c0 -2.66699 -1.33301 -4 -4 -4h-90c-2.66699 0 -4 1.33301 -4 4c0 17.333 5.16699 35.166 15.5 53.499
s25 33.833 44 46.5s41.833 19 68.5 19c19.333 0 36.333 -3.16699 51 -9.5s27.834 -12.833 39.501 -19.5s21.834 -10 30.501 -10c9.33301 0 17.5 3 24.5 9s10.5 15.333 10.5 28c0 2.66699 1.33301 4 4 4h90c2.66699 0 4 -1.33301 4 -4c0 -27.333 -5.5 -50.333 -16.5 -69
s-25.333 -32.834 -43 -42.501s-36.167 -14.5 -55.5 -14.5zM225.001 -9.99902c-36 0 -68.832 9.16699 -98.499 27.5s-53.5 42.666 -71.5 72.999s-27 63.833 -27 100.5l1 317c0 36.667 8.83301 70 26.5 100s41.5 54 71.5 72s62.667 27 98 27c36 0 68.667 -9 98 -27
s52.833 -42 70.5 -72s26.5 -63.333 26.5 -100l1 -317c0 -36.667 -8.83301 -70.167 -26.5 -100.5s-41.334 -54.666 -71.001 -72.999s-62.5 -27.5 -98.5 -27.5zM225.002 111.001c20 0 37.5 8.16699 52.5 24.5s22.5 34.833 22.5 55.5l-1 317c0 22 -7 40.667 -21 56
s-31.667 23 -53 23c-20.667 0 -38.334 -7.5 -53.001 -22.5s-22 -33.833 -22 -56.5v-317c0 -22 7.33301 -40.833 22 -56.5s32.334 -23.5 53.001 -23.5z" />
    <glyph glyph-name="Odieresis" unicode="&#xd6;" horiz-adv-x="457" 
d="M225 -10c-36 0 -68.832 9.16699 -98.499 27.5s-53.5 42.666 -71.5 72.999s-27 63.833 -27 100.5l1 317c0 36.667 8.83301 70 26.5 100s41.5 54 71.5 72s62.667 27 98 27c36 0 68.667 -9 98 -27s52.833 -42 70.5 -72s26.5 -63.333 26.5 -100l1 -317
c0 -36.667 -8.83301 -70.167 -26.5 -100.5s-41.334 -54.666 -71.001 -72.999s-62.5 -27.5 -98.5 -27.5zM225.001 111c20 0 37.5 8.16699 52.5 24.5s22.5 34.833 22.5 55.5l-1 317c0 22 -7 40.667 -21 56s-31.667 23 -53 23c-20.667 0 -38.334 -7.5 -53.001 -22.5
s-22 -33.833 -22 -56.5v-317c0 -22 7.33301 -40.833 22 -56.5s32.334 -23.5 53.001 -23.5zM272.001 764c-2.66699 0 -4 1.33301 -4 4v113c0 2.66699 1.33301 4 4 4h113c2.66699 0 4 -1.33301 4 -4v-113c0 -2.66699 -1.33301 -4 -4 -4h-113zM64.001 764
c-2.66699 0 -4 1.33301 -4 4v113c0 2.66699 1.33301 4 4 4h113c2.66699 0 4 -1.33301 4 -4v-113c0 -2.66699 -1.33301 -4 -4 -4h-113z" />
    <glyph glyph-name="multiply" unicode="&#xd7;" horiz-adv-x="397" 
d="M87 172l-59.999 49c-1.33301 1.33301 -1 3.66602 1 6.99902l109 124l-107 119c-0.666992 0.666992 0 2 2 4l57 53c2 2 3 2.66699 3 2l103 -113l100 113c0 0.666992 0.666992 0.333984 2 -0.999023l62 -52l1 -3l-106 -122l109 -120c2 -2 2.83301 -3.33301 2.5 -4
s-0.833008 -1.33398 -1.5 -2.00098l-57 -53c-0.666992 -0.666992 -1.33398 -1.5 -2.00098 -2.5s-2 -0.166992 -4 2.5l-106 116l-102 -116c-1.33301 -2.66699 -2.33301 -3.66699 -3 -3s-1.66699 1.33398 -3 2.00098z" />
    <glyph glyph-name="Oslash" unicode="&#xd8;" horiz-adv-x="458" 
d="M-21 -37c-1.33301 0 -2.49902 0.667969 -3.49902 2.00098s-1.16699 2.66602 -0.5 3.99902l73 134c-13.333 27.333 -20 56.666 -20 87.999l1 317c0 36.667 8.83301 70 26.5 100s41.5 54 71.5 72s62.667 27 98 27c24.667 0 47.834 -4.33301 69.501 -13
s41.167 -20.667 58.5 -36l39 71c1.33301 2 3.33301 3 6 3h76c5.33301 0 6.66602 -2.66699 3.99902 -8l-74 -136c10.667 -25.333 16 -52 16 -80l1 -317c0 -36.667 -8.83301 -70.167 -26.5 -100.5s-41.334 -54.666 -71.001 -72.999s-62.5 -27.5 -98.5 -27.5
c-23.333 0 -45.5 4 -66.5 12s-40.167 19 -57.5 33l-38 -70c-1.33301 -1.33301 -3 -2 -5 -2h-79zM150.001 508.001l0.00195312 -220.001l141 257c-6 12.667 -14.833 22.834 -26.5 30.501s-24.834 11.5 -39.501 11.5c-20.667 0 -38.334 -7.5 -53.001 -22.5
s-22 -33.833 -22 -56.5zM225.003 111c20 0 37.5 8.16797 52.5 24.501s22.5 34.833 22.5 55.5l-1 206l-136 -250c6.66699 -10.667 15.5 -19.334 26.5 -26.001s22.833 -10 35.5 -10z" />
    <glyph glyph-name="Ugrave" unicode="&#xd9;" horiz-adv-x="460" 
d="M224 -10c-35.333 0 -67.9971 9.16602 -97.9971 27.499s-53.833 42.833 -71.5 73.5s-26.5 64.334 -26.5 101.001l2 500c0 2.66699 1.33301 4 4 4h112c2.66699 0 4 -1.33301 4 -4v-500c0 -22.667 7.16699 -41.834 21.5 -57.501s31.833 -23.5 52.5 -23.5
c21.333 0 39.166 7.83301 53.499 23.5s21.5 34.834 21.5 57.501v500c0 2.66699 1.33301 4 4 4h112c2.66699 0 4 -1.33301 4 -4l2 -500c0 -37.333 -8.83301 -71.333 -26.5 -102s-41.334 -55 -71.001 -73s-62.834 -27 -99.501 -27zM176.003 746.999
c-2.66699 0 -4.66895 1.33301 -6.00195 4l-93 173c-1.33301 2.66699 0 4 4 4h114c2.66699 0 4.33398 -1.33301 5.00098 -4l80 -173c0.666992 -2.66699 -0.666016 -4 -3.99902 -4h-100z" />
    <glyph glyph-name="Uacute" unicode="&#xda;" horiz-adv-x="460" 
d="M224 -10c-35.333 0 -67.9971 9.16602 -97.9971 27.499s-53.833 42.833 -71.5 73.5s-26.5 64.334 -26.5 101.001l2 500c0 2.66699 1.33301 4 4 4h112c2.66699 0 4 -1.33301 4 -4v-500c0 -22.667 7.16699 -41.834 21.5 -57.501s31.833 -23.5 52.5 -23.5
c21.333 0 39.166 7.83301 53.499 23.5s21.5 34.834 21.5 57.501v500c0 2.66699 1.33301 4 4 4h112c2.66699 0 4 -1.33301 4 -4l2 -500c0 -37.333 -8.83301 -71.333 -26.5 -102s-41.334 -55 -71.001 -73s-62.834 -27 -99.501 -27zM162.003 746.999
c-3.33301 0 -4.66797 1.33301 -4.00098 4l80 173c0.666992 2.66699 2.33398 4 5.00098 4h114c4 0 5.33301 -1.33301 4 -4l-93 -173c-1.33301 -2.66699 -3.33301 -4 -6 -4h-100z" />
    <glyph glyph-name="Ucircumflex" unicode="&#xdb;" horiz-adv-x="460" 
d="M224 -10c-35.333 0 -67.9971 9.16602 -97.9971 27.499s-53.833 42.833 -71.5 73.5s-26.5 64.334 -26.5 101.001l2 500c0 2.66699 1.33301 4 4 4h112c2.66699 0 4 -1.33301 4 -4v-500c0 -22.667 7.16699 -41.834 21.5 -57.501s31.833 -23.5 52.5 -23.5
c21.333 0 39.166 7.83301 53.499 23.5s21.5 34.834 21.5 57.501v500c0 2.66699 1.33301 4 4 4h112c2.66699 0 4 -1.33301 4 -4l2 -500c0 -37.333 -8.83301 -71.333 -26.5 -102s-41.334 -55 -71.001 -73s-62.834 -27 -99.501 -27zM32.0029 747.999
c-4 0 -5.33105 1.33301 -3.99805 4l130 153c1.33301 2.66699 3.33301 4 6 4h115c2.66699 0 4.66699 -1.33301 6 -4l130 -153c1.33301 -2.66699 0 -4 -4 -4h-117c-2.66699 0 -4.33398 1.33301 -5.00098 4l-70 87l-71 -87c-0.666992 -2.66699 -2.33398 -4 -5.00098 -4h-111z
" />
    <glyph glyph-name="Udieresis" unicode="&#xdc;" horiz-adv-x="460" 
d="M224 -10c-35.333 0 -67.9971 9.16602 -97.9971 27.499s-53.833 42.833 -71.5 73.5s-26.5 64.334 -26.5 101.001l2 500c0 2.66699 1.33301 4 4 4h112c2.66699 0 4 -1.33301 4 -4v-500c0 -22.667 7.16699 -41.834 21.5 -57.501s31.833 -23.5 52.5 -23.5
c21.333 0 39.166 7.83301 53.499 23.5s21.5 34.834 21.5 57.501v500c0 2.66699 1.33301 4 4 4h112c2.66699 0 4 -1.33301 4 -4l2 -500c0 -37.333 -8.83301 -71.333 -26.5 -102s-41.334 -55 -71.001 -73s-62.834 -27 -99.501 -27zM270.003 763.999
c-2.66699 0 -4 1.33301 -4 4v113c0 2.66699 1.33301 4 4 4h113c2.66699 0 4 -1.33301 4 -4v-113c0 -2.66699 -1.33301 -4 -4 -4h-113zM62.0029 763.999c-2.66699 0 -4 1.33301 -4 4v113c0 2.66699 1.33301 4 4 4h113c2.66699 0 4 -1.33301 4 -4v-113
c0 -2.66699 -1.33301 -4 -4 -4h-113z" />
    <glyph glyph-name="Yacute" unicode="&#xdd;" horiz-adv-x="401" 
d="M133 0c-2 0 -3.00098 1.33301 -3.00098 4l1 284l-134 404c-0.666992 2.66699 0.333008 4 3 4h111c3.33301 0 5.33301 -1.33301 6 -4l74 -269l75 269c0.666992 2.66699 2.33398 4 5.00098 4h112c2.66699 0 3.66699 -1.33301 3 -4l-135 -400l1 -288
c0 -2.66699 -1.33301 -4 -4 -4h-115zM129.999 747c-3.33301 0 -4.66797 1.33301 -4.00098 4l80 173c0.666992 2.66699 2.33398 4 5.00098 4h114c4 0 5.33301 -1.33301 4 -4l-93 -173c-1.33301 -2.66699 -3.33301 -4 -6 -4h-100z" />
    <glyph glyph-name="Thorn" unicode="&#xde;" horiz-adv-x="458" 
d="M45 0c-3.33301 0 -5 1.66797 -5 5.00098l2 687c0 2.66699 1.33301 4 4 4h110c4 0 6 -2 6 -6v-110h77c61.333 0 109.833 -18.667 145.5 -56s53.5 -88 53.5 -152c0 -46.667 -9.33301 -87.334 -28 -122.001s-43.167 -61.5 -73.5 -80.5s-62.833 -28.5 -97.5 -28.5h-77v-136
c0 -3.33301 -1.66699 -5 -5 -5h-112zM162 262.001h77c21.333 0 39.833 10.167 55.5 30.5s23.5 46.833 23.5 79.5c0 26 -7 47.5 -21 64.5s-33.333 25.167 -58 24.5l-77 -1v-198z" />
    <glyph glyph-name="germandbls" unicode="&#xdf;" horiz-adv-x="481" 
d="M46 0c-4 0 -5.99902 2 -5.99902 6l1 472c0 41.333 8 79.333 24 114s39.667 62.334 71 83.001s70 31 116 31c38.667 0 73.167 -9 103.5 -27s54.333 -42.667 72 -74s26.5 -67 26.5 -107c0 -28.667 -6.5 -55.334 -19.5 -80.001s-28.5 -44.667 -46.5 -60
c19.333 -19.333 34.333 -41.666 45 -66.999s16 -52 16 -80c0 -38.667 -9.33301 -74 -28 -106s-43.834 -57.5 -75.501 -76.5s-66.834 -28.5 -105.501 -28.5h-14c-4 0 -6 2 -6 6l2 110c0 4 2 6 6 6h12c24 0 44.667 8.83301 62 26.5s26 38.5 26 62.5c0 23.333 -8 43.5 -24 60.5
s-35.333 26.167 -58 27.5c-4 0 -6 2 -6 6v109c0 4 2 6 6 6h9c23.333 0 42.166 8.16699 56.499 24.5s21.5 34.166 21.5 53.499c0 26.667 -7.66699 48 -23 64s-36.666 24 -63.999 24c-29.333 0 -50.666 -10.667 -63.999 -32s-20 -46.333 -20 -75v-473c0 -4 -2 -6 -6 -6h-110z
" />
    <glyph glyph-name="agrave" unicode="&#xe0;" horiz-adv-x="427" 
d="M6 5l123.999 687c0.666992 2.66699 2.33398 4 5.00098 4h145c2.66699 0 4.33398 -1.33301 5.00098 -4l119 -687c0.666992 -3.33301 -0.666016 -5 -3.99902 -5h-111c-2.66699 0 -4.33398 1.66699 -5.00098 5l-11 73h-136l-11 -73
c-0.666992 -3.33301 -2.33398 -5 -5.00098 -5h-111c-2.66699 0 -4 1.66699 -4 5zM156.999 185h96l-41 281l-6 37l-4 -37zM158.999 747c-2.66699 0 -4.66895 1.33301 -6.00195 4l-93 173c-1.33301 2.66699 0 4 4 4h114c2.66699 0 4.33398 -1.33301 5.00098 -4l80 -173
c0.666992 -2.66699 -0.666016 -4 -3.99902 -4h-100z" />
    <glyph glyph-name="aacute" unicode="&#xe1;" horiz-adv-x="427" 
d="M6 5l123.999 687c0.666992 2.66699 2.33398 4 5.00098 4h145c2.66699 0 4.33398 -1.33301 5.00098 -4l119 -687c0.666992 -3.33301 -0.666016 -5 -3.99902 -5h-111c-2.66699 0 -4.33398 1.66699 -5.00098 5l-11 73h-136l-11 -73
c-0.666992 -3.33301 -2.33398 -5 -5.00098 -5h-111c-2.66699 0 -4 1.66699 -4 5zM156.999 185h96l-41 281l-6 37l-4 -37zM144.999 747c-3.33301 0 -4.66797 1.33301 -4.00098 4l80 173c0.666992 2.66699 2.33398 4 5.00098 4h114c4 0 5.33301 -1.33301 4 -4l-93 -173
c-1.33301 -2.66699 -3.33301 -4 -6 -4h-100z" />
    <glyph glyph-name="acircumflex" unicode="&#xe2;" horiz-adv-x="427" 
d="M6 5l123.999 687c0.666992 2.66699 2.33398 4 5.00098 4h145c2.66699 0 4.33398 -1.33301 5.00098 -4l119 -687c0.666992 -3.33301 -0.666016 -5 -3.99902 -5h-111c-2.66699 0 -4.33398 1.66699 -5.00098 5l-11 73h-136l-11 -73
c-0.666992 -3.33301 -2.33398 -5 -5.00098 -5h-111c-2.66699 0 -4 1.66699 -4 5zM156.999 185h96l-41 281l-6 37l-4 -37zM14.999 748c-4 0 -5.33105 1.33301 -3.99805 4l130 153c1.33301 2.66699 3.33301 4 6 4h115c2.66699 0 4.66699 -1.33301 6 -4l130 -153
c1.33301 -2.66699 0 -4 -4 -4h-117c-2.66699 0 -4.33398 1.33301 -5.00098 4l-70 87l-71 -87c-0.666992 -2.66699 -2.33398 -4 -5.00098 -4h-111z" />
    <glyph glyph-name="atilde" unicode="&#xe3;" horiz-adv-x="427" 
d="M6 5l123.999 687c0.666992 2.66699 2.33398 4 5.00098 4h145c2.66699 0 4.33398 -1.33301 5.00098 -4l119 -687c0.666992 -3.33301 -0.666016 -5 -3.99902 -5h-111c-2.66699 0 -4.33398 1.66699 -5.00098 5l-11 73h-136l-11 -73
c-0.666992 -3.33301 -2.33398 -5 -5.00098 -5h-111c-2.66699 0 -4 1.66699 -4 5zM156.999 185h96l-41 281l-6 37l-4 -37zM294.999 753c-18.667 0 -35.833 3.50098 -51.5 10.501s-29.834 14 -42.501 21s-24.667 10.5 -36 10.5c-12.667 0 -22.334 -3.16699 -29.001 -9.5
s-10 -14.166 -10 -23.499c0 -2.66699 -1.33301 -4 -4 -4h-90c-2.66699 0 -4 1.33301 -4 4c0 17.333 5.16699 35.166 15.5 53.499s25 33.833 44 46.5s41.833 19 68.5 19c19.333 0 36.333 -3.16699 51 -9.5s27.834 -12.833 39.501 -19.5s21.834 -10 30.501 -10
c9.33301 0 17.5 3 24.5 9s10.5 15.333 10.5 28c0 2.66699 1.33301 4 4 4h90c2.66699 0 4 -1.33301 4 -4c0 -27.333 -5.5 -50.333 -16.5 -69s-25.333 -32.834 -43 -42.501s-36.167 -14.5 -55.5 -14.5z" />
    <glyph glyph-name="adieresis" unicode="&#xe4;" horiz-adv-x="427" 
d="M6 5l123.999 687c0.666992 2.66699 2.33398 4 5.00098 4h145c2.66699 0 4.33398 -1.33301 5.00098 -4l119 -687c0.666992 -3.33301 -0.666016 -5 -3.99902 -5h-111c-2.66699 0 -4.33398 1.66699 -5.00098 5l-11 73h-136l-11 -73
c-0.666992 -3.33301 -2.33398 -5 -5.00098 -5h-111c-2.66699 0 -4 1.66699 -4 5zM156.999 185h96l-41 281l-6 37l-4 -37zM252.999 764c-2.66699 0 -4 1.33301 -4 4v113c0 2.66699 1.33301 4 4 4h113c2.66699 0 4 -1.33301 4 -4v-113c0 -2.66699 -1.33301 -4 -4 -4h-113z
M44.999 764c-2.66699 0 -4 1.33301 -4 4v113c0 2.66699 1.33301 4 4 4h113c2.66699 0 4 -1.33301 4 -4v-113c0 -2.66699 -1.33301 -4 -4 -4h-113z" />
    <glyph glyph-name="aring" unicode="&#xe5;" horiz-adv-x="427" 
d="M6 5l123.999 687c0.666992 2.66699 2.33398 4 5.00098 4h145c2.66699 0 4.33398 -1.33301 5.00098 -4l119 -687c0.666992 -3.33301 -0.666016 -5 -3.99902 -5h-111c-2.66699 0 -4.33398 1.66699 -5.00098 5l-11 73h-136l-11 -73
c-0.666992 -3.33301 -2.33398 -5 -5.00098 -5h-111c-2.66699 0 -4 1.66699 -4 5zM156.999 185h96l-41 281l-6 37l-4 -37zM205.999 741c-24.667 0 -46.334 9.5 -65.001 28.5s-28 40.833 -28 65.5c0 26 9.33301 48.333 28 67s40.334 28 65.001 28c24 0 45.333 -9.33301 64 -28
s28 -41 28 -67c0 -26.667 -9.5 -49 -28.5 -67s-40.167 -27 -63.5 -27zM204.999 788c12 0 22.333 4.66699 31 14s13 20.333 13 33c0 13.333 -4.33301 24.666 -13 33.999s-19 14 -31 14c-12.667 0 -23.334 -4.66699 -32.001 -14s-13 -20.666 -13 -33.999
c0 -12.667 4.33301 -23.667 13 -33s19.334 -14 32.001 -14z" />
    <glyph glyph-name="ae" unicode="&#xe6;" horiz-adv-x="696" 
d="M6 0c-4 0 -5.33301 2 -4 6l279 687c1.33301 2 3.33301 3 6 3h355c2.66699 0 4 -1.66699 4 -5v-112c0 -2.66699 -1.33301 -4 -4 -4h-205v-156h205c2.66699 0 4 -1.33301 4 -4l1 -113c0 -2.66699 -1.33301 -4 -4 -4h-206v-175h206c2.66699 0 4 -1.66699 4 -5v-114
c0 -2.66699 -1.33301 -4 -4 -4h-323c-2.66699 0 -4 1.66699 -4 5v73h-158l-30 -76c0 -1.33301 -1 -2 -3 -2h-119zM199 185h117l1 303l-14 -37z" />
    <glyph glyph-name="ccedilla" unicode="&#xe7;" horiz-adv-x="453" 
d="M224 -10c-36.667 0 -69.833 9.16602 -99.5 27.499s-53.167 42.833 -70.5 73.5s-26 65 -26 103l1 312c0 36.667 8.5 70.167 25.5 100.5s40.333 54.666 70 72.999s62.834 27.5 99.501 27.5s69.667 -9 99 -27s52.666 -42.167 69.999 -72.5s26 -64.166 26 -101.499v-46
c0 -2.66699 -1.33301 -4 -4 -4h-112c-2.66699 0 -4 1.33301 -4 4v46c0 22 -7.16699 41 -21.5 57s-32.166 24 -53.499 24c-24 0 -42.333 -8.16699 -55 -24.5s-19 -35.166 -19 -56.499v-312c0 -24.667 7.16699 -44.667 21.5 -60s31.833 -23 52.5 -23
c21.333 0 39.166 8.5 53.499 25.5s21.5 36.167 21.5 57.5v46c0 2.66699 1.33301 4 4 4h113c2.66699 0 4 -1.33301 4 -4v-46c0 -38 -8.83301 -72.333 -26.5 -103s-41.167 -55.167 -70.5 -73.5s-62.333 -27.5 -99 -27.5zM121.001 -98.001c-4 0 -5.33398 1.33301 -4.00098 4
l67 110c1.33301 2.66699 3.33301 4 6 4h83c3.33301 0 4.66602 -1.33301 3.99902 -4l-32 -57c34.667 -5.33301 62.334 -18 83.001 -38s31 -44 31 -72c0 -26.667 -7.16699 -51 -21.5 -73s-33.5 -39.333 -57.5 -52s-51.333 -19 -82 -19c-18 0 -36.167 1.5 -54.5 4.5
s-32.166 7.16699 -41.499 12.5c-1.33301 1.33301 -2 2.33301 -2 3l-3 88c0 4 2 5.33301 6 4c20 -6.66699 37.833 -11.167 53.5 -13.5s28.834 -3.5 39.501 -3.5c21.333 0 37.666 4 48.999 12s17 18.667 17 32c0 17.333 -10.333 31.333 -31 42s-53.667 16 -99 16h-11z" />
    <glyph glyph-name="egrave" unicode="&#xe8;" horiz-adv-x="420" 
d="M44 0c-2.66699 0 -4 1.66699 -4 5l1 687c0 2.66699 1.33301 4 4 4h321c2.66699 0 4 -1.66699 4 -5v-112c0 -2.66699 -1.33301 -4 -4 -4h-205v-156h205c2.66699 0 4 -1.33301 4 -4l1 -113c0 -2.66699 -1.33301 -4 -4 -4h-206v-175h206c2.66699 0 4 -1.66699 4 -5v-114
c0 -2.66699 -1.33301 -4 -4 -4h-323zM157 747c-2.66699 0 -4.66895 1.33301 -6.00195 4l-93 173c-1.33301 2.66699 0 4 4 4h114c2.66699 0 4.33398 -1.33301 5.00098 -4l80 -173c0.666992 -2.66699 -0.666016 -4 -3.99902 -4h-100z" />
    <glyph glyph-name="eacute" unicode="&#xe9;" horiz-adv-x="420" 
d="M44 0c-2.66699 0 -4 1.66699 -4 5l1 687c0 2.66699 1.33301 4 4 4h321c2.66699 0 4 -1.66699 4 -5v-112c0 -2.66699 -1.33301 -4 -4 -4h-205v-156h205c2.66699 0 4 -1.33301 4 -4l1 -113c0 -2.66699 -1.33301 -4 -4 -4h-206v-175h206c2.66699 0 4 -1.66699 4 -5v-114
c0 -2.66699 -1.33301 -4 -4 -4h-323zM143 747c-3.33301 0 -4.66797 1.33301 -4.00098 4l80 173c0.666992 2.66699 2.33398 4 5.00098 4h114c4 0 5.33301 -1.33301 4 -4l-93 -173c-1.33301 -2.66699 -3.33301 -4 -6 -4h-100z" />
    <glyph glyph-name="ecircumflex" unicode="&#xea;" horiz-adv-x="420" 
d="M44 0c-2.66699 0 -4 1.66699 -4 5l1 687c0 2.66699 1.33301 4 4 4h321c2.66699 0 4 -1.66699 4 -5v-112c0 -2.66699 -1.33301 -4 -4 -4h-205v-156h205c2.66699 0 4 -1.33301 4 -4l1 -113c0 -2.66699 -1.33301 -4 -4 -4h-206v-175h206c2.66699 0 4 -1.66699 4 -5v-114
c0 -2.66699 -1.33301 -4 -4 -4h-323zM13 748c-4 0 -5.33105 1.33301 -3.99805 4l130 153c1.33301 2.66699 3.33301 4 6 4h115c2.66699 0 4.66699 -1.33301 6 -4l130 -153c1.33301 -2.66699 0 -4 -4 -4h-117c-2.66699 0 -4.33398 1.33301 -5.00098 4l-70 87l-71 -87
c-0.666992 -2.66699 -2.33398 -4 -5.00098 -4h-111z" />
    <glyph glyph-name="edieresis" unicode="&#xeb;" horiz-adv-x="420" 
d="M44 0c-2.66699 0 -4 1.66699 -4 5l1 687c0 2.66699 1.33301 4 4 4h321c2.66699 0 4 -1.66699 4 -5v-112c0 -2.66699 -1.33301 -4 -4 -4h-205v-156h205c2.66699 0 4 -1.33301 4 -4l1 -113c0 -2.66699 -1.33301 -4 -4 -4h-206v-175h206c2.66699 0 4 -1.66699 4 -5v-114
c0 -2.66699 -1.33301 -4 -4 -4h-323zM251 764c-2.66699 0 -4 1.33301 -4 4v113c0 2.66699 1.33301 4 4 4h113c2.66699 0 4 -1.33301 4 -4v-113c0 -2.66699 -1.33301 -4 -4 -4h-113zM43 764c-2.66699 0 -4 1.33301 -4 4v113c0 2.66699 1.33301 4 4 4h113
c2.66699 0 4 -1.33301 4 -4v-113c0 -2.66699 -1.33301 -4 -4 -4h-113z" />
    <glyph glyph-name="igrave" unicode="&#xec;" horiz-adv-x="210" 
d="M45 0c-3.33301 0 -5 1.66699 -5 5l1 687c0 2.66699 1.33301 4 4 4h112c2.66699 0 4 -1.33301 4 -4l1 -687c0 -3.33301 -1.33301 -5 -4 -5h-113zM58 747c-2.66699 0 -4.66895 1.33301 -6.00195 4l-93 173c-1.33301 2.66699 0 4 4 4h114
c2.66699 0 4.33398 -1.33301 5.00098 -4l80 -173c0.666992 -2.66699 -0.666016 -4 -3.99902 -4h-100z" />
    <glyph glyph-name="iacute" unicode="&#xed;" horiz-adv-x="210" 
d="M45 0c-3.33301 0 -5 1.66699 -5 5l1 687c0 2.66699 1.33301 4 4 4h112c2.66699 0 4 -1.33301 4 -4l1 -687c0 -3.33301 -1.33301 -5 -4 -5h-113zM44 747c-3.33301 0 -4.66797 1.33301 -4.00098 4l80 173c0.666992 2.66699 2.33398 4 5.00098 4h114
c4 0 5.33301 -1.33301 4 -4l-93 -173c-1.33301 -2.66699 -3.33301 -4 -6 -4h-100z" />
    <glyph glyph-name="icircumflex" unicode="&#xee;" horiz-adv-x="210" 
d="M45 0c-3.33301 0 -5 1.66699 -5 5l1 687c0 2.66699 1.33301 4 4 4h112c2.66699 0 4 -1.33301 4 -4l1 -687c0 -3.33301 -1.33301 -5 -4 -5h-113zM-86 748c-4 0 -5.33105 1.33301 -3.99805 4l130 153c1.33301 2.66699 3.33301 4 6 4h115c2.66699 0 4.66699 -1.33301 6 -4
l130 -153c1.33301 -2.66699 0 -4 -4 -4h-117c-2.66699 0 -4.33398 1.33301 -5.00098 4l-70 87l-71 -87c-0.666992 -2.66699 -2.33398 -4 -5.00098 -4h-111z" />
    <glyph glyph-name="idieresis" unicode="&#xef;" horiz-adv-x="210" 
d="M45 0c-3.33301 0 -5 1.66699 -5 5l1 687c0 2.66699 1.33301 4 4 4h112c2.66699 0 4 -1.33301 4 -4l1 -687c0 -3.33301 -1.33301 -5 -4 -5h-113zM152 764c-2.66699 0 -4 1.33301 -4 4v113c0 2.66699 1.33301 4 4 4h113c2.66699 0 4 -1.33301 4 -4v-113
c0 -2.66699 -1.33301 -4 -4 -4h-113zM-56 764c-2.66699 0 -4 1.33301 -4 4v113c0 2.66699 1.33301 4 4 4h113c2.66699 0 4 -1.33301 4 -4v-113c0 -2.66699 -1.33301 -4 -4 -4h-113z" />
    <glyph glyph-name="eth" unicode="&#xf0;" horiz-adv-x="472" 
d="M45 0c-3.33301 0 -5.00098 1.66992 -5.00098 5.00293l1 305h-51c-2.66699 0 -4 1.66699 -4 5v104c0 3.33301 1.66699 5 5 5h50l1 268c0 2.66699 1.33301 4 4 4l187 1c36.667 0.666992 70.167 -8 100.5 -26s54.5 -42.167 72.5 -72.5s27 -63.833 27 -100.5v-287
c0 -38.667 -9.33301 -73.834 -28 -105.501s-43.667 -56.834 -75 -75.501s-66.666 -28.334 -105.999 -29.001zM161.999 123.003h62c24.667 0 45.5 8.66699 62.5 26s25.5 38 25.5 62v288c0 21.333 -7.83301 39.833 -23.5 55.5s-34.167 23.167 -55.5 22.5l-70 -1v-152h78
c2.66699 0 4 -1.66699 4 -5v-104c0 -3.33301 -1.33301 -5 -4 -5h-79v-187z" />
    <glyph glyph-name="ntilde" unicode="&#xf1;" horiz-adv-x="464" 
d="M49 0c-5.33301 0 -8 2.33301 -8 7l-1 681c0 5.33301 2.66699 8 8 8h90l169 -394l-5 386c0 5.33301 3 8 9 8h99c4 0 6 -2.66699 6 -8l1 -682c0 -4 -1.66699 -6 -5 -6h-88l-173 368l7 -360c0 -5.33301 -3 -8 -9 -8h-100zM305 753c-18.667 0 -35.833 3.50098 -51.5 10.501
s-29.834 14 -42.501 21s-24.667 10.5 -36 10.5c-12.667 0 -22.334 -3.16699 -29.001 -9.5s-10 -14.166 -10 -23.499c0 -2.66699 -1.33301 -4 -4 -4h-90c-2.66699 0 -4 1.33301 -4 4c0 17.333 5.16699 35.166 15.5 53.499s25 33.833 44 46.5s41.833 19 68.5 19
c19.333 0 36.333 -3.16699 51 -9.5s27.834 -12.833 39.501 -19.5s21.834 -10 30.501 -10c9.33301 0 17.5 3 24.5 9s10.5 15.333 10.5 28c0 2.66699 1.33301 4 4 4h90c2.66699 0 4 -1.33301 4 -4c0 -27.333 -5.5 -50.333 -16.5 -69s-25.333 -32.834 -43 -42.501
s-36.167 -14.5 -55.5 -14.5z" />
    <glyph glyph-name="ograve" unicode="&#xf2;" horiz-adv-x="457" 
d="M225 -10c-36 0 -68.832 9.16699 -98.499 27.5s-53.5 42.666 -71.5 72.999s-27 63.833 -27 100.5l1 317c0 36.667 8.83301 70 26.5 100s41.5 54 71.5 72s62.667 27 98 27c36 0 68.667 -9 98 -27s52.833 -42 70.5 -72s26.5 -63.333 26.5 -100l1 -317
c0 -36.667 -8.83301 -70.167 -26.5 -100.5s-41.334 -54.666 -71.001 -72.999s-62.5 -27.5 -98.5 -27.5zM225.001 111c20 0 37.5 8.16699 52.5 24.5s22.5 34.833 22.5 55.5l-1 317c0 22 -7 40.667 -21 56s-31.667 23 -53 23c-20.667 0 -38.334 -7.5 -53.001 -22.5
s-22 -33.833 -22 -56.5v-317c0 -22 7.33301 -40.833 22 -56.5s32.334 -23.5 53.001 -23.5zM178.001 747c-2.66699 0 -4.66895 1.33301 -6.00195 4l-93 173c-1.33301 2.66699 0 4 4 4h114c2.66699 0 4.33398 -1.33301 5.00098 -4l80 -173
c0.666992 -2.66699 -0.666016 -4 -3.99902 -4h-100z" />
    <glyph glyph-name="oacute" unicode="&#xf3;" horiz-adv-x="457" 
d="M225 -10c-36 0 -68.832 9.16699 -98.499 27.5s-53.5 42.666 -71.5 72.999s-27 63.833 -27 100.5l1 317c0 36.667 8.83301 70 26.5 100s41.5 54 71.5 72s62.667 27 98 27c36 0 68.667 -9 98 -27s52.833 -42 70.5 -72s26.5 -63.333 26.5 -100l1 -317
c0 -36.667 -8.83301 -70.167 -26.5 -100.5s-41.334 -54.666 -71.001 -72.999s-62.5 -27.5 -98.5 -27.5zM225.001 111c20 0 37.5 8.16699 52.5 24.5s22.5 34.833 22.5 55.5l-1 317c0 22 -7 40.667 -21 56s-31.667 23 -53 23c-20.667 0 -38.334 -7.5 -53.001 -22.5
s-22 -33.833 -22 -56.5v-317c0 -22 7.33301 -40.833 22 -56.5s32.334 -23.5 53.001 -23.5zM164.001 747c-3.33301 0 -4.66797 1.33301 -4.00098 4l80 173c0.666992 2.66699 2.33398 4 5.00098 4h114c4 0 5.33301 -1.33301 4 -4l-93 -173
c-1.33301 -2.66699 -3.33301 -4 -6 -4h-100z" />
    <glyph glyph-name="ocircumflex" unicode="&#xf4;" horiz-adv-x="457" 
d="M225 -10c-36 0 -68.832 9.16699 -98.499 27.5s-53.5 42.666 -71.5 72.999s-27 63.833 -27 100.5l1 317c0 36.667 8.83301 70 26.5 100s41.5 54 71.5 72s62.667 27 98 27c36 0 68.667 -9 98 -27s52.833 -42 70.5 -72s26.5 -63.333 26.5 -100l1 -317
c0 -36.667 -8.83301 -70.167 -26.5 -100.5s-41.334 -54.666 -71.001 -72.999s-62.5 -27.5 -98.5 -27.5zM225.001 111c20 0 37.5 8.16699 52.5 24.5s22.5 34.833 22.5 55.5l-1 317c0 22 -7 40.667 -21 56s-31.667 23 -53 23c-20.667 0 -38.334 -7.5 -53.001 -22.5
s-22 -33.833 -22 -56.5v-317c0 -22 7.33301 -40.833 22 -56.5s32.334 -23.5 53.001 -23.5zM34.001 748c-4 0 -5.33105 1.33301 -3.99805 4l130 153c1.33301 2.66699 3.33301 4 6 4h115c2.66699 0 4.66699 -1.33301 6 -4l130 -153c1.33301 -2.66699 0 -4 -4 -4h-117
c-2.66699 0 -4.33398 1.33301 -5.00098 4l-70 87l-71 -87c-0.666992 -2.66699 -2.33398 -4 -5.00098 -4h-111z" />
    <glyph glyph-name="otilde" unicode="&#xf5;" horiz-adv-x="458" 
d="M303 753c-18.667 0 -35.833 3.50098 -51.5 10.501s-29.834 14 -42.501 21s-24.667 10.5 -36 10.5c-12.667 0 -22.334 -3.16699 -29.001 -9.5s-10 -14.166 -10 -23.499c0 -2.66699 -1.33301 -4 -4 -4h-90c-2.66699 0 -4 1.33301 -4 4c0 17.333 5.16699 35.166 15.5 53.499
s25 33.833 44 46.5s41.833 19 68.5 19c19.333 0 36.333 -3.16699 51 -9.5s27.834 -12.833 39.501 -19.5s21.834 -10 30.501 -10c9.33301 0 17.5 3 24.5 9s10.5 15.333 10.5 28c0 2.66699 1.33301 4 4 4h90c2.66699 0 4 -1.33301 4 -4c0 -27.333 -5.5 -50.333 -16.5 -69
s-25.333 -32.834 -43 -42.501s-36.167 -14.5 -55.5 -14.5zM225.001 -9.99902c-36 0 -68.832 9.16699 -98.499 27.5s-53.5 42.666 -71.5 72.999s-27 63.833 -27 100.5l1 317c0 36.667 8.83301 70 26.5 100s41.5 54 71.5 72s62.667 27 98 27c36 0 68.667 -9 98 -27
s52.833 -42 70.5 -72s26.5 -63.333 26.5 -100l1 -317c0 -36.667 -8.83301 -70.167 -26.5 -100.5s-41.334 -54.666 -71.001 -72.999s-62.5 -27.5 -98.5 -27.5zM225.002 111.001c20 0 37.5 8.16699 52.5 24.5s22.5 34.833 22.5 55.5l-1 317c0 22 -7 40.667 -21 56
s-31.667 23 -53 23c-20.667 0 -38.334 -7.5 -53.001 -22.5s-22 -33.833 -22 -56.5v-317c0 -22 7.33301 -40.833 22 -56.5s32.334 -23.5 53.001 -23.5z" />
    <glyph glyph-name="odieresis" unicode="&#xf6;" horiz-adv-x="457" 
d="M225 -10c-36 0 -68.832 9.16699 -98.499 27.5s-53.5 42.666 -71.5 72.999s-27 63.833 -27 100.5l1 317c0 36.667 8.83301 70 26.5 100s41.5 54 71.5 72s62.667 27 98 27c36 0 68.667 -9 98 -27s52.833 -42 70.5 -72s26.5 -63.333 26.5 -100l1 -317
c0 -36.667 -8.83301 -70.167 -26.5 -100.5s-41.334 -54.666 -71.001 -72.999s-62.5 -27.5 -98.5 -27.5zM225.001 111c20 0 37.5 8.16699 52.5 24.5s22.5 34.833 22.5 55.5l-1 317c0 22 -7 40.667 -21 56s-31.667 23 -53 23c-20.667 0 -38.334 -7.5 -53.001 -22.5
s-22 -33.833 -22 -56.5v-317c0 -22 7.33301 -40.833 22 -56.5s32.334 -23.5 53.001 -23.5zM272.001 764c-2.66699 0 -4 1.33301 -4 4v113c0 2.66699 1.33301 4 4 4h113c2.66699 0 4 -1.33301 4 -4v-113c0 -2.66699 -1.33301 -4 -4 -4h-113zM64.001 764
c-2.66699 0 -4 1.33301 -4 4v113c0 2.66699 1.33301 4 4 4h113c2.66699 0 4 -1.33301 4 -4v-113c0 -2.66699 -1.33301 -4 -4 -4h-113z" />
    <glyph glyph-name="divide" unicode="&#xf7;" horiz-adv-x="442" 
d="M176 481c-3.33301 0 -5 1.33301 -5 4v97c0 2.66699 1.33301 4 4 4h85c2.66699 0 4 -1.33301 4 -4v-97c0 -2.66699 -1.66699 -4 -5 -4h-83zM29 312c-4 0 -6 1.66699 -6 5v79c0 4 2 6 6 6h384c3.33301 0 5 -2 5 -6v-79c0 -3.33301 -1.66699 -5 -5 -5h-384zM176 128
c-3.33301 0 -5 1.66699 -5 5v96c0 2.66699 1.33301 4 4 4h85c2.66699 0 4 -1.33301 4 -4v-96c0 -3.33301 -1.66699 -5 -5 -5h-83z" />
    <glyph glyph-name="oslash" unicode="&#xf8;" horiz-adv-x="458" 
d="M-21 -37c-1.33301 0 -2.49902 0.667969 -3.49902 2.00098s-1.16699 2.66602 -0.5 3.99902l73 134c-13.333 27.333 -20 56.666 -20 87.999l1 317c0 36.667 8.83301 70 26.5 100s41.5 54 71.5 72s62.667 27 98 27c24.667 0 47.834 -4.33301 69.501 -13
s41.167 -20.667 58.5 -36l39 71c1.33301 2 3.33301 3 6 3h76c5.33301 0 6.66602 -2.66699 3.99902 -8l-74 -136c10.667 -25.333 16 -52 16 -80l1 -317c0 -36.667 -8.83301 -70.167 -26.5 -100.5s-41.334 -54.666 -71.001 -72.999s-62.5 -27.5 -98.5 -27.5
c-23.333 0 -45.5 4 -66.5 12s-40.167 19 -57.5 33l-38 -70c-1.33301 -1.33301 -3 -2 -5 -2h-79zM150.001 508.001l0.00195312 -220.001l141 257c-6 12.667 -14.833 22.834 -26.5 30.501s-24.834 11.5 -39.501 11.5c-20.667 0 -38.334 -7.5 -53.001 -22.5
s-22 -33.833 -22 -56.5zM225.003 111c20 0 37.5 8.16797 52.5 24.501s22.5 34.833 22.5 55.5l-1 206l-136 -250c6.66699 -10.667 15.5 -19.334 26.5 -26.001s22.833 -10 35.5 -10z" />
    <glyph glyph-name="ugrave" unicode="&#xf9;" horiz-adv-x="460" 
d="M224 -10c-35.333 0 -67.9971 9.16602 -97.9971 27.499s-53.833 42.833 -71.5 73.5s-26.5 64.334 -26.5 101.001l2 500c0 2.66699 1.33301 4 4 4h112c2.66699 0 4 -1.33301 4 -4v-500c0 -22.667 7.16699 -41.834 21.5 -57.501s31.833 -23.5 52.5 -23.5
c21.333 0 39.166 7.83301 53.499 23.5s21.5 34.834 21.5 57.501v500c0 2.66699 1.33301 4 4 4h112c2.66699 0 4 -1.33301 4 -4l2 -500c0 -37.333 -8.83301 -71.333 -26.5 -102s-41.334 -55 -71.001 -73s-62.834 -27 -99.501 -27zM176.003 746.999
c-2.66699 0 -4.66895 1.33301 -6.00195 4l-93 173c-1.33301 2.66699 0 4 4 4h114c2.66699 0 4.33398 -1.33301 5.00098 -4l80 -173c0.666992 -2.66699 -0.666016 -4 -3.99902 -4h-100z" />
    <glyph glyph-name="uacute" unicode="&#xfa;" horiz-adv-x="460" 
d="M224 -10c-35.333 0 -67.9971 9.16602 -97.9971 27.499s-53.833 42.833 -71.5 73.5s-26.5 64.334 -26.5 101.001l2 500c0 2.66699 1.33301 4 4 4h112c2.66699 0 4 -1.33301 4 -4v-500c0 -22.667 7.16699 -41.834 21.5 -57.501s31.833 -23.5 52.5 -23.5
c21.333 0 39.166 7.83301 53.499 23.5s21.5 34.834 21.5 57.501v500c0 2.66699 1.33301 4 4 4h112c2.66699 0 4 -1.33301 4 -4l2 -500c0 -37.333 -8.83301 -71.333 -26.5 -102s-41.334 -55 -71.001 -73s-62.834 -27 -99.501 -27zM162.003 746.999
c-3.33301 0 -4.66797 1.33301 -4.00098 4l80 173c0.666992 2.66699 2.33398 4 5.00098 4h114c4 0 5.33301 -1.33301 4 -4l-93 -173c-1.33301 -2.66699 -3.33301 -4 -6 -4h-100z" />
    <glyph glyph-name="ucircumflex" unicode="&#xfb;" horiz-adv-x="460" 
d="M224 -10c-35.333 0 -67.9971 9.16602 -97.9971 27.499s-53.833 42.833 -71.5 73.5s-26.5 64.334 -26.5 101.001l2 500c0 2.66699 1.33301 4 4 4h112c2.66699 0 4 -1.33301 4 -4v-500c0 -22.667 7.16699 -41.834 21.5 -57.501s31.833 -23.5 52.5 -23.5
c21.333 0 39.166 7.83301 53.499 23.5s21.5 34.834 21.5 57.501v500c0 2.66699 1.33301 4 4 4h112c2.66699 0 4 -1.33301 4 -4l2 -500c0 -37.333 -8.83301 -71.333 -26.5 -102s-41.334 -55 -71.001 -73s-62.834 -27 -99.501 -27zM32.0029 747.999
c-4 0 -5.33105 1.33301 -3.99805 4l130 153c1.33301 2.66699 3.33301 4 6 4h115c2.66699 0 4.66699 -1.33301 6 -4l130 -153c1.33301 -2.66699 0 -4 -4 -4h-117c-2.66699 0 -4.33398 1.33301 -5.00098 4l-70 87l-71 -87c-0.666992 -2.66699 -2.33398 -4 -5.00098 -4h-111z
" />
    <glyph glyph-name="udieresis" unicode="&#xfc;" horiz-adv-x="460" 
d="M224 -10c-35.333 0 -67.9971 9.16602 -97.9971 27.499s-53.833 42.833 -71.5 73.5s-26.5 64.334 -26.5 101.001l2 500c0 2.66699 1.33301 4 4 4h112c2.66699 0 4 -1.33301 4 -4v-500c0 -22.667 7.16699 -41.834 21.5 -57.501s31.833 -23.5 52.5 -23.5
c21.333 0 39.166 7.83301 53.499 23.5s21.5 34.834 21.5 57.501v500c0 2.66699 1.33301 4 4 4h112c2.66699 0 4 -1.33301 4 -4l2 -500c0 -37.333 -8.83301 -71.333 -26.5 -102s-41.334 -55 -71.001 -73s-62.834 -27 -99.501 -27zM270.003 763.999
c-2.66699 0 -4 1.33301 -4 4v113c0 2.66699 1.33301 4 4 4h113c2.66699 0 4 -1.33301 4 -4v-113c0 -2.66699 -1.33301 -4 -4 -4h-113zM62.0029 763.999c-2.66699 0 -4 1.33301 -4 4v113c0 2.66699 1.33301 4 4 4h113c2.66699 0 4 -1.33301 4 -4v-113
c0 -2.66699 -1.33301 -4 -4 -4h-113z" />
    <glyph glyph-name="yacute" unicode="&#xfd;" horiz-adv-x="401" 
d="M133 0c-2 0 -3.00098 1.33301 -3.00098 4l1 284l-134 404c-0.666992 2.66699 0.333008 4 3 4h111c3.33301 0 5.33301 -1.33301 6 -4l74 -269l75 269c0.666992 2.66699 2.33398 4 5.00098 4h112c2.66699 0 3.66699 -1.33301 3 -4l-135 -400l1 -288
c0 -2.66699 -1.33301 -4 -4 -4h-115zM129.999 747c-3.33301 0 -4.66797 1.33301 -4.00098 4l80 173c0.666992 2.66699 2.33398 4 5.00098 4h114c4 0 5.33301 -1.33301 4 -4l-93 -173c-1.33301 -2.66699 -3.33301 -4 -6 -4h-100z" />
    <glyph glyph-name="thorn" unicode="&#xfe;" horiz-adv-x="458" 
d="M45 0c-3.33301 0 -5 1.66797 -5 5.00098l2 687c0 2.66699 1.33301 4 4 4h110c4 0 6 -2 6 -6v-110h77c61.333 0 109.833 -18.667 145.5 -56s53.5 -88 53.5 -152c0 -46.667 -9.33301 -87.334 -28 -122.001s-43.167 -61.5 -73.5 -80.5s-62.833 -28.5 -97.5 -28.5h-77v-136
c0 -3.33301 -1.66699 -5 -5 -5h-112zM162 262.001h77c21.333 0 39.833 10.167 55.5 30.5s23.5 46.833 23.5 79.5c0 26 -7 47.5 -21 64.5s-33.333 25.167 -58 24.5l-77 -1v-198z" />
    <glyph glyph-name="ydieresis" unicode="&#xff;" horiz-adv-x="401" 
d="M133 0c-2 0 -3.00098 1.33301 -3.00098 4l1 284l-134 404c-0.666992 2.66699 0.333008 4 3 4h111c3.33301 0 5.33301 -1.33301 6 -4l74 -269l75 269c0.666992 2.66699 2.33398 4 5.00098 4h112c2.66699 0 3.66699 -1.33301 3 -4l-135 -400l1 -288
c0 -2.66699 -1.33301 -4 -4 -4h-115zM237.999 764c-2.66699 0 -4 1.33301 -4 4v113c0 2.66699 1.33301 4 4 4h113c2.66699 0 4 -1.33301 4 -4v-113c0 -2.66699 -1.33301 -4 -4 -4h-113zM29.999 764c-2.66699 0 -4 1.33301 -4 4v113c0 2.66699 1.33301 4 4 4h113
c2.66699 0 4 -1.33301 4 -4v-113c0 -2.66699 -1.33301 -4 -4 -4h-113z" />
    <glyph glyph-name="Amacron" unicode="&#x100;" horiz-adv-x="427" 
d="M6 5l123.999 687c0.666992 2.66699 2.33398 4 5.00098 4h145c2.66699 0 4.33398 -1.33301 5.00098 -4l119 -687c0.666992 -3.33301 -0.666016 -5 -3.99902 -5h-111c-2.66699 0 -4.33398 1.66699 -5.00098 5l-11 73h-136l-11 -73
c-0.666992 -3.33301 -2.33398 -5 -5.00098 -5h-111c-2.66699 0 -4 1.66699 -4 5zM156.999 185h96l-41 281l-6 37l-4 -37zM52.999 772c-2.66699 0 -4 1.33301 -4 4v81c0 2.66699 1.33301 4 4 4h299c2.66699 0 4 -1.33301 4 -4v-81c0 -2.66699 -1.33301 -4 -4 -4h-299z" />
    <glyph glyph-name="amacron" unicode="&#x101;" horiz-adv-x="427" 
d="M6 5l123.999 687c0.666992 2.66699 2.33398 4 5.00098 4h145c2.66699 0 4.33398 -1.33301 5.00098 -4l119 -687c0.666992 -3.33301 -0.666016 -5 -3.99902 -5h-111c-2.66699 0 -4.33398 1.66699 -5.00098 5l-11 73h-136l-11 -73
c-0.666992 -3.33301 -2.33398 -5 -5.00098 -5h-111c-2.66699 0 -4 1.66699 -4 5zM156.999 185h96l-41 281l-6 37l-4 -37zM52.999 772c-2.66699 0 -4 1.33301 -4 4v81c0 2.66699 1.33301 4 4 4h299c2.66699 0 4 -1.33301 4 -4v-81c0 -2.66699 -1.33301 -4 -4 -4h-299z" />
    <glyph glyph-name="Abreve" unicode="&#x102;" horiz-adv-x="427" 
d="M6 5l123.999 687c0.666992 2.66699 2.33398 4 5.00098 4h145c2.66699 0 4.33398 -1.33301 5.00098 -4l119 -687c0.666992 -3.33301 -0.666016 -5 -3.99902 -5h-111c-2.66699 0 -4.33398 1.66699 -5.00098 5l-11 73h-136l-11 -73
c-0.666992 -3.33301 -2.33398 -5 -5.00098 -5h-111c-2.66699 0 -4 1.66699 -4 5zM156.999 185h96l-41 281l-6 37l-4 -37zM203.999 747c-32 0 -60.832 7.00195 -86.499 21.002s-46 32.333 -61 55s-22.5 47 -22.5 73c-1.33301 2.66699 0 4 4 4h90
c0 -18.667 7.5 -35.5 22.5 -50.5s33.833 -22.5 56.5 -22.5c23.333 0 42.5 7.5 57.5 22.5s22.5 31.833 22.5 50.5h90c2.66699 0 4 -1.33301 4 -4c0 -26.667 -7.83301 -51.334 -23.5 -74.001s-36.834 -40.834 -63.501 -54.501s-56.667 -20.5 -90 -20.5z" />
    <glyph glyph-name="abreve" unicode="&#x103;" horiz-adv-x="427" 
d="M6 5l123.999 687c0.666992 2.66699 2.33398 4 5.00098 4h145c2.66699 0 4.33398 -1.33301 5.00098 -4l119 -687c0.666992 -3.33301 -0.666016 -5 -3.99902 -5h-111c-2.66699 0 -4.33398 1.66699 -5.00098 5l-11 73h-136l-11 -73
c-0.666992 -3.33301 -2.33398 -5 -5.00098 -5h-111c-2.66699 0 -4 1.66699 -4 5zM156.999 185h96l-41 281l-6 37l-4 -37zM203.999 747c-32 0 -60.832 7.00195 -86.499 21.002s-46 32.333 -61 55s-22.5 47 -22.5 73c-1.33301 2.66699 0 4 4 4h90
c0 -18.667 7.5 -35.5 22.5 -50.5s33.833 -22.5 56.5 -22.5c23.333 0 42.5 7.5 57.5 22.5s22.5 31.833 22.5 50.5h90c2.66699 0 4 -1.33301 4 -4c0 -26.667 -7.83301 -51.334 -23.5 -74.001s-36.834 -40.834 -63.501 -54.501s-56.667 -20.5 -90 -20.5z" />
    <glyph glyph-name="Aogonek" unicode="&#x104;" horiz-adv-x="427" 
d="M6 5l123.999 687c0.666992 2.66699 2.33398 4 5.00098 4h145c2.66699 0 4.33398 -1.33301 5.00098 -4l119 -687c0.666992 -3.33301 -0.666016 -5 -3.99902 -5h-111c-2.66699 0 -4.33398 1.66699 -5.00098 5l-11 73h-136l-11 -73
c-0.666992 -3.33301 -2.33398 -5 -5.00098 -5h-111c-2.66699 0 -4 1.66699 -4 5zM156.999 185h96l-41 281l-6 37l-4 -37zM395.999 -295c-47.333 0 -85.667 7.33105 -115 21.998s-50.833 34.334 -64.5 59.001s-20.5 51.334 -20.5 80.001c0 41.333 15.5 76.5 46.5 105.5
s71.167 53.167 120.5 72.5l37 -44c-40.667 -20.667 -67.5 -39 -80.5 -55s-19.5 -33.667 -19.5 -53c0 -20.667 8 -37.167 24 -49.5s39.667 -18.5 71 -18.5c2 0 3.33301 -0.833008 4 -2.5s1 -5.16699 1 -10.5l1 -98c0 -5.33301 -1.66699 -8 -5 -8z" />
    <glyph glyph-name="aogonek" unicode="&#x105;" horiz-adv-x="427" 
d="M6 5l123.999 687c0.666992 2.66699 2.33398 4 5.00098 4h145c2.66699 0 4.33398 -1.33301 5.00098 -4l119 -687c0.666992 -3.33301 -0.666016 -5 -3.99902 -5h-111c-2.66699 0 -4.33398 1.66699 -5.00098 5l-11 73h-136l-11 -73
c-0.666992 -3.33301 -2.33398 -5 -5.00098 -5h-111c-2.66699 0 -4 1.66699 -4 5zM156.999 185h96l-41 281l-6 37l-4 -37zM395.999 -295c-47.333 0 -85.667 7.33105 -115 21.998s-50.833 34.334 -64.5 59.001s-20.5 51.334 -20.5 80.001c0 41.333 15.5 76.5 46.5 105.5
s71.167 53.167 120.5 72.5l37 -44c-40.667 -20.667 -67.5 -39 -80.5 -55s-19.5 -33.667 -19.5 -53c0 -20.667 8 -37.167 24 -49.5s39.667 -18.5 71 -18.5c2 0 3.33301 -0.833008 4 -2.5s1 -5.16699 1 -10.5l1 -98c0 -5.33301 -1.66699 -8 -5 -8z" />
    <glyph glyph-name="Cacute" unicode="&#x106;" horiz-adv-x="453" 
d="M224 -10c-36.667 0 -69.833 9.16602 -99.5 27.499s-53.167 42.833 -70.5 73.5s-26 65 -26 103l1 312c0 36.667 8.5 70.167 25.5 100.5s40.333 54.666 70 72.999s62.834 27.5 99.501 27.5s69.667 -9 99 -27s52.666 -42.167 69.999 -72.5s26 -64.166 26 -101.499v-46
c0 -2.66699 -1.33301 -4 -4 -4h-112c-2.66699 0 -4 1.33301 -4 4v46c0 22 -7.16699 41 -21.5 57s-32.166 24 -53.499 24c-24 0 -42.333 -8.16699 -55 -24.5s-19 -35.166 -19 -56.499v-312c0 -24.667 7.16699 -44.667 21.5 -60s31.833 -23 52.5 -23
c21.333 0 39.166 8.5 53.499 25.5s21.5 36.167 21.5 57.5v46c0 2.66699 1.33301 4 4 4h113c2.66699 0 4 -1.33301 4 -4v-46c0 -38 -8.83301 -72.333 -26.5 -103s-41.167 -55.167 -70.5 -73.5s-62.333 -27.5 -99 -27.5zM165.001 746.999
c-3.33301 0 -4.66797 1.33301 -4.00098 4l80 173c0.666992 2.66699 2.33398 4 5.00098 4h114c4 0 5.33301 -1.33301 4 -4l-93 -173c-1.33301 -2.66699 -3.33301 -4 -6 -4h-100z" />
    <glyph glyph-name="cacute" unicode="&#x107;" horiz-adv-x="453" 
d="M224 -10c-36.667 0 -69.833 9.16602 -99.5 27.499s-53.167 42.833 -70.5 73.5s-26 65 -26 103l1 312c0 36.667 8.5 70.167 25.5 100.5s40.333 54.666 70 72.999s62.834 27.5 99.501 27.5s69.667 -9 99 -27s52.666 -42.167 69.999 -72.5s26 -64.166 26 -101.499v-46
c0 -2.66699 -1.33301 -4 -4 -4h-112c-2.66699 0 -4 1.33301 -4 4v46c0 22 -7.16699 41 -21.5 57s-32.166 24 -53.499 24c-24 0 -42.333 -8.16699 -55 -24.5s-19 -35.166 -19 -56.499v-312c0 -24.667 7.16699 -44.667 21.5 -60s31.833 -23 52.5 -23
c21.333 0 39.166 8.5 53.499 25.5s21.5 36.167 21.5 57.5v46c0 2.66699 1.33301 4 4 4h113c2.66699 0 4 -1.33301 4 -4v-46c0 -38 -8.83301 -72.333 -26.5 -103s-41.167 -55.167 -70.5 -73.5s-62.333 -27.5 -99 -27.5zM165.001 746.999
c-3.33301 0 -4.66797 1.33301 -4.00098 4l80 173c0.666992 2.66699 2.33398 4 5.00098 4h114c4 0 5.33301 -1.33301 4 -4l-93 -173c-1.33301 -2.66699 -3.33301 -4 -6 -4h-100z" />
    <glyph glyph-name="Ccircumflex" unicode="&#x108;" horiz-adv-x="453" 
d="M224 -10c-36.667 0 -69.833 9.16602 -99.5 27.499s-53.167 42.833 -70.5 73.5s-26 65 -26 103l1 312c0 36.667 8.5 70.167 25.5 100.5s40.333 54.666 70 72.999s62.834 27.5 99.501 27.5s69.667 -9 99 -27s52.666 -42.167 69.999 -72.5s26 -64.166 26 -101.499v-46
c0 -2.66699 -1.33301 -4 -4 -4h-112c-2.66699 0 -4 1.33301 -4 4v46c0 22 -7.16699 41 -21.5 57s-32.166 24 -53.499 24c-24 0 -42.333 -8.16699 -55 -24.5s-19 -35.166 -19 -56.499v-312c0 -24.667 7.16699 -44.667 21.5 -60s31.833 -23 52.5 -23
c21.333 0 39.166 8.5 53.499 25.5s21.5 36.167 21.5 57.5v46c0 2.66699 1.33301 4 4 4h113c2.66699 0 4 -1.33301 4 -4v-46c0 -38 -8.83301 -72.333 -26.5 -103s-41.167 -55.167 -70.5 -73.5s-62.333 -27.5 -99 -27.5zM35.001 747.999c-4 0 -5.33105 1.33301 -3.99805 4
l130 153c1.33301 2.66699 3.33301 4 6 4h115c2.66699 0 4.66699 -1.33301 6 -4l130 -153c1.33301 -2.66699 0 -4 -4 -4h-117c-2.66699 0 -4.33398 1.33301 -5.00098 4l-70 87l-71 -87c-0.666992 -2.66699 -2.33398 -4 -5.00098 -4h-111z" />
    <glyph glyph-name="ccircumflex" unicode="&#x109;" horiz-adv-x="453" 
d="M224 -10c-36.667 0 -69.833 9.16602 -99.5 27.499s-53.167 42.833 -70.5 73.5s-26 65 -26 103l1 312c0 36.667 8.5 70.167 25.5 100.5s40.333 54.666 70 72.999s62.834 27.5 99.501 27.5s69.667 -9 99 -27s52.666 -42.167 69.999 -72.5s26 -64.166 26 -101.499v-46
c0 -2.66699 -1.33301 -4 -4 -4h-112c-2.66699 0 -4 1.33301 -4 4v46c0 22 -7.16699 41 -21.5 57s-32.166 24 -53.499 24c-24 0 -42.333 -8.16699 -55 -24.5s-19 -35.166 -19 -56.499v-312c0 -24.667 7.16699 -44.667 21.5 -60s31.833 -23 52.5 -23
c21.333 0 39.166 8.5 53.499 25.5s21.5 36.167 21.5 57.5v46c0 2.66699 1.33301 4 4 4h113c2.66699 0 4 -1.33301 4 -4v-46c0 -38 -8.83301 -72.333 -26.5 -103s-41.167 -55.167 -70.5 -73.5s-62.333 -27.5 -99 -27.5zM35.001 747.999c-4 0 -5.33105 1.33301 -3.99805 4
l130 153c1.33301 2.66699 3.33301 4 6 4h115c2.66699 0 4.66699 -1.33301 6 -4l130 -153c1.33301 -2.66699 0 -4 -4 -4h-117c-2.66699 0 -4.33398 1.33301 -5.00098 4l-70 87l-71 -87c-0.666992 -2.66699 -2.33398 -4 -5.00098 -4h-111z" />
    <glyph glyph-name="Cdotaccent" unicode="&#x10a;" horiz-adv-x="453" 
d="M224 -10c-36.667 0 -69.833 9.16602 -99.5 27.499s-53.167 42.833 -70.5 73.5s-26 65 -26 103l1 312c0 36.667 8.5 70.167 25.5 100.5s40.333 54.666 70 72.999s62.834 27.5 99.501 27.5s69.667 -9 99 -27s52.666 -42.167 69.999 -72.5s26 -64.166 26 -101.499v-46
c0 -2.66699 -1.33301 -4 -4 -4h-112c-2.66699 0 -4 1.33301 -4 4v46c0 22 -7.16699 41 -21.5 57s-32.166 24 -53.499 24c-24 0 -42.333 -8.16699 -55 -24.5s-19 -35.166 -19 -56.499v-312c0 -24.667 7.16699 -44.667 21.5 -60s31.833 -23 52.5 -23
c21.333 0 39.166 8.5 53.499 25.5s21.5 36.167 21.5 57.5v46c0 2.66699 1.33301 4 4 4h113c2.66699 0 4 -1.33301 4 -4v-46c0 -38 -8.83301 -72.333 -26.5 -103s-41.167 -55.167 -70.5 -73.5s-62.333 -27.5 -99 -27.5zM167.001 763.999c-2.66699 0 -4 1.33301 -4 4v113
c0 2.66699 1.33301 4 4 4h113c2.66699 0 4 -1.33301 4 -4v-113c0 -2.66699 -1.33301 -4 -4 -4h-113z" />
    <glyph glyph-name="cdotaccent" unicode="&#x10b;" horiz-adv-x="453" 
d="M224 -10c-36.667 0 -69.833 9.16602 -99.5 27.499s-53.167 42.833 -70.5 73.5s-26 65 -26 103l1 312c0 36.667 8.5 70.167 25.5 100.5s40.333 54.666 70 72.999s62.834 27.5 99.501 27.5s69.667 -9 99 -27s52.666 -42.167 69.999 -72.5s26 -64.166 26 -101.499v-46
c0 -2.66699 -1.33301 -4 -4 -4h-112c-2.66699 0 -4 1.33301 -4 4v46c0 22 -7.16699 41 -21.5 57s-32.166 24 -53.499 24c-24 0 -42.333 -8.16699 -55 -24.5s-19 -35.166 -19 -56.499v-312c0 -24.667 7.16699 -44.667 21.5 -60s31.833 -23 52.5 -23
c21.333 0 39.166 8.5 53.499 25.5s21.5 36.167 21.5 57.5v46c0 2.66699 1.33301 4 4 4h113c2.66699 0 4 -1.33301 4 -4v-46c0 -38 -8.83301 -72.333 -26.5 -103s-41.167 -55.167 -70.5 -73.5s-62.333 -27.5 -99 -27.5zM167.001 763.999c-2.66699 0 -4 1.33301 -4 4v113
c0 2.66699 1.33301 4 4 4h113c2.66699 0 4 -1.33301 4 -4v-113c0 -2.66699 -1.33301 -4 -4 -4h-113z" />
    <glyph glyph-name="Ccaron" unicode="&#x10c;" horiz-adv-x="453" 
d="M224 -10c-36.667 0 -69.833 9.16602 -99.5 27.499s-53.167 42.833 -70.5 73.5s-26 65 -26 103l1 312c0 36.667 8.5 70.167 25.5 100.5s40.333 54.666 70 72.999s62.834 27.5 99.501 27.5s69.667 -9 99 -27s52.666 -42.167 69.999 -72.5s26 -64.166 26 -101.499v-46
c0 -2.66699 -1.33301 -4 -4 -4h-112c-2.66699 0 -4 1.33301 -4 4v46c0 22 -7.16699 41 -21.5 57s-32.166 24 -53.499 24c-24 0 -42.333 -8.16699 -55 -24.5s-19 -35.166 -19 -56.499v-312c0 -24.667 7.16699 -44.667 21.5 -60s31.833 -23 52.5 -23
c21.333 0 39.166 8.5 53.499 25.5s21.5 36.167 21.5 57.5v46c0 2.66699 1.33301 4 4 4h113c2.66699 0 4 -1.33301 4 -4v-46c0 -38 -8.83301 -72.333 -26.5 -103s-41.167 -55.167 -70.5 -73.5s-62.333 -27.5 -99 -27.5zM167.001 749.999
c-2.66699 0 -4.66895 1.33301 -6.00195 4l-130 153c-1.33301 2.66699 0 4 4 4h114c2.66699 0 4.33398 -1.33301 5.00098 -4l70 -87l71 87c0.666992 2.66699 2.33398 4 5.00098 4h114c4 0 5.33301 -1.33301 4 -4l-130 -153c-1.33301 -2.66699 -3.33301 -4 -6 -4h-115z" />
    <glyph glyph-name="ccaron" unicode="&#x10d;" horiz-adv-x="453" 
d="M224 -10c-36.667 0 -69.833 9.16602 -99.5 27.499s-53.167 42.833 -70.5 73.5s-26 65 -26 103l1 312c0 36.667 8.5 70.167 25.5 100.5s40.333 54.666 70 72.999s62.834 27.5 99.501 27.5s69.667 -9 99 -27s52.666 -42.167 69.999 -72.5s26 -64.166 26 -101.499v-46
c0 -2.66699 -1.33301 -4 -4 -4h-112c-2.66699 0 -4 1.33301 -4 4v46c0 22 -7.16699 41 -21.5 57s-32.166 24 -53.499 24c-24 0 -42.333 -8.16699 -55 -24.5s-19 -35.166 -19 -56.499v-312c0 -24.667 7.16699 -44.667 21.5 -60s31.833 -23 52.5 -23
c21.333 0 39.166 8.5 53.499 25.5s21.5 36.167 21.5 57.5v46c0 2.66699 1.33301 4 4 4h113c2.66699 0 4 -1.33301 4 -4v-46c0 -38 -8.83301 -72.333 -26.5 -103s-41.167 -55.167 -70.5 -73.5s-62.333 -27.5 -99 -27.5zM167.001 749.999
c-2.66699 0 -4.66895 1.33301 -6.00195 4l-130 153c-1.33301 2.66699 0 4 4 4h114c2.66699 0 4.33398 -1.33301 5.00098 -4l70 -87l71 87c0.666992 2.66699 2.33398 4 5.00098 4h114c4 0 5.33301 -1.33301 4 -4l-130 -153c-1.33301 -2.66699 -3.33301 -4 -6 -4h-115z" />
    <glyph glyph-name="Dcaron" unicode="&#x10e;" horiz-adv-x="472" 
d="M45 0c-3.33301 0 -5.00098 1.66992 -5.00098 5.00293l2 687c0 2.66699 1.33301 4 4 4l187 1c36.667 0.666992 70.167 -8 100.5 -26s54.5 -42.167 72.5 -72.5s27 -63.833 27 -100.5v-287c0 -38.667 -9.33301 -73.834 -28 -105.501s-43.667 -56.834 -75 -75.501
s-66.666 -28.334 -105.999 -29.001zM161.999 123.003h62c24.667 0 45.5 8.66699 62.5 26s25.5 38 25.5 62v288c0 21.333 -7.83301 39.833 -23.5 55.5s-34.167 23.167 -55.5 22.5l-70 -1zM162.999 750.003c-2.66699 0 -4.66895 1.33301 -6.00195 4l-130 153
c-1.33301 2.66699 0 4 4 4h114c2.66699 0 4.33398 -1.33301 5.00098 -4l70 -87l71 87c0.666992 2.66699 2.33398 4 5.00098 4h114c4 0 5.33301 -1.33301 4 -4l-130 -153c-1.33301 -2.66699 -3.33301 -4 -6 -4h-115z" />
    <glyph glyph-name="dcaron" unicode="&#x10f;" horiz-adv-x="472" 
d="M45 0c-3.33301 0 -5.00098 1.66992 -5.00098 5.00293l2 687c0 2.66699 1.33301 4 4 4l187 1c36.667 0.666992 70.167 -8 100.5 -26s54.5 -42.167 72.5 -72.5s27 -63.833 27 -100.5v-287c0 -38.667 -9.33301 -73.834 -28 -105.501s-43.667 -56.834 -75 -75.501
s-66.666 -28.334 -105.999 -29.001zM161.999 123.003h62c24.667 0 45.5 8.66699 62.5 26s25.5 38 25.5 62v288c0 21.333 -7.83301 39.833 -23.5 55.5s-34.167 23.167 -55.5 22.5l-70 -1zM162.999 750.003c-2.66699 0 -4.66895 1.33301 -6.00195 4l-130 153
c-1.33301 2.66699 0 4 4 4h114c2.66699 0 4.33398 -1.33301 5.00098 -4l70 -87l71 87c0.666992 2.66699 2.33398 4 5.00098 4h114c4 0 5.33301 -1.33301 4 -4l-130 -153c-1.33301 -2.66699 -3.33301 -4 -6 -4h-115z" />
    <glyph glyph-name="Dcroat" unicode="&#x110;" horiz-adv-x="472" 
d="M45 0c-3.33301 0 -5.00098 1.66992 -5.00098 5.00293l1 305h-51c-2.66699 0 -4 1.66699 -4 5v104c0 3.33301 1.66699 5 5 5h50l1 268c0 2.66699 1.33301 4 4 4l187 1c36.667 0.666992 70.167 -8 100.5 -26s54.5 -42.167 72.5 -72.5s27 -63.833 27 -100.5v-287
c0 -38.667 -9.33301 -73.834 -28 -105.501s-43.667 -56.834 -75 -75.501s-66.666 -28.334 -105.999 -29.001zM161.999 123.003h62c24.667 0 45.5 8.66699 62.5 26s25.5 38 25.5 62v288c0 21.333 -7.83301 39.833 -23.5 55.5s-34.167 23.167 -55.5 22.5l-70 -1v-152h78
c2.66699 0 4 -1.66699 4 -5v-104c0 -3.33301 -1.33301 -5 -4 -5h-79v-187z" />
    <glyph glyph-name="dcroat" unicode="&#x111;" horiz-adv-x="472" 
d="M45 0c-3.33301 0 -5.00098 1.66992 -5.00098 5.00293l1 305h-51c-2.66699 0 -4 1.66699 -4 5v104c0 3.33301 1.66699 5 5 5h50l1 268c0 2.66699 1.33301 4 4 4l187 1c36.667 0.666992 70.167 -8 100.5 -26s54.5 -42.167 72.5 -72.5s27 -63.833 27 -100.5v-287
c0 -38.667 -9.33301 -73.834 -28 -105.501s-43.667 -56.834 -75 -75.501s-66.666 -28.334 -105.999 -29.001zM161.999 123.003h62c24.667 0 45.5 8.66699 62.5 26s25.5 38 25.5 62v288c0 21.333 -7.83301 39.833 -23.5 55.5s-34.167 23.167 -55.5 22.5l-70 -1v-152h78
c2.66699 0 4 -1.66699 4 -5v-104c0 -3.33301 -1.33301 -5 -4 -5h-79v-187z" />
    <glyph glyph-name="Emacron" unicode="&#x112;" horiz-adv-x="420" 
d="M44 0c-2.66699 0 -4 1.66699 -4 5l1 687c0 2.66699 1.33301 4 4 4h321c2.66699 0 4 -1.66699 4 -5v-112c0 -2.66699 -1.33301 -4 -4 -4h-205v-156h205c2.66699 0 4 -1.33301 4 -4l1 -113c0 -2.66699 -1.33301 -4 -4 -4h-206v-175h206c2.66699 0 4 -1.66699 4 -5v-114
c0 -2.66699 -1.33301 -4 -4 -4h-323zM51 772c-2.66699 0 -4 1.33301 -4 4v81c0 2.66699 1.33301 4 4 4h299c2.66699 0 4 -1.33301 4 -4v-81c0 -2.66699 -1.33301 -4 -4 -4h-299z" />
    <glyph glyph-name="emacron" unicode="&#x113;" horiz-adv-x="420" 
d="M44 0c-2.66699 0 -4 1.66699 -4 5l1 687c0 2.66699 1.33301 4 4 4h321c2.66699 0 4 -1.66699 4 -5v-112c0 -2.66699 -1.33301 -4 -4 -4h-205v-156h205c2.66699 0 4 -1.33301 4 -4l1 -113c0 -2.66699 -1.33301 -4 -4 -4h-206v-175h206c2.66699 0 4 -1.66699 4 -5v-114
c0 -2.66699 -1.33301 -4 -4 -4h-323zM51 772c-2.66699 0 -4 1.33301 -4 4v81c0 2.66699 1.33301 4 4 4h299c2.66699 0 4 -1.33301 4 -4v-81c0 -2.66699 -1.33301 -4 -4 -4h-299z" />
    <glyph glyph-name="Ebreve" unicode="&#x114;" horiz-adv-x="420" 
d="M44 0c-2.66699 0 -4 1.66699 -4 5l1 687c0 2.66699 1.33301 4 4 4h321c2.66699 0 4 -1.66699 4 -5v-112c0 -2.66699 -1.33301 -4 -4 -4h-205v-156h205c2.66699 0 4 -1.33301 4 -4l1 -113c0 -2.66699 -1.33301 -4 -4 -4h-206v-175h206c2.66699 0 4 -1.66699 4 -5v-114
c0 -2.66699 -1.33301 -4 -4 -4h-323zM202 747c-32 0 -60.832 7.00195 -86.499 21.002s-46 32.333 -61 55s-22.5 47 -22.5 73c-1.33301 2.66699 0 4 4 4h90c0 -18.667 7.5 -35.5 22.5 -50.5s33.833 -22.5 56.5 -22.5c23.333 0 42.5 7.5 57.5 22.5s22.5 31.833 22.5 50.5h90
c2.66699 0 4 -1.33301 4 -4c0 -26.667 -7.83301 -51.334 -23.5 -74.001s-36.834 -40.834 -63.501 -54.501s-56.667 -20.5 -90 -20.5z" />
    <glyph glyph-name="ebreve" unicode="&#x115;" horiz-adv-x="420" 
d="M44 0c-2.66699 0 -4 1.66699 -4 5l1 687c0 2.66699 1.33301 4 4 4h321c2.66699 0 4 -1.66699 4 -5v-112c0 -2.66699 -1.33301 -4 -4 -4h-205v-156h205c2.66699 0 4 -1.33301 4 -4l1 -113c0 -2.66699 -1.33301 -4 -4 -4h-206v-175h206c2.66699 0 4 -1.66699 4 -5v-114
c0 -2.66699 -1.33301 -4 -4 -4h-323zM202 747c-32 0 -60.832 7.00195 -86.499 21.002s-46 32.333 -61 55s-22.5 47 -22.5 73c-1.33301 2.66699 0 4 4 4h90c0 -18.667 7.5 -35.5 22.5 -50.5s33.833 -22.5 56.5 -22.5c23.333 0 42.5 7.5 57.5 22.5s22.5 31.833 22.5 50.5h90
c2.66699 0 4 -1.33301 4 -4c0 -26.667 -7.83301 -51.334 -23.5 -74.001s-36.834 -40.834 -63.501 -54.501s-56.667 -20.5 -90 -20.5z" />
    <glyph glyph-name="Edotaccent" unicode="&#x116;" horiz-adv-x="420" 
d="M44 0c-2.66699 0 -4 1.66699 -4 5l1 687c0 2.66699 1.33301 4 4 4h321c2.66699 0 4 -1.66699 4 -5v-112c0 -2.66699 -1.33301 -4 -4 -4h-205v-156h205c2.66699 0 4 -1.33301 4 -4l1 -113c0 -2.66699 -1.33301 -4 -4 -4h-206v-175h206c2.66699 0 4 -1.66699 4 -5v-114
c0 -2.66699 -1.33301 -4 -4 -4h-323zM145 764c-2.66699 0 -4 1.33301 -4 4v113c0 2.66699 1.33301 4 4 4h113c2.66699 0 4 -1.33301 4 -4v-113c0 -2.66699 -1.33301 -4 -4 -4h-113z" />
    <glyph glyph-name="edotaccent" unicode="&#x117;" horiz-adv-x="420" 
d="M44 0c-2.66699 0 -4 1.66699 -4 5l1 687c0 2.66699 1.33301 4 4 4h321c2.66699 0 4 -1.66699 4 -5v-112c0 -2.66699 -1.33301 -4 -4 -4h-205v-156h205c2.66699 0 4 -1.33301 4 -4l1 -113c0 -2.66699 -1.33301 -4 -4 -4h-206v-175h206c2.66699 0 4 -1.66699 4 -5v-114
c0 -2.66699 -1.33301 -4 -4 -4h-323zM145 764c-2.66699 0 -4 1.33301 -4 4v113c0 2.66699 1.33301 4 4 4h113c2.66699 0 4 -1.33301 4 -4v-113c0 -2.66699 -1.33301 -4 -4 -4h-113z" />
    <glyph glyph-name="Eogonek" unicode="&#x118;" horiz-adv-x="420" 
d="M44 0c-2.66699 0 -4 1.66699 -4 5l1 687c0 2.66699 1.33301 4 4 4h321c2.66699 0 4 -1.66699 4 -5v-112c0 -2.66699 -1.33301 -4 -4 -4h-205v-156h205c2.66699 0 4 -1.33301 4 -4l1 -113c0 -2.66699 -1.33301 -4 -4 -4h-206v-175h206c2.66699 0 4 -1.66699 4 -5v-114
c0 -2.66699 -1.33301 -4 -4 -4h-323zM364 -295c-47.333 0 -85.667 7.33105 -115 21.998s-50.833 34.334 -64.5 59.001s-20.5 51.334 -20.5 80.001c0 41.333 15.5 76.5 46.5 105.5s71.167 53.167 120.5 72.5l37 -44c-40.667 -20.667 -67.5 -39 -80.5 -55
s-19.5 -33.667 -19.5 -53c0 -20.667 8 -37.167 24 -49.5s39.667 -18.5 71 -18.5c2 0 3.33301 -0.833008 4 -2.5s1 -5.16699 1 -10.5l1 -98c0 -5.33301 -1.66699 -8 -5 -8z" />
    <glyph glyph-name="eogonek" unicode="&#x119;" horiz-adv-x="420" 
d="M44 0c-2.66699 0 -4 1.66699 -4 5l1 687c0 2.66699 1.33301 4 4 4h321c2.66699 0 4 -1.66699 4 -5v-112c0 -2.66699 -1.33301 -4 -4 -4h-205v-156h205c2.66699 0 4 -1.33301 4 -4l1 -113c0 -2.66699 -1.33301 -4 -4 -4h-206v-175h206c2.66699 0 4 -1.66699 4 -5v-114
c0 -2.66699 -1.33301 -4 -4 -4h-323zM364 -295c-47.333 0 -85.667 7.33105 -115 21.998s-50.833 34.334 -64.5 59.001s-20.5 51.334 -20.5 80.001c0 41.333 15.5 76.5 46.5 105.5s71.167 53.167 120.5 72.5l37 -44c-40.667 -20.667 -67.5 -39 -80.5 -55
s-19.5 -33.667 -19.5 -53c0 -20.667 8 -37.167 24 -49.5s39.667 -18.5 71 -18.5c2 0 3.33301 -0.833008 4 -2.5s1 -5.16699 1 -10.5l1 -98c0 -5.33301 -1.66699 -8 -5 -8z" />
    <glyph glyph-name="Ecaron" unicode="&#x11a;" horiz-adv-x="420" 
d="M44 0c-2.66699 0 -4 1.66699 -4 5l1 687c0 2.66699 1.33301 4 4 4h321c2.66699 0 4 -1.66699 4 -5v-112c0 -2.66699 -1.33301 -4 -4 -4h-205v-156h205c2.66699 0 4 -1.33301 4 -4l1 -113c0 -2.66699 -1.33301 -4 -4 -4h-206v-175h206c2.66699 0 4 -1.66699 4 -5v-114
c0 -2.66699 -1.33301 -4 -4 -4h-323zM145 750c-2.66699 0 -4.66895 1.33301 -6.00195 4l-130 153c-1.33301 2.66699 0 4 4 4h114c2.66699 0 4.33398 -1.33301 5.00098 -4l70 -87l71 87c0.666992 2.66699 2.33398 4 5.00098 4h114c4 0 5.33301 -1.33301 4 -4l-130 -153
c-1.33301 -2.66699 -3.33301 -4 -6 -4h-115z" />
    <glyph glyph-name="ecaron" unicode="&#x11b;" horiz-adv-x="420" 
d="M44 0c-2.66699 0 -4 1.66699 -4 5l1 687c0 2.66699 1.33301 4 4 4h321c2.66699 0 4 -1.66699 4 -5v-112c0 -2.66699 -1.33301 -4 -4 -4h-205v-156h205c2.66699 0 4 -1.33301 4 -4l1 -113c0 -2.66699 -1.33301 -4 -4 -4h-206v-175h206c2.66699 0 4 -1.66699 4 -5v-114
c0 -2.66699 -1.33301 -4 -4 -4h-323zM145 750c-2.66699 0 -4.66895 1.33301 -6.00195 4l-130 153c-1.33301 2.66699 0 4 4 4h114c2.66699 0 4.33398 -1.33301 5.00098 -4l70 -87l71 87c0.666992 2.66699 2.33398 4 5.00098 4h114c4 0 5.33301 -1.33301 4 -4l-130 -153
c-1.33301 -2.66699 -3.33301 -4 -6 -4h-115z" />
    <glyph glyph-name="Gcircumflex" unicode="&#x11c;" horiz-adv-x="450" 
d="M223 -10c-36 0 -68.6689 9 -98.002 27s-52.833 42.167 -70.5 72.5s-26.5 64.166 -26.5 101.499v317c0 36 8.83301 69.167 26.5 99.5s41.334 54.5 71.001 72.5s62.167 27 97.5 27c36.667 0 69.834 -8.83301 99.501 -26.5s53.167 -41.5 70.5 -71.5s26 -63.667 26 -101v-46
c0 -2.66699 -1.66699 -4 -5 -4h-112c-2.66699 0 -4 1.33301 -4 4v38c0 25.333 -7.16699 46.333 -21.5 63s-32.166 25 -53.499 25c-19.333 0 -36.5 -8 -51.5 -24s-22.5 -34.667 -22.5 -56v-317c0 -22 7.33301 -40.833 22 -56.5s32 -23.5 52 -23.5
c21.333 0 39.166 7.66699 53.499 23s21.5 34.333 21.5 57v49h-70c-3.33301 0 -5 1.66699 -5 5v112c0 3.33301 1.66699 5 5 5h187c2.66699 0 4 -1.66699 4 -5v-166c0 -37.333 -8.83301 -71.166 -26.5 -101.499s-41.167 -54.5 -70.5 -72.5s-62.333 -27 -99 -27zM34.998 748
c-4 0 -5.33105 1.33301 -3.99805 4l130 153c1.33301 2.66699 3.33301 4 6 4h115c2.66699 0 4.66699 -1.33301 6 -4l130 -153c1.33301 -2.66699 0 -4 -4 -4h-117c-2.66699 0 -4.33398 1.33301 -5.00098 4l-70 87l-71 -87c-0.666992 -2.66699 -2.33398 -4 -5.00098 -4h-111z
" />
    <glyph glyph-name="gcircumflex" unicode="&#x11d;" horiz-adv-x="450" 
d="M223 -10c-36 0 -68.6689 9 -98.002 27s-52.833 42.167 -70.5 72.5s-26.5 64.166 -26.5 101.499v317c0 36 8.83301 69.167 26.5 99.5s41.334 54.5 71.001 72.5s62.167 27 97.5 27c36.667 0 69.834 -8.83301 99.501 -26.5s53.167 -41.5 70.5 -71.5s26 -63.667 26 -101v-46
c0 -2.66699 -1.66699 -4 -5 -4h-112c-2.66699 0 -4 1.33301 -4 4v38c0 25.333 -7.16699 46.333 -21.5 63s-32.166 25 -53.499 25c-19.333 0 -36.5 -8 -51.5 -24s-22.5 -34.667 -22.5 -56v-317c0 -22 7.33301 -40.833 22 -56.5s32 -23.5 52 -23.5
c21.333 0 39.166 7.66699 53.499 23s21.5 34.333 21.5 57v49h-70c-3.33301 0 -5 1.66699 -5 5v112c0 3.33301 1.66699 5 5 5h187c2.66699 0 4 -1.66699 4 -5v-166c0 -37.333 -8.83301 -71.166 -26.5 -101.499s-41.167 -54.5 -70.5 -72.5s-62.333 -27 -99 -27zM34.998 748
c-4 0 -5.33105 1.33301 -3.99805 4l130 153c1.33301 2.66699 3.33301 4 6 4h115c2.66699 0 4.66699 -1.33301 6 -4l130 -153c1.33301 -2.66699 0 -4 -4 -4h-117c-2.66699 0 -4.33398 1.33301 -5.00098 4l-70 87l-71 -87c-0.666992 -2.66699 -2.33398 -4 -5.00098 -4h-111z
" />
    <glyph glyph-name="Gbreve" unicode="&#x11e;" horiz-adv-x="450" 
d="M223 -10c-36 0 -68.6689 9 -98.002 27s-52.833 42.167 -70.5 72.5s-26.5 64.166 -26.5 101.499v317c0 36 8.83301 69.167 26.5 99.5s41.334 54.5 71.001 72.5s62.167 27 97.5 27c36.667 0 69.834 -8.83301 99.501 -26.5s53.167 -41.5 70.5 -71.5s26 -63.667 26 -101v-46
c0 -2.66699 -1.66699 -4 -5 -4h-112c-2.66699 0 -4 1.33301 -4 4v38c0 25.333 -7.16699 46.333 -21.5 63s-32.166 25 -53.499 25c-19.333 0 -36.5 -8 -51.5 -24s-22.5 -34.667 -22.5 -56v-317c0 -22 7.33301 -40.833 22 -56.5s32 -23.5 52 -23.5
c21.333 0 39.166 7.66699 53.499 23s21.5 34.333 21.5 57v49h-70c-3.33301 0 -5 1.66699 -5 5v112c0 3.33301 1.66699 5 5 5h187c2.66699 0 4 -1.66699 4 -5v-166c0 -37.333 -8.83301 -71.166 -26.5 -101.499s-41.167 -54.5 -70.5 -72.5s-62.333 -27 -99 -27zM223.998 747
c-32 0 -60.832 7.00195 -86.499 21.002s-46 32.333 -61 55s-22.5 47 -22.5 73c-1.33301 2.66699 0 4 4 4h90c0 -18.667 7.5 -35.5 22.5 -50.5s33.833 -22.5 56.5 -22.5c23.333 0 42.5 7.5 57.5 22.5s22.5 31.833 22.5 50.5h90c2.66699 0 4 -1.33301 4 -4
c0 -26.667 -7.83301 -51.334 -23.5 -74.001s-36.834 -40.834 -63.501 -54.501s-56.667 -20.5 -90 -20.5z" />
    <glyph glyph-name="gbreve" unicode="&#x11f;" horiz-adv-x="450" 
d="M223 -10c-36 0 -68.6689 9 -98.002 27s-52.833 42.167 -70.5 72.5s-26.5 64.166 -26.5 101.499v317c0 36 8.83301 69.167 26.5 99.5s41.334 54.5 71.001 72.5s62.167 27 97.5 27c36.667 0 69.834 -8.83301 99.501 -26.5s53.167 -41.5 70.5 -71.5s26 -63.667 26 -101v-46
c0 -2.66699 -1.66699 -4 -5 -4h-112c-2.66699 0 -4 1.33301 -4 4v38c0 25.333 -7.16699 46.333 -21.5 63s-32.166 25 -53.499 25c-19.333 0 -36.5 -8 -51.5 -24s-22.5 -34.667 -22.5 -56v-317c0 -22 7.33301 -40.833 22 -56.5s32 -23.5 52 -23.5
c21.333 0 39.166 7.66699 53.499 23s21.5 34.333 21.5 57v49h-70c-3.33301 0 -5 1.66699 -5 5v112c0 3.33301 1.66699 5 5 5h187c2.66699 0 4 -1.66699 4 -5v-166c0 -37.333 -8.83301 -71.166 -26.5 -101.499s-41.167 -54.5 -70.5 -72.5s-62.333 -27 -99 -27zM223.998 747
c-32 0 -60.832 7.00195 -86.499 21.002s-46 32.333 -61 55s-22.5 47 -22.5 73c-1.33301 2.66699 0 4 4 4h90c0 -18.667 7.5 -35.5 22.5 -50.5s33.833 -22.5 56.5 -22.5c23.333 0 42.5 7.5 57.5 22.5s22.5 31.833 22.5 50.5h90c2.66699 0 4 -1.33301 4 -4
c0 -26.667 -7.83301 -51.334 -23.5 -74.001s-36.834 -40.834 -63.501 -54.501s-56.667 -20.5 -90 -20.5z" />
    <glyph glyph-name="Gdotaccent" unicode="&#x120;" horiz-adv-x="450" 
d="M223 -10c-36 0 -68.6689 9 -98.002 27s-52.833 42.167 -70.5 72.5s-26.5 64.166 -26.5 101.499v317c0 36 8.83301 69.167 26.5 99.5s41.334 54.5 71.001 72.5s62.167 27 97.5 27c36.667 0 69.834 -8.83301 99.501 -26.5s53.167 -41.5 70.5 -71.5s26 -63.667 26 -101v-46
c0 -2.66699 -1.66699 -4 -5 -4h-112c-2.66699 0 -4 1.33301 -4 4v38c0 25.333 -7.16699 46.333 -21.5 63s-32.166 25 -53.499 25c-19.333 0 -36.5 -8 -51.5 -24s-22.5 -34.667 -22.5 -56v-317c0 -22 7.33301 -40.833 22 -56.5s32 -23.5 52 -23.5
c21.333 0 39.166 7.66699 53.499 23s21.5 34.333 21.5 57v49h-70c-3.33301 0 -5 1.66699 -5 5v112c0 3.33301 1.66699 5 5 5h187c2.66699 0 4 -1.66699 4 -5v-166c0 -37.333 -8.83301 -71.166 -26.5 -101.499s-41.167 -54.5 -70.5 -72.5s-62.333 -27 -99 -27zM166.998 764
c-2.66699 0 -4 1.33301 -4 4v113c0 2.66699 1.33301 4 4 4h113c2.66699 0 4 -1.33301 4 -4v-113c0 -2.66699 -1.33301 -4 -4 -4h-113z" />
    <glyph glyph-name="gdotaccent" unicode="&#x121;" horiz-adv-x="450" 
d="M223 -10c-36 0 -68.6689 9 -98.002 27s-52.833 42.167 -70.5 72.5s-26.5 64.166 -26.5 101.499v317c0 36 8.83301 69.167 26.5 99.5s41.334 54.5 71.001 72.5s62.167 27 97.5 27c36.667 0 69.834 -8.83301 99.501 -26.5s53.167 -41.5 70.5 -71.5s26 -63.667 26 -101v-46
c0 -2.66699 -1.66699 -4 -5 -4h-112c-2.66699 0 -4 1.33301 -4 4v38c0 25.333 -7.16699 46.333 -21.5 63s-32.166 25 -53.499 25c-19.333 0 -36.5 -8 -51.5 -24s-22.5 -34.667 -22.5 -56v-317c0 -22 7.33301 -40.833 22 -56.5s32 -23.5 52 -23.5
c21.333 0 39.166 7.66699 53.499 23s21.5 34.333 21.5 57v49h-70c-3.33301 0 -5 1.66699 -5 5v112c0 3.33301 1.66699 5 5 5h187c2.66699 0 4 -1.66699 4 -5v-166c0 -37.333 -8.83301 -71.166 -26.5 -101.499s-41.167 -54.5 -70.5 -72.5s-62.333 -27 -99 -27zM166.998 764
c-2.66699 0 -4 1.33301 -4 4v113c0 2.66699 1.33301 4 4 4h113c2.66699 0 4 -1.33301 4 -4v-113c0 -2.66699 -1.33301 -4 -4 -4h-113z" />
    <glyph glyph-name="uni0122" unicode="&#x122;" horiz-adv-x="450" 
d="M223 -10c-36 0 -68.6689 9 -98.002 27s-52.833 42.167 -70.5 72.5s-26.5 64.166 -26.5 101.499v317c0 36 8.83301 69.167 26.5 99.5s41.334 54.5 71.001 72.5s62.167 27 97.5 27c36.667 0 69.834 -8.83301 99.501 -26.5s53.167 -41.5 70.5 -71.5s26 -63.667 26 -101v-46
c0 -2.66699 -1.66699 -4 -5 -4h-112c-2.66699 0 -4 1.33301 -4 4v38c0 25.333 -7.16699 46.333 -21.5 63s-32.166 25 -53.499 25c-19.333 0 -36.5 -8 -51.5 -24s-22.5 -34.667 -22.5 -56v-317c0 -22 7.33301 -40.833 22 -56.5s32 -23.5 52 -23.5
c21.333 0 39.166 7.66699 53.499 23s21.5 34.333 21.5 57v49h-70c-3.33301 0 -5 1.66699 -5 5v112c0 3.33301 1.66699 5 5 5h187c2.66699 0 4 -1.66699 4 -5v-166c0 -37.333 -8.83301 -71.166 -26.5 -101.499s-41.167 -54.5 -70.5 -72.5s-62.333 -27 -99 -27zM165.998 -295
l-0.00292969 61.999c16.667 0 30.834 6.33301 42.501 19s17.5 27.667 17.5 45h-56c-2.66699 0 -4 1.33301 -4 4v112c0 2.66699 1.33301 4 4 4h113c2.66699 0 4 -1.33301 4 -4v-116c0 -23.333 -5.66699 -44.666 -17 -63.999s-26.166 -34.5 -44.499 -45.5
s-38.166 -16.5 -59.499 -16.5z" />
    <glyph glyph-name="uni0123" unicode="&#x123;" horiz-adv-x="450" 
d="M223 -10c-36 0 -68.6689 9 -98.002 27s-52.833 42.167 -70.5 72.5s-26.5 64.166 -26.5 101.499v317c0 36 8.83301 69.167 26.5 99.5s41.334 54.5 71.001 72.5s62.167 27 97.5 27c36.667 0 69.834 -8.83301 99.501 -26.5s53.167 -41.5 70.5 -71.5s26 -63.667 26 -101v-46
c0 -2.66699 -1.66699 -4 -5 -4h-112c-2.66699 0 -4 1.33301 -4 4v38c0 25.333 -7.16699 46.333 -21.5 63s-32.166 25 -53.499 25c-19.333 0 -36.5 -8 -51.5 -24s-22.5 -34.667 -22.5 -56v-317c0 -22 7.33301 -40.833 22 -56.5s32 -23.5 52 -23.5
c21.333 0 39.166 7.66699 53.499 23s21.5 34.333 21.5 57v49h-70c-3.33301 0 -5 1.66699 -5 5v112c0 3.33301 1.66699 5 5 5h187c2.66699 0 4 -1.66699 4 -5v-166c0 -37.333 -8.83301 -71.166 -26.5 -101.499s-41.167 -54.5 -70.5 -72.5s-62.333 -27 -99 -27zM165.998 -295
l-0.00292969 61.999c16.667 0 30.834 6.33301 42.501 19s17.5 27.667 17.5 45h-56c-2.66699 0 -4 1.33301 -4 4v112c0 2.66699 1.33301 4 4 4h113c2.66699 0 4 -1.33301 4 -4v-116c0 -23.333 -5.66699 -44.666 -17 -63.999s-26.166 -34.5 -44.499 -45.5
s-38.166 -16.5 -59.499 -16.5z" />
    <glyph glyph-name="Hcircumflex" unicode="&#x124;" horiz-adv-x="475" 
d="M44 0c-2.66699 0 -4 1.66699 -4 5l1 687c0 2.66699 1.66699 4 5 4h111c3.33301 0 5 -1.33301 5 -4l-1 -272h150v272c0 2.66699 1.33301 4 4 4h111c3.33301 0 5 -1.33301 5 -4l2 -687c0 -3.33301 -1.66699 -5 -5 -5h-112c-3.33301 0 -5 1.66699 -5 5v294h-150v-294
c0 -3.33301 -1.33301 -5 -4 -5h-113zM44 748c-4 0 -5.33105 1.33301 -3.99805 4l130 153c1.33301 2.66699 3.33301 4 6 4h115c2.66699 0 4.66699 -1.33301 6 -4l130 -153c1.33301 -2.66699 0 -4 -4 -4h-117c-2.66699 0 -4.33398 1.33301 -5.00098 4l-70 87l-71 -87
c-0.666992 -2.66699 -2.33398 -4 -5.00098 -4h-111z" />
    <glyph glyph-name="hcircumflex" unicode="&#x125;" horiz-adv-x="475" 
d="M44 0c-2.66699 0 -4 1.66699 -4 5l1 687c0 2.66699 1.66699 4 5 4h111c3.33301 0 5 -1.33301 5 -4l-1 -272h150v272c0 2.66699 1.33301 4 4 4h111c3.33301 0 5 -1.33301 5 -4l2 -687c0 -3.33301 -1.66699 -5 -5 -5h-112c-3.33301 0 -5 1.66699 -5 5v294h-150v-294
c0 -3.33301 -1.33301 -5 -4 -5h-113zM44 748c-4 0 -5.33105 1.33301 -3.99805 4l130 153c1.33301 2.66699 3.33301 4 6 4h115c2.66699 0 4.66699 -1.33301 6 -4l130 -153c1.33301 -2.66699 0 -4 -4 -4h-117c-2.66699 0 -4.33398 1.33301 -5.00098 4l-70 87l-71 -87
c-0.666992 -2.66699 -2.33398 -4 -5.00098 -4h-111z" />
    <glyph glyph-name="Hbar" unicode="&#x126;" horiz-adv-x="475" 
d="M44 0c-2.66699 0 -4 1.66699 -4 5l1 507h-50c-2.66699 0 -4 1.66699 -4 5v95c0 3.33301 1.66699 5 5 5h49v75c0 2.66699 1.66699 4 5 4h111c3.33301 0 5 -1.33301 5 -4v-75h149v75c0 2.66699 1.33301 4 4 4h111c3.33301 0 5 -1.33301 5 -4v-75h49
c2.66699 0 4 -1.66699 4 -5v-95c0 -3.33301 -1.33301 -5 -4 -5h-48l1 -507c0 -3.33301 -1.66699 -5 -5 -5h-112c-3.33301 0 -5 1.66699 -5 5v294h-150v-294c0 -3.33301 -1.33301 -5 -4 -5h-113zM161 420h150v92h-150v-92z" />
    <glyph glyph-name="hbar" unicode="&#x127;" horiz-adv-x="475" 
d="M44 0c-2.66699 0 -4 1.66699 -4 5l1 507h-50c-2.66699 0 -4 1.66699 -4 5v95c0 3.33301 1.66699 5 5 5h49v75c0 2.66699 1.66699 4 5 4h111c3.33301 0 5 -1.33301 5 -4v-75h149v75c0 2.66699 1.33301 4 4 4h111c3.33301 0 5 -1.33301 5 -4v-75h49
c2.66699 0 4 -1.66699 4 -5v-95c0 -3.33301 -1.33301 -5 -4 -5h-48l1 -507c0 -3.33301 -1.66699 -5 -5 -5h-112c-3.33301 0 -5 1.66699 -5 5v294h-150v-294c0 -3.33301 -1.33301 -5 -4 -5h-113zM161 420h150v92h-150v-92z" />
    <glyph glyph-name="Itilde" unicode="&#x128;" horiz-adv-x="211" 
d="M180 753c-18.667 0 -35.833 3.50098 -51.5 10.501s-29.834 14 -42.501 21s-24.667 10.5 -36 10.5c-12.667 0 -22.334 -3.16699 -29.001 -9.5s-10 -14.166 -10 -23.499c0 -2.66699 -1.33301 -4 -4 -4h-90c-2.66699 0 -4 1.33301 -4 4c0 17.333 5.16699 35.166 15.5 53.499
s25 33.833 44 46.5s41.833 19 68.5 19c19.333 0 36.333 -3.16699 51 -9.5s27.834 -12.833 39.501 -19.5s21.834 -10 30.501 -10c9.33301 0 17.5 3 24.5 9s10.5 15.333 10.5 28c0 2.66699 1.33301 4 4 4h90c2.66699 0 4 -1.33301 4 -4c0 -27.333 -5.5 -50.333 -16.5 -69
s-25.333 -32.834 -43 -42.501s-36.167 -14.5 -55.5 -14.5zM45.001 0.000976562c-3.33301 0 -5 1.66699 -5 5l1 687c0 2.66699 1.33301 4 4 4h112c2.66699 0 4 -1.33301 4 -4l1 -687c0 -3.33301 -1.33301 -5 -4 -5h-113z" />
    <glyph glyph-name="itilde" unicode="&#x129;" horiz-adv-x="211" 
d="M180 753c-18.667 0 -35.833 3.50098 -51.5 10.501s-29.834 14 -42.501 21s-24.667 10.5 -36 10.5c-12.667 0 -22.334 -3.16699 -29.001 -9.5s-10 -14.166 -10 -23.499c0 -2.66699 -1.33301 -4 -4 -4h-90c-2.66699 0 -4 1.33301 -4 4c0 17.333 5.16699 35.166 15.5 53.499
s25 33.833 44 46.5s41.833 19 68.5 19c19.333 0 36.333 -3.16699 51 -9.5s27.834 -12.833 39.501 -19.5s21.834 -10 30.501 -10c9.33301 0 17.5 3 24.5 9s10.5 15.333 10.5 28c0 2.66699 1.33301 4 4 4h90c2.66699 0 4 -1.33301 4 -4c0 -27.333 -5.5 -50.333 -16.5 -69
s-25.333 -32.834 -43 -42.501s-36.167 -14.5 -55.5 -14.5zM45.001 0.000976562c-3.33301 0 -5 1.66699 -5 5l1 687c0 2.66699 1.33301 4 4 4h112c2.66699 0 4 -1.33301 4 -4l1 -687c0 -3.33301 -1.33301 -5 -4 -5h-113z" />
    <glyph glyph-name="Imacron" unicode="&#x12a;" horiz-adv-x="210" 
d="M45 0c-3.33301 0 -5 1.66699 -5 5l1 687c0 2.66699 1.33301 4 4 4h112c2.66699 0 4 -1.33301 4 -4l1 -687c0 -3.33301 -1.33301 -5 -4 -5h-113zM-48 772c-2.66699 0 -4 1.33301 -4 4v81c0 2.66699 1.33301 4 4 4h299c2.66699 0 4 -1.33301 4 -4v-81
c0 -2.66699 -1.33301 -4 -4 -4h-299z" />
    <glyph glyph-name="imacron" unicode="&#x12b;" horiz-adv-x="210" 
d="M45 0c-3.33301 0 -5 1.66699 -5 5l1 687c0 2.66699 1.33301 4 4 4h112c2.66699 0 4 -1.33301 4 -4l1 -687c0 -3.33301 -1.33301 -5 -4 -5h-113zM-48 772c-2.66699 0 -4 1.33301 -4 4v81c0 2.66699 1.33301 4 4 4h299c2.66699 0 4 -1.33301 4 -4v-81
c0 -2.66699 -1.33301 -4 -4 -4h-299z" />
    <glyph glyph-name="Ibreve" unicode="&#x12c;" horiz-adv-x="210" 
d="M45 0c-3.33301 0 -5 1.66699 -5 5l1 687c0 2.66699 1.33301 4 4 4h112c2.66699 0 4 -1.33301 4 -4l1 -687c0 -3.33301 -1.33301 -5 -4 -5h-113zM103 747c-32 0 -60.832 7.00195 -86.499 21.002s-46 32.333 -61 55s-22.5 47 -22.5 73c-1.33301 2.66699 0 4 4 4h90
c0 -18.667 7.5 -35.5 22.5 -50.5s33.833 -22.5 56.5 -22.5c23.333 0 42.5 7.5 57.5 22.5s22.5 31.833 22.5 50.5h90c2.66699 0 4 -1.33301 4 -4c0 -26.667 -7.83301 -51.334 -23.5 -74.001s-36.834 -40.834 -63.501 -54.501s-56.667 -20.5 -90 -20.5z" />
    <glyph glyph-name="ibreve" unicode="&#x12d;" horiz-adv-x="210" 
d="M45 0c-3.33301 0 -5 1.66699 -5 5l1 687c0 2.66699 1.33301 4 4 4h112c2.66699 0 4 -1.33301 4 -4l1 -687c0 -3.33301 -1.33301 -5 -4 -5h-113zM103 747c-32 0 -60.832 7.00195 -86.499 21.002s-46 32.333 -61 55s-22.5 47 -22.5 73c-1.33301 2.66699 0 4 4 4h90
c0 -18.667 7.5 -35.5 22.5 -50.5s33.833 -22.5 56.5 -22.5c23.333 0 42.5 7.5 57.5 22.5s22.5 31.833 22.5 50.5h90c2.66699 0 4 -1.33301 4 -4c0 -26.667 -7.83301 -51.334 -23.5 -74.001s-36.834 -40.834 -63.501 -54.501s-56.667 -20.5 -90 -20.5z" />
    <glyph glyph-name="Iogonek" unicode="&#x12e;" horiz-adv-x="210" 
d="M45 0c-3.33301 0 -5 1.66699 -5 5l1 687c0 2.66699 1.33301 4 4 4h112c2.66699 0 4 -1.33301 4 -4l1 -687c0 -3.33301 -1.33301 -5 -4 -5h-113zM155 -295c-47.333 0 -85.667 7.33105 -115 21.998s-50.833 34.334 -64.5 59.001s-20.5 51.334 -20.5 80.001
c0 41.333 15.5 76.5 46.5 105.5s71.167 53.167 120.5 72.5l37 -44c-40.667 -20.667 -67.5 -39 -80.5 -55s-19.5 -33.667 -19.5 -53c0 -20.667 8 -37.167 24 -49.5s39.667 -18.5 71 -18.5c2 0 3.33301 -0.833008 4 -2.5s1 -5.16699 1 -10.5l1 -98
c0 -5.33301 -1.66699 -8 -5 -8z" />
    <glyph glyph-name="iogonek" unicode="&#x12f;" horiz-adv-x="210" 
d="M45 0c-3.33301 0 -5 1.66699 -5 5l1 687c0 2.66699 1.33301 4 4 4h112c2.66699 0 4 -1.33301 4 -4l1 -687c0 -3.33301 -1.33301 -5 -4 -5h-113zM155 -295c-47.333 0 -85.667 7.33105 -115 21.998s-50.833 34.334 -64.5 59.001s-20.5 51.334 -20.5 80.001
c0 41.333 15.5 76.5 46.5 105.5s71.167 53.167 120.5 72.5l37 -44c-40.667 -20.667 -67.5 -39 -80.5 -55s-19.5 -33.667 -19.5 -53c0 -20.667 8 -37.167 24 -49.5s39.667 -18.5 71 -18.5c2 0 3.33301 -0.833008 4 -2.5s1 -5.16699 1 -10.5l1 -98
c0 -5.33301 -1.66699 -8 -5 -8z" />
    <glyph glyph-name="Idotaccent" unicode="&#x130;" horiz-adv-x="210" 
d="M45 0c-3.33301 0 -5 1.66699 -5 5l1 687c0 2.66699 1.33301 4 4 4h112c2.66699 0 4 -1.33301 4 -4l1 -687c0 -3.33301 -1.33301 -5 -4 -5h-113zM46 764c-2.66699 0 -4 1.33301 -4 4v113c0 2.66699 1.33301 4 4 4h113c2.66699 0 4 -1.33301 4 -4v-113
c0 -2.66699 -1.33301 -4 -4 -4h-113z" />
    <glyph glyph-name="dotlessi" unicode="&#x131;" horiz-adv-x="210" 
d="M45 0c-3.33301 0 -5 1.66699 -5 5l1 687c0 2.66699 1.33301 4 4 4h112c2.66699 0 4 -1.33301 4 -4l1 -687c0 -3.33301 -1.33301 -5 -4 -5h-113z" />
    <glyph glyph-name="IJ" unicode="&#x132;" horiz-adv-x="596" 
d="M45 0c-3.33301 0 -5 1.66699 -5 5l1 687c0 2.66699 1.33301 4 4 4h112c2.66699 0 4 -1.33301 4 -4l1 -687c0 -3.33301 -1.33301 -5 -4 -5h-113zM388 -10c-37.333 0 -69.5 8.83301 -96.5 26.5s-47.5 42 -61.5 73s-21 65.833 -21 104.5v46c0 2.66699 1.33301 4 4 4h113
c2.66699 0 4 -1.66699 4 -5v-45c0 -24.667 4 -44.667 12 -60s23 -23 45 -23c20 0 33.667 8.33301 41 25s11 36 11 58v497c0 2.66699 1.33301 4 4 4h112c2.66699 0 4 -1.66699 4 -5l1 -496c0 -62 -15.833 -111.5 -47.5 -148.5s-73.167 -55.5 -124.5 -55.5z" />
    <glyph glyph-name="ij" unicode="&#x133;" horiz-adv-x="596" 
d="M45 0c-3.33301 0 -5 1.66699 -5 5l1 687c0 2.66699 1.33301 4 4 4h112c2.66699 0 4 -1.33301 4 -4l1 -687c0 -3.33301 -1.33301 -5 -4 -5h-113zM388 -10c-37.333 0 -69.5 8.83301 -96.5 26.5s-47.5 42 -61.5 73s-21 65.833 -21 104.5v46c0 2.66699 1.33301 4 4 4h113
c2.66699 0 4 -1.66699 4 -5v-45c0 -24.667 4 -44.667 12 -60s23 -23 45 -23c20 0 33.667 8.33301 41 25s11 36 11 58v497c0 2.66699 1.33301 4 4 4h112c2.66699 0 4 -1.66699 4 -5l1 -496c0 -62 -15.833 -111.5 -47.5 -148.5s-73.167 -55.5 -124.5 -55.5z" />
    <glyph glyph-name="Jcircumflex" unicode="&#x134;" horiz-adv-x="435" 
d="M204 -10c-37.333 0 -70.833 8.83301 -100.5 26.5s-53 42 -70 73s-25.5 65.833 -25.5 104.5v46c0 2.66699 1.33301 4 4 4h113c2.66699 0 4 -1.66699 4 -5v-45c0 -24.667 7 -44.667 21 -60s32 -23 54 -23c20 0 37.333 8.33301 52 25s22 36 22 58v497
c0 2.66699 1.33301 4 4 4h112c2.66699 0 4 -1.66699 4 -5l1 -496c0 -36.667 -8.83301 -70.5 -26.5 -101.5s-41.167 -55.833 -70.5 -74.5s-62 -28 -98 -28zM152 748c-4 0 -5.33105 1.33301 -3.99805 4l130 153c1.33301 2.66699 3.33301 4 6 4h115
c2.66699 0 4.66699 -1.33301 6 -4l130 -153c1.33301 -2.66699 0 -4 -4 -4h-117c-2.66699 0 -4.33398 1.33301 -5.00098 4l-70 87l-71 -87c-0.666992 -2.66699 -2.33398 -4 -5.00098 -4h-111z" />
    <glyph glyph-name="jcircumflex" unicode="&#x135;" horiz-adv-x="435" 
d="M204 -10c-37.333 0 -70.833 8.83301 -100.5 26.5s-53 42 -70 73s-25.5 65.833 -25.5 104.5v46c0 2.66699 1.33301 4 4 4h113c2.66699 0 4 -1.66699 4 -5v-45c0 -24.667 7 -44.667 21 -60s32 -23 54 -23c20 0 37.333 8.33301 52 25s22 36 22 58v497
c0 2.66699 1.33301 4 4 4h112c2.66699 0 4 -1.66699 4 -5l1 -496c0 -36.667 -8.83301 -70.5 -26.5 -101.5s-41.167 -55.833 -70.5 -74.5s-62 -28 -98 -28zM152 748c-4 0 -5.33105 1.33301 -3.99805 4l130 153c1.33301 2.66699 3.33301 4 6 4h115
c2.66699 0 4.66699 -1.33301 6 -4l130 -153c1.33301 -2.66699 0 -4 -4 -4h-117c-2.66699 0 -4.33398 1.33301 -5.00098 4l-70 87l-71 -87c-0.666992 -2.66699 -2.33398 -4 -5.00098 -4h-111z" />
    <glyph glyph-name="uni0136" unicode="&#x136;" horiz-adv-x="469" 
d="M44 0c-2.66699 0 -4 1.66699 -4 5l2 686c0 3.33301 1.33301 5 4 5h112c2.66699 0 4 -1.66699 4 -5v-237l157 238c2 2.66699 4.33301 4 7 4h115c2.66699 0 3.33398 -1.33301 2.00098 -4l-173 -276l194 -412c1.33301 -2.66699 -0.333984 -4 -5.00098 -4h-122
c-3.33301 -0 -5.33301 1.33301 -6 4l-135 294l-35 -55v-238c0 -3.33301 -1.33301 -5 -4 -5h-113zM173 -295l-0.00292969 61.999c16.667 0 30.834 6.33301 42.501 19s17.5 27.667 17.5 45h-56c-2.66699 0 -4 1.33301 -4 4v112c0 2.66699 1.33301 4 4 4h113
c2.66699 0 4 -1.33301 4 -4v-116c0 -23.333 -5.66699 -44.666 -17 -63.999s-26.166 -34.5 -44.499 -45.5s-38.166 -16.5 -59.499 -16.5z" />
    <glyph glyph-name="uni0137" unicode="&#x137;" horiz-adv-x="469" 
d="M44 0c-2.66699 0 -4 1.66699 -4 5l2 686c0 3.33301 1.33301 5 4 5h112c2.66699 0 4 -1.66699 4 -5v-237l157 238c2 2.66699 4.33301 4 7 4h115c2.66699 0 3.33398 -1.33301 2.00098 -4l-173 -276l194 -412c1.33301 -2.66699 -0.333984 -4 -5.00098 -4h-122
c-3.33301 -0 -5.33301 1.33301 -6 4l-135 294l-35 -55v-238c0 -3.33301 -1.33301 -5 -4 -5h-113zM173 -295l-0.00292969 61.999c16.667 0 30.834 6.33301 42.501 19s17.5 27.667 17.5 45h-56c-2.66699 0 -4 1.33301 -4 4v112c0 2.66699 1.33301 4 4 4h113
c2.66699 0 4 -1.33301 4 -4v-116c0 -23.333 -5.66699 -44.666 -17 -63.999s-26.166 -34.5 -44.499 -45.5s-38.166 -16.5 -59.499 -16.5z" />
    <glyph glyph-name="Lacute" unicode="&#x139;" horiz-adv-x="397" 
d="M44 0c-2.66699 0 -4 1.66699 -4 5l1 686c0 3.33301 1.66699 5 5 5h111c3.33301 0 5 -1.66699 5 -5l-1 -568h206c3.33301 0 5 -1.66699 5 -5v-113c0 -3.33301 -1.66699 -5 -5 -5h-323zM45 747c-3.33301 0 -4.66797 1.33301 -4.00098 4l80 173
c0.666992 2.66699 2.33398 4 5.00098 4h114c4 0 5.33301 -1.33301 4 -4l-93 -173c-1.33301 -2.66699 -3.33301 -4 -6 -4h-100z" />
    <glyph glyph-name="lacute" unicode="&#x13a;" horiz-adv-x="397" 
d="M44 0c-2.66699 0 -4 1.66699 -4 5l1 686c0 3.33301 1.66699 5 5 5h111c3.33301 0 5 -1.66699 5 -5l-1 -568h206c3.33301 0 5 -1.66699 5 -5v-113c0 -3.33301 -1.66699 -5 -5 -5h-323zM45 747c-3.33301 0 -4.66797 1.33301 -4.00098 4l80 173
c0.666992 2.66699 2.33398 4 5.00098 4h114c4 0 5.33301 -1.33301 4 -4l-93 -173c-1.33301 -2.66699 -3.33301 -4 -6 -4h-100z" />
    <glyph glyph-name="uni013B" unicode="&#x13b;" horiz-adv-x="397" 
d="M44 0c-2.66699 0 -4 1.66699 -4 5l1 686c0 3.33301 1.66699 5 5 5h111c3.33301 0 5 -1.66699 5 -5l-1 -568h206c3.33301 0 5 -1.66699 5 -5v-113c0 -3.33301 -1.66699 -5 -5 -5h-323zM148 -295l-0.00292969 61.999c16.667 0 30.834 6.33301 42.501 19
s17.5 27.667 17.5 45h-56c-2.66699 0 -4 1.33301 -4 4v112c0 2.66699 1.33301 4 4 4h113c2.66699 0 4 -1.33301 4 -4v-116c0 -23.333 -5.66699 -44.666 -17 -63.999s-26.166 -34.5 -44.499 -45.5s-38.166 -16.5 -59.499 -16.5z" />
    <glyph glyph-name="uni013C" unicode="&#x13c;" horiz-adv-x="397" 
d="M44 0c-2.66699 0 -4 1.66699 -4 5l1 686c0 3.33301 1.66699 5 5 5h111c3.33301 0 5 -1.66699 5 -5l-1 -568h206c3.33301 0 5 -1.66699 5 -5v-113c0 -3.33301 -1.66699 -5 -5 -5h-323zM148 -295l-0.00292969 61.999c16.667 0 30.834 6.33301 42.501 19
s17.5 27.667 17.5 45h-56c-2.66699 0 -4 1.33301 -4 4v112c0 2.66699 1.33301 4 4 4h113c2.66699 0 4 -1.33301 4 -4v-116c0 -23.333 -5.66699 -44.666 -17 -63.999s-26.166 -34.5 -44.499 -45.5s-38.166 -16.5 -59.499 -16.5z" />
    <glyph glyph-name="Lcaron" unicode="&#x13d;" horiz-adv-x="397" 
d="M217 485c-3.33301 0 -4.66797 1.33301 -4.00098 4l31 204c0.666992 2.66699 2.33398 4 5.00098 4h114c4 0 5.33301 -1.33301 4 -4l-44 -204c-1.33301 -2.66699 -3.33301 -4 -6 -4h-100zM43.998 0c-2.66699 0 -4 1.66699 -4 5l1 686c0 3.33301 1.66699 5 5 5h111
c3.33301 0 5 -1.66699 5 -5l-1 -568h206c3.33301 0 5 -1.66699 5 -5v-113c0 -3.33301 -1.66699 -5 -5 -5h-323z" />
    <glyph glyph-name="lcaron" unicode="&#x13e;" horiz-adv-x="397" 
d="M44 0c-2.66699 0 -4 1.66699 -4 5l1 686c0 3.33301 1.66699 5 5 5h111c3.33301 0 5 -1.66699 5 -5l-1 -568h206c3.33301 0 5 -1.66699 5 -5v-113c0 -3.33301 -1.66699 -5 -5 -5h-323zM47 750c-2.66699 0 -4.66895 1.33301 -6.00195 4l-130 153c-1.33301 2.66699 0 4 4 4
h114c2.66699 0 4.33398 -1.33301 5.00098 -4l70 -87l71 87c0.666992 2.66699 2.33398 4 5.00098 4h114c4 0 5.33301 -1.33301 4 -4l-130 -153c-1.33301 -2.66699 -3.33301 -4 -6 -4h-115z" />
    <glyph glyph-name="Ldot" unicode="&#x13f;" horiz-adv-x="397" 
d="M44 0c-2.66699 0 -4 1.66699 -4 5l1 686c0 3.33301 1.66699 5 5 5h111c3.33301 0 5 -1.66699 5 -5l-1 -568h206c3.33301 0 5 -1.66699 5 -5v-113c0 -3.33301 -1.66699 -5 -5 -5h-323zM244 327c-2.66699 0 -4 1.33301 -4 4v113c0 2.66699 1.33301 4 4 4h113
c2.66699 0 4 -1.33301 4 -4v-113c0 -2.66699 -1.33301 -4 -4 -4h-113z" />
    <glyph glyph-name="ldot" unicode="&#x140;" horiz-adv-x="397" 
d="M44 0c-2.66699 0 -4 1.66699 -4 5l1 686c0 3.33301 1.66699 5 5 5h111c3.33301 0 5 -1.66699 5 -5l-1 -568h206c3.33301 0 5 -1.66699 5 -5v-113c0 -3.33301 -1.66699 -5 -5 -5h-323zM244 327c-2.66699 0 -4 1.33301 -4 4v113c0 2.66699 1.33301 4 4 4h113
c2.66699 0 4 -1.33301 4 -4v-113c0 -2.66699 -1.33301 -4 -4 -4h-113z" />
    <glyph glyph-name="Lslash" unicode="&#x141;" horiz-adv-x="397" 
d="M44 0c-2.66699 0 -3.99902 1.66797 -3.99902 5.00098v297l-42 -15c-2.66699 -0.666992 -4.66699 0.333008 -6 3l-30 86c-1.33301 3.33301 -0.333008 5.66602 3 6.99902l76 26v282c0 3.33301 1.66699 5 5 5h111c3.33301 0 5 -1.66699 5 -5v-241l101 35
c2.66699 1.33301 4.66699 0.333008 6 -3l29 -87c1.33301 -3.33301 0.666016 -5.33301 -2.00098 -6l-135 -46v-220h206c3.33301 0 5 -1.66699 5 -5v-113c0 -3.33301 -1.66699 -5 -5 -5h-323z" />
    <glyph glyph-name="lslash" unicode="&#x142;" horiz-adv-x="397" 
d="M44 0c-2.66699 0 -3.99902 1.66797 -3.99902 5.00098v297l-42 -15c-2.66699 -0.666992 -4.66699 0.333008 -6 3l-30 86c-1.33301 3.33301 -0.333008 5.66602 3 6.99902l76 26v282c0 3.33301 1.66699 5 5 5h111c3.33301 0 5 -1.66699 5 -5v-241l101 35
c2.66699 1.33301 4.66699 0.333008 6 -3l29 -87c1.33301 -3.33301 0.666016 -5.33301 -2.00098 -6l-135 -46v-220h206c3.33301 0 5 -1.66699 5 -5v-113c0 -3.33301 -1.66699 -5 -5 -5h-323z" />
    <glyph glyph-name="Nacute" unicode="&#x143;" horiz-adv-x="464" 
d="M49 0c-5.33301 0 -8 2.33301 -8 7l-1 681c0 5.33301 2.66699 8 8 8h90l169 -394l-5 386c0 5.33301 3 8 9 8h99c4 0 6 -2.66699 6 -8l1 -682c0 -4 -1.66699 -6 -5 -6h-88l-173 368l7 -360c0 -5.33301 -3 -8 -9 -8h-100zM155 747c-3.33301 0 -4.66797 1.33301 -4.00098 4
l80 173c0.666992 2.66699 2.33398 4 5.00098 4h114c4 0 5.33301 -1.33301 4 -4l-93 -173c-1.33301 -2.66699 -3.33301 -4 -6 -4h-100z" />
    <glyph glyph-name="nacute" unicode="&#x144;" horiz-adv-x="464" 
d="M49 0c-5.33301 0 -8 2.33301 -8 7l-1 681c0 5.33301 2.66699 8 8 8h90l169 -394l-5 386c0 5.33301 3 8 9 8h99c4 0 6 -2.66699 6 -8l1 -682c0 -4 -1.66699 -6 -5 -6h-88l-173 368l7 -360c0 -5.33301 -3 -8 -9 -8h-100zM155 747c-3.33301 0 -4.66797 1.33301 -4.00098 4
l80 173c0.666992 2.66699 2.33398 4 5.00098 4h114c4 0 5.33301 -1.33301 4 -4l-93 -173c-1.33301 -2.66699 -3.33301 -4 -6 -4h-100z" />
    <glyph glyph-name="uni0145" unicode="&#x145;" horiz-adv-x="464" 
d="M49 0c-5.33301 0 -8 2.33301 -8 7l-1 681c0 5.33301 2.66699 8 8 8h90l169 -394l-5 386c0 5.33301 3 8 9 8h99c4 0 6 -2.66699 6 -8l1 -682c0 -4 -1.66699 -6 -5 -6h-88l-173 368l7 -360c0 -5.33301 -3 -8 -9 -8h-100zM176 -295l-0.00292969 61.999
c16.667 0 30.834 6.33301 42.501 19s17.5 27.667 17.5 45h-56c-2.66699 0 -4 1.33301 -4 4v112c0 2.66699 1.33301 4 4 4h113c2.66699 0 4 -1.33301 4 -4v-116c0 -23.333 -5.66699 -44.666 -17 -63.999s-26.166 -34.5 -44.499 -45.5s-38.166 -16.5 -59.499 -16.5z" />
    <glyph glyph-name="uni0146" unicode="&#x146;" horiz-adv-x="464" 
d="M49 0c-5.33301 0 -8 2.33301 -8 7l-1 681c0 5.33301 2.66699 8 8 8h90l169 -394l-5 386c0 5.33301 3 8 9 8h99c4 0 6 -2.66699 6 -8l1 -682c0 -4 -1.66699 -6 -5 -6h-88l-173 368l7 -360c0 -5.33301 -3 -8 -9 -8h-100zM176 -295l-0.00292969 61.999
c16.667 0 30.834 6.33301 42.501 19s17.5 27.667 17.5 45h-56c-2.66699 0 -4 1.33301 -4 4v112c0 2.66699 1.33301 4 4 4h113c2.66699 0 4 -1.33301 4 -4v-116c0 -23.333 -5.66699 -44.666 -17 -63.999s-26.166 -34.5 -44.499 -45.5s-38.166 -16.5 -59.499 -16.5z" />
    <glyph glyph-name="Ncaron" unicode="&#x147;" horiz-adv-x="464" 
d="M49 0c-5.33301 0 -8 2.33301 -8 7l-1 681c0 5.33301 2.66699 8 8 8h90l169 -394l-5 386c0 5.33301 3 8 9 8h99c4 0 6 -2.66699 6 -8l1 -682c0 -4 -1.66699 -6 -5 -6h-88l-173 368l7 -360c0 -5.33301 -3 -8 -9 -8h-100zM157 750c-2.66699 0 -4.66895 1.33301 -6.00195 4
l-130 153c-1.33301 2.66699 0 4 4 4h114c2.66699 0 4.33398 -1.33301 5.00098 -4l70 -87l71 87c0.666992 2.66699 2.33398 4 5.00098 4h114c4 0 5.33301 -1.33301 4 -4l-130 -153c-1.33301 -2.66699 -3.33301 -4 -6 -4h-115z" />
    <glyph glyph-name="ncaron" unicode="&#x148;" horiz-adv-x="464" 
d="M49 0c-5.33301 0 -8 2.33301 -8 7l-1 681c0 5.33301 2.66699 8 8 8h90l169 -394l-5 386c0 5.33301 3 8 9 8h99c4 0 6 -2.66699 6 -8l1 -682c0 -4 -1.66699 -6 -5 -6h-88l-173 368l7 -360c0 -5.33301 -3 -8 -9 -8h-100zM157 750c-2.66699 0 -4.66895 1.33301 -6.00195 4
l-130 153c-1.33301 2.66699 0 4 4 4h114c2.66699 0 4.33398 -1.33301 5.00098 -4l70 -87l71 87c0.666992 2.66699 2.33398 4 5.00098 4h114c4 0 5.33301 -1.33301 4 -4l-130 -153c-1.33301 -2.66699 -3.33301 -4 -6 -4h-115z" />
    <glyph glyph-name="Eng" unicode="&#x14a;" horiz-adv-x="464" 
d="M49 0c-5.33301 0 -8 2.33203 -8 6.99902l-1 681c0 5.33301 2.66699 8 8 8h90l169 -394l-5 386c0 5.33301 3 8 9 8h99c4 0 6 -2.66699 6 -8l1 -658v0v-111c0 -49.333 -6.5 -88.166 -19.5 -116.499s-31.5 -48.333 -55.5 -60s-53.333 -17.5 -88 -17.5h-29
c-2.66699 0 -4 1.33301 -4 4v109c0 2.66699 1.33301 4 4 4h26c24.667 0 41.167 5 49.5 15s12.5 29.667 12.5 59v107l-162 345l7 -360c0 -5.33301 -3 -8 -9 -8h-100z" />
    <glyph glyph-name="eng" unicode="&#x14b;" horiz-adv-x="464" 
d="M49 0c-5.33301 0 -8 2.33203 -8 6.99902l-1 681c0 5.33301 2.66699 8 8 8h90l169 -394l-5 386c0 5.33301 3 8 9 8h99c4 0 6 -2.66699 6 -8l1 -658v0v-111c0 -49.333 -6.5 -88.166 -19.5 -116.499s-31.5 -48.333 -55.5 -60s-53.333 -17.5 -88 -17.5h-29
c-2.66699 0 -4 1.33301 -4 4v109c0 2.66699 1.33301 4 4 4h26c24.667 0 41.167 5 49.5 15s12.5 29.667 12.5 59v107l-162 345l7 -360c0 -5.33301 -3 -8 -9 -8h-100z" />
    <glyph glyph-name="Omacron" unicode="&#x14c;" horiz-adv-x="457" 
d="M225 -10c-36 0 -68.832 9.16699 -98.499 27.5s-53.5 42.666 -71.5 72.999s-27 63.833 -27 100.5l1 317c0 36.667 8.83301 70 26.5 100s41.5 54 71.5 72s62.667 27 98 27c36 0 68.667 -9 98 -27s52.833 -42 70.5 -72s26.5 -63.333 26.5 -100l1 -317
c0 -36.667 -8.83301 -70.167 -26.5 -100.5s-41.334 -54.666 -71.001 -72.999s-62.5 -27.5 -98.5 -27.5zM225.001 111c20 0 37.5 8.16699 52.5 24.5s22.5 34.833 22.5 55.5l-1 317c0 22 -7 40.667 -21 56s-31.667 23 -53 23c-20.667 0 -38.334 -7.5 -53.001 -22.5
s-22 -33.833 -22 -56.5v-317c0 -22 7.33301 -40.833 22 -56.5s32.334 -23.5 53.001 -23.5zM72.001 772c-2.66699 0 -4 1.33301 -4 4v81c0 2.66699 1.33301 4 4 4h299c2.66699 0 4 -1.33301 4 -4v-81c0 -2.66699 -1.33301 -4 -4 -4h-299z" />
    <glyph glyph-name="omacron" unicode="&#x14d;" horiz-adv-x="457" 
d="M225 -10c-36 0 -68.832 9.16699 -98.499 27.5s-53.5 42.666 -71.5 72.999s-27 63.833 -27 100.5l1 317c0 36.667 8.83301 70 26.5 100s41.5 54 71.5 72s62.667 27 98 27c36 0 68.667 -9 98 -27s52.833 -42 70.5 -72s26.5 -63.333 26.5 -100l1 -317
c0 -36.667 -8.83301 -70.167 -26.5 -100.5s-41.334 -54.666 -71.001 -72.999s-62.5 -27.5 -98.5 -27.5zM225.001 111c20 0 37.5 8.16699 52.5 24.5s22.5 34.833 22.5 55.5l-1 317c0 22 -7 40.667 -21 56s-31.667 23 -53 23c-20.667 0 -38.334 -7.5 -53.001 -22.5
s-22 -33.833 -22 -56.5v-317c0 -22 7.33301 -40.833 22 -56.5s32.334 -23.5 53.001 -23.5zM72.001 772c-2.66699 0 -4 1.33301 -4 4v81c0 2.66699 1.33301 4 4 4h299c2.66699 0 4 -1.33301 4 -4v-81c0 -2.66699 -1.33301 -4 -4 -4h-299z" />
    <glyph glyph-name="Obreve" unicode="&#x14e;" horiz-adv-x="457" 
d="M225 -10c-36 0 -68.832 9.16699 -98.499 27.5s-53.5 42.666 -71.5 72.999s-27 63.833 -27 100.5l1 317c0 36.667 8.83301 70 26.5 100s41.5 54 71.5 72s62.667 27 98 27c36 0 68.667 -9 98 -27s52.833 -42 70.5 -72s26.5 -63.333 26.5 -100l1 -317
c0 -36.667 -8.83301 -70.167 -26.5 -100.5s-41.334 -54.666 -71.001 -72.999s-62.5 -27.5 -98.5 -27.5zM225.001 111c20 0 37.5 8.16699 52.5 24.5s22.5 34.833 22.5 55.5l-1 317c0 22 -7 40.667 -21 56s-31.667 23 -53 23c-20.667 0 -38.334 -7.5 -53.001 -22.5
s-22 -33.833 -22 -56.5v-317c0 -22 7.33301 -40.833 22 -56.5s32.334 -23.5 53.001 -23.5zM223.001 747c-32 0 -60.832 7.00195 -86.499 21.002s-46 32.333 -61 55s-22.5 47 -22.5 73c-1.33301 2.66699 0 4 4 4h90c0 -18.667 7.5 -35.5 22.5 -50.5s33.833 -22.5 56.5 -22.5
c23.333 0 42.5 7.5 57.5 22.5s22.5 31.833 22.5 50.5h90c2.66699 0 4 -1.33301 4 -4c0 -26.667 -7.83301 -51.334 -23.5 -74.001s-36.834 -40.834 -63.501 -54.501s-56.667 -20.5 -90 -20.5z" />
    <glyph glyph-name="obreve" unicode="&#x14f;" horiz-adv-x="457" 
d="M225 -10c-36 0 -68.832 9.16699 -98.499 27.5s-53.5 42.666 -71.5 72.999s-27 63.833 -27 100.5l1 317c0 36.667 8.83301 70 26.5 100s41.5 54 71.5 72s62.667 27 98 27c36 0 68.667 -9 98 -27s52.833 -42 70.5 -72s26.5 -63.333 26.5 -100l1 -317
c0 -36.667 -8.83301 -70.167 -26.5 -100.5s-41.334 -54.666 -71.001 -72.999s-62.5 -27.5 -98.5 -27.5zM225.001 111c20 0 37.5 8.16699 52.5 24.5s22.5 34.833 22.5 55.5l-1 317c0 22 -7 40.667 -21 56s-31.667 23 -53 23c-20.667 0 -38.334 -7.5 -53.001 -22.5
s-22 -33.833 -22 -56.5v-317c0 -22 7.33301 -40.833 22 -56.5s32.334 -23.5 53.001 -23.5zM223.001 747c-32 0 -60.832 7.00195 -86.499 21.002s-46 32.333 -61 55s-22.5 47 -22.5 73c-1.33301 2.66699 0 4 4 4h90c0 -18.667 7.5 -35.5 22.5 -50.5s33.833 -22.5 56.5 -22.5
c23.333 0 42.5 7.5 57.5 22.5s22.5 31.833 22.5 50.5h90c2.66699 0 4 -1.33301 4 -4c0 -26.667 -7.83301 -51.334 -23.5 -74.001s-36.834 -40.834 -63.501 -54.501s-56.667 -20.5 -90 -20.5z" />
    <glyph glyph-name="Ohungarumlaut" unicode="&#x150;" horiz-adv-x="457" 
d="M225 -10c-36 0 -68.832 9.16699 -98.499 27.5s-53.5 42.666 -71.5 72.999s-27 63.833 -27 100.5l1 317c0 36.667 8.83301 70 26.5 100s41.5 54 71.5 72s62.667 27 98 27c36 0 68.667 -9 98 -27s52.833 -42 70.5 -72s26.5 -63.333 26.5 -100l1 -317
c0 -36.667 -8.83301 -70.167 -26.5 -100.5s-41.334 -54.666 -71.001 -72.999s-62.5 -27.5 -98.5 -27.5zM225.001 111c20 0 37.5 8.16699 52.5 24.5s22.5 34.833 22.5 55.5l-1 317c0 22 -7 40.667 -21 56s-31.667 23 -53 23c-20.667 0 -38.334 -7.5 -53.001 -22.5
s-22 -33.833 -22 -56.5v-317c0 -22 7.33301 -40.833 22 -56.5s32.334 -23.5 53.001 -23.5zM271.001 747c-3.33301 0 -4.66797 1.33301 -4.00098 4l68 173c0.666992 2.66699 2.33398 4 5.00098 4h114c4 0 5.33301 -1.33301 4 -4l-81 -173
c-1.33301 -2.66699 -3.33301 -4 -6 -4h-100zM54.999 747c-3.33301 0 -4.66797 1.33301 -4.00098 4l65 173c0.666992 2.66699 2.33398 4 5.00098 4h114c4 0 5.33301 -1.33301 4 -4l-78 -173c-1.33301 -2.66699 -3.33301 -4 -6 -4h-100z" />
    <glyph glyph-name="ohungarumlaut" unicode="&#x151;" horiz-adv-x="457" 
d="M225 -10c-36 0 -68.832 9.16699 -98.499 27.5s-53.5 42.666 -71.5 72.999s-27 63.833 -27 100.5l1 317c0 36.667 8.83301 70 26.5 100s41.5 54 71.5 72s62.667 27 98 27c36 0 68.667 -9 98 -27s52.833 -42 70.5 -72s26.5 -63.333 26.5 -100l1 -317
c0 -36.667 -8.83301 -70.167 -26.5 -100.5s-41.334 -54.666 -71.001 -72.999s-62.5 -27.5 -98.5 -27.5zM225.001 111c20 0 37.5 8.16699 52.5 24.5s22.5 34.833 22.5 55.5l-1 317c0 22 -7 40.667 -21 56s-31.667 23 -53 23c-20.667 0 -38.334 -7.5 -53.001 -22.5
s-22 -33.833 -22 -56.5v-317c0 -22 7.33301 -40.833 22 -56.5s32.334 -23.5 53.001 -23.5zM271.001 747c-3.33301 0 -4.66797 1.33301 -4.00098 4l68 173c0.666992 2.66699 2.33398 4 5.00098 4h114c4 0 5.33301 -1.33301 4 -4l-81 -173
c-1.33301 -2.66699 -3.33301 -4 -6 -4h-100zM54.999 747c-3.33301 0 -4.66797 1.33301 -4.00098 4l65 173c0.666992 2.66699 2.33398 4 5.00098 4h114c4 0 5.33301 -1.33301 4 -4l-78 -173c-1.33301 -2.66699 -3.33301 -4 -6 -4h-100z" />
    <glyph glyph-name="OE" unicode="&#x152;" horiz-adv-x="659" 
d="M225 0c-36 0 -68.833 9.16699 -98.5 27.5s-53.5 42.666 -71.5 72.999s-27 63.833 -27 100.5l1 297c0 36.667 8.83301 69.834 26.5 99.501s41.5 53.5 71.5 71.5s62.667 27 98 27h380c2.66699 0 4 -1.66699 4 -5v-112c0 -2.66699 -1.33301 -4 -4 -4h-205v-156h205
c2.66699 0 4 -1.33301 4 -4l1 -113c0 -2.66699 -1.33301 -4 -4 -4h-206v-175h206c2.66699 0 4 -1.66699 4 -5v-114c0 -2.66699 -1.33301 -4 -4 -4h-381zM225 121h18.5h35.5l1 456h-55c-20.667 0 -38.334 -7.5 -53.001 -22.5s-22 -33.833 -22 -56.5v-297
c0 -22 7.33301 -40.833 22 -56.5s32.334 -23.5 53.001 -23.5z" />
    <glyph glyph-name="oe" unicode="&#x153;" horiz-adv-x="659" 
d="M225 0c-36 0 -68.833 9.16699 -98.5 27.5s-53.5 42.666 -71.5 72.999s-27 63.833 -27 100.5l1 297c0 36.667 8.83301 69.834 26.5 99.501s41.5 53.5 71.5 71.5s62.667 27 98 27h380c2.66699 0 4 -1.66699 4 -5v-112c0 -2.66699 -1.33301 -4 -4 -4h-205v-156h205
c2.66699 0 4 -1.33301 4 -4l1 -113c0 -2.66699 -1.33301 -4 -4 -4h-206v-175h206c2.66699 0 4 -1.66699 4 -5v-114c0 -2.66699 -1.33301 -4 -4 -4h-381zM225 121h18.5h35.5l1 456h-55c-20.667 0 -38.334 -7.5 -53.001 -22.5s-22 -33.833 -22 -56.5v-297
c0 -22 7.33301 -40.833 22 -56.5s32.334 -23.5 53.001 -23.5z" />
    <glyph glyph-name="Racute" unicode="&#x154;" horiz-adv-x="482" 
d="M44 0c-2.66699 0 -4 1.6709 -4 5.00391l2 687c0 2.66699 1.33301 4 4 4h202c36 0 69.167 -8.83301 99.5 -26.5s54.5 -41.334 72.5 -71.001s27 -63.167 27 -100.5c0 -24.667 -3.66699 -46.834 -11 -66.501s-16 -36.334 -26 -50.001s-19 -23.834 -27 -30.501
c36 -40 54 -87 54 -141l1 -205c0 -3.33301 -1.66699 -5 -5 -5h-113c-2.66699 0 -4 1 -4 3v207c0 24 -8.5 44.833 -25.5 62.5s-37.833 26.5 -62.5 26.5h-66l-1 -294c0 -3.33301 -1.33301 -5 -4 -5h-113zM162 419.004l86 0.000976562c20.667 0 39 7.66699 55 23s24 34 24 56
c0 21.333 -7.83301 39.666 -23.5 54.999s-34.167 23 -55.5 23h-86v-157zM172 747.005c-3.33301 0 -4.66797 1.33301 -4.00098 4l80 173c0.666992 2.66699 2.33398 4 5.00098 4h114c4 0 5.33301 -1.33301 4 -4l-93 -173c-1.33301 -2.66699 -3.33301 -4 -6 -4h-100z" />
    <glyph glyph-name="racute" unicode="&#x155;" horiz-adv-x="482" 
d="M44 0c-2.66699 0 -4 1.6709 -4 5.00391l2 687c0 2.66699 1.33301 4 4 4h202c36 0 69.167 -8.83301 99.5 -26.5s54.5 -41.334 72.5 -71.001s27 -63.167 27 -100.5c0 -24.667 -3.66699 -46.834 -11 -66.501s-16 -36.334 -26 -50.001s-19 -23.834 -27 -30.501
c36 -40 54 -87 54 -141l1 -205c0 -3.33301 -1.66699 -5 -5 -5h-113c-2.66699 0 -4 1 -4 3v207c0 24 -8.5 44.833 -25.5 62.5s-37.833 26.5 -62.5 26.5h-66l-1 -294c0 -3.33301 -1.33301 -5 -4 -5h-113zM162 419.004l86 0.000976562c20.667 0 39 7.66699 55 23s24 34 24 56
c0 21.333 -7.83301 39.666 -23.5 54.999s-34.167 23 -55.5 23h-86v-157zM172 747.005c-3.33301 0 -4.66797 1.33301 -4.00098 4l80 173c0.666992 2.66699 2.33398 4 5.00098 4h114c4 0 5.33301 -1.33301 4 -4l-93 -173c-1.33301 -2.66699 -3.33301 -4 -6 -4h-100z" />
    <glyph glyph-name="uni0156" unicode="&#x156;" horiz-adv-x="482" 
d="M44 0c-2.66699 0 -4 1.6709 -4 5.00391l2 687c0 2.66699 1.33301 4 4 4h202c36 0 69.167 -8.83301 99.5 -26.5s54.5 -41.334 72.5 -71.001s27 -63.167 27 -100.5c0 -24.667 -3.66699 -46.834 -11 -66.501s-16 -36.334 -26 -50.001s-19 -23.834 -27 -30.501
c36 -40 54 -87 54 -141l1 -205c0 -3.33301 -1.66699 -5 -5 -5h-113c-2.66699 0 -4 1 -4 3v207c0 24 -8.5 44.833 -25.5 62.5s-37.833 26.5 -62.5 26.5h-66l-1 -294c0 -3.33301 -1.33301 -5 -4 -5h-113zM162 419.004l86 0.000976562c20.667 0 39 7.66699 55 23s24 34 24 56
c0 21.333 -7.83301 39.666 -23.5 54.999s-34.167 23 -55.5 23h-86v-157zM177 -294.995l-0.00292969 61.999c16.667 0 30.834 6.33301 42.501 19s17.5 27.667 17.5 45h-56c-2.66699 0 -4 1.33301 -4 4v112c0 2.66699 1.33301 4 4 4h113c2.66699 0 4 -1.33301 4 -4v-116
c0 -23.333 -5.66699 -44.666 -17 -63.999s-26.166 -34.5 -44.499 -45.5s-38.166 -16.5 -59.499 -16.5z" />
    <glyph glyph-name="uni0157" unicode="&#x157;" horiz-adv-x="482" 
d="M44 0c-2.66699 0 -4 1.6709 -4 5.00391l2 687c0 2.66699 1.33301 4 4 4h202c36 0 69.167 -8.83301 99.5 -26.5s54.5 -41.334 72.5 -71.001s27 -63.167 27 -100.5c0 -24.667 -3.66699 -46.834 -11 -66.501s-16 -36.334 -26 -50.001s-19 -23.834 -27 -30.501
c36 -40 54 -87 54 -141l1 -205c0 -3.33301 -1.66699 -5 -5 -5h-113c-2.66699 0 -4 1 -4 3v207c0 24 -8.5 44.833 -25.5 62.5s-37.833 26.5 -62.5 26.5h-66l-1 -294c0 -3.33301 -1.33301 -5 -4 -5h-113zM162 419.004l86 0.000976562c20.667 0 39 7.66699 55 23s24 34 24 56
c0 21.333 -7.83301 39.666 -23.5 54.999s-34.167 23 -55.5 23h-86v-157zM177 -294.995l-0.00292969 61.999c16.667 0 30.834 6.33301 42.501 19s17.5 27.667 17.5 45h-56c-2.66699 0 -4 1.33301 -4 4v112c0 2.66699 1.33301 4 4 4h113c2.66699 0 4 -1.33301 4 -4v-116
c0 -23.333 -5.66699 -44.666 -17 -63.999s-26.166 -34.5 -44.499 -45.5s-38.166 -16.5 -59.499 -16.5z" />
    <glyph glyph-name="Rcaron" unicode="&#x158;" horiz-adv-x="482" 
d="M44 0c-2.66699 0 -4 1.6709 -4 5.00391l2 687c0 2.66699 1.33301 4 4 4h202c36 0 69.167 -8.83301 99.5 -26.5s54.5 -41.334 72.5 -71.001s27 -63.167 27 -100.5c0 -24.667 -3.66699 -46.834 -11 -66.501s-16 -36.334 -26 -50.001s-19 -23.834 -27 -30.501
c36 -40 54 -87 54 -141l1 -205c0 -3.33301 -1.66699 -5 -5 -5h-113c-2.66699 0 -4 1 -4 3v207c0 24 -8.5 44.833 -25.5 62.5s-37.833 26.5 -62.5 26.5h-66l-1 -294c0 -3.33301 -1.33301 -5 -4 -5h-113zM162 419.004l86 0.000976562c20.667 0 39 7.66699 55 23s24 34 24 56
c0 21.333 -7.83301 39.666 -23.5 54.999s-34.167 23 -55.5 23h-86v-157zM174 750.005c-2.66699 0 -4.66895 1.33301 -6.00195 4l-130 153c-1.33301 2.66699 0 4 4 4h114c2.66699 0 4.33398 -1.33301 5.00098 -4l70 -87l71 87c0.666992 2.66699 2.33398 4 5.00098 4h114
c4 0 5.33301 -1.33301 4 -4l-130 -153c-1.33301 -2.66699 -3.33301 -4 -6 -4h-115z" />
    <glyph glyph-name="rcaron" unicode="&#x159;" horiz-adv-x="482" 
d="M44 0c-2.66699 0 -4 1.6709 -4 5.00391l2 687c0 2.66699 1.33301 4 4 4h202c36 0 69.167 -8.83301 99.5 -26.5s54.5 -41.334 72.5 -71.001s27 -63.167 27 -100.5c0 -24.667 -3.66699 -46.834 -11 -66.501s-16 -36.334 -26 -50.001s-19 -23.834 -27 -30.501
c36 -40 54 -87 54 -141l1 -205c0 -3.33301 -1.66699 -5 -5 -5h-113c-2.66699 0 -4 1 -4 3v207c0 24 -8.5 44.833 -25.5 62.5s-37.833 26.5 -62.5 26.5h-66l-1 -294c0 -3.33301 -1.33301 -5 -4 -5h-113zM162 419.004l86 0.000976562c20.667 0 39 7.66699 55 23s24 34 24 56
c0 21.333 -7.83301 39.666 -23.5 54.999s-34.167 23 -55.5 23h-86v-157zM174 750.005c-2.66699 0 -4.66895 1.33301 -6.00195 4l-130 153c-1.33301 2.66699 0 4 4 4h114c2.66699 0 4.33398 -1.33301 5.00098 -4l70 -87l71 87c0.666992 2.66699 2.33398 4 5.00098 4h114
c4 0 5.33301 -1.33301 4 -4l-130 -153c-1.33301 -2.66699 -3.33301 -4 -6 -4h-115z" />
    <glyph glyph-name="Sacute" unicode="&#x15a;" horiz-adv-x="436" 
d="M210 -10c-36 0 -68.832 9.1709 -98.499 27.5039s-53.334 42.666 -71.001 72.999s-26.5 63.833 -26.5 100.5v46c0 3.33301 1.66699 5 5 5h112c2.66699 0 4 -1.66699 4 -5v-46c0 -22 7.33301 -40.833 22 -56.5s32.334 -23.5 53.001 -23.5s38.334 8 53.001 24
s22 34.667 22 56c0 24.667 -16 46 -48 64l-50 28l-64 36c-36.667 21.333 -63.834 48.166 -81.501 80.499s-26.5 68.833 -26.5 109.5c0 37.333 9 70.833 27 100.5s41.833 53.167 71.5 70.5s61.834 26 96.501 26c35.333 0 67.833 -8.83301 97.5 -26.5
s53.334 -41.334 71.001 -71.001s26.5 -62.834 26.5 -99.501v-82c0 -2.66699 -1.33301 -4 -4 -4h-112c-2.66699 0 -4 1.33301 -4 4l-1 82c0 23.333 -7.33301 42.333 -22 57s-32 22 -52 22c-20.667 0 -38.334 -7.83301 -53.001 -23.5s-22 -34.167 -22 -55.5
c0 -22 4.66699 -40.333 14 -55s26.333 -28.667 51 -42c3.33301 -2 9.83301 -5.5 19.5 -10.5l31.5 -17l30.5 -16.5c9 -4.66699 14.5 -7.66699 16.5 -9c33.333 -18.667 59.666 -41.5 78.999 -68.5s29 -60.167 29 -99.5c0 -38 -8.83301 -72.167 -26.5 -102.5
s-41.334 -54.333 -71.001 -72s-62.5 -26.5 -98.5 -26.5zM149.001 747.004c-3.33301 0 -4.66797 1.33301 -4.00098 4l80 173c0.666992 2.66699 2.33398 4 5.00098 4h114c4 0 5.33301 -1.33301 4 -4l-93 -173c-1.33301 -2.66699 -3.33301 -4 -6 -4h-100z" />
    <glyph glyph-name="sacute" unicode="&#x15b;" horiz-adv-x="436" 
d="M210 -10c-36 0 -68.832 9.1709 -98.499 27.5039s-53.334 42.666 -71.001 72.999s-26.5 63.833 -26.5 100.5v46c0 3.33301 1.66699 5 5 5h112c2.66699 0 4 -1.66699 4 -5v-46c0 -22 7.33301 -40.833 22 -56.5s32.334 -23.5 53.001 -23.5s38.334 8 53.001 24
s22 34.667 22 56c0 24.667 -16 46 -48 64l-50 28l-64 36c-36.667 21.333 -63.834 48.166 -81.501 80.499s-26.5 68.833 -26.5 109.5c0 37.333 9 70.833 27 100.5s41.833 53.167 71.5 70.5s61.834 26 96.501 26c35.333 0 67.833 -8.83301 97.5 -26.5
s53.334 -41.334 71.001 -71.001s26.5 -62.834 26.5 -99.501v-82c0 -2.66699 -1.33301 -4 -4 -4h-112c-2.66699 0 -4 1.33301 -4 4l-1 82c0 23.333 -7.33301 42.333 -22 57s-32 22 -52 22c-20.667 0 -38.334 -7.83301 -53.001 -23.5s-22 -34.167 -22 -55.5
c0 -22 4.66699 -40.333 14 -55s26.333 -28.667 51 -42c3.33301 -2 9.83301 -5.5 19.5 -10.5l31.5 -17l30.5 -16.5c9 -4.66699 14.5 -7.66699 16.5 -9c33.333 -18.667 59.666 -41.5 78.999 -68.5s29 -60.167 29 -99.5c0 -38 -8.83301 -72.167 -26.5 -102.5
s-41.334 -54.333 -71.001 -72s-62.5 -26.5 -98.5 -26.5zM149.001 747.004c-3.33301 0 -4.66797 1.33301 -4.00098 4l80 173c0.666992 2.66699 2.33398 4 5.00098 4h114c4 0 5.33301 -1.33301 4 -4l-93 -173c-1.33301 -2.66699 -3.33301 -4 -6 -4h-100z" />
    <glyph glyph-name="Scircumflex" unicode="&#x15c;" horiz-adv-x="436" 
d="M210 -10c-36 0 -68.832 9.1709 -98.499 27.5039s-53.334 42.666 -71.001 72.999s-26.5 63.833 -26.5 100.5v46c0 3.33301 1.66699 5 5 5h112c2.66699 0 4 -1.66699 4 -5v-46c0 -22 7.33301 -40.833 22 -56.5s32.334 -23.5 53.001 -23.5s38.334 8 53.001 24
s22 34.667 22 56c0 24.667 -16 46 -48 64l-50 28l-64 36c-36.667 21.333 -63.834 48.166 -81.501 80.499s-26.5 68.833 -26.5 109.5c0 37.333 9 70.833 27 100.5s41.833 53.167 71.5 70.5s61.834 26 96.501 26c35.333 0 67.833 -8.83301 97.5 -26.5
s53.334 -41.334 71.001 -71.001s26.5 -62.834 26.5 -99.501v-82c0 -2.66699 -1.33301 -4 -4 -4h-112c-2.66699 0 -4 1.33301 -4 4l-1 82c0 23.333 -7.33301 42.333 -22 57s-32 22 -52 22c-20.667 0 -38.334 -7.83301 -53.001 -23.5s-22 -34.167 -22 -55.5
c0 -22 4.66699 -40.333 14 -55s26.333 -28.667 51 -42c3.33301 -2 9.83301 -5.5 19.5 -10.5l31.5 -17l30.5 -16.5c9 -4.66699 14.5 -7.66699 16.5 -9c33.333 -18.667 59.666 -41.5 78.999 -68.5s29 -60.167 29 -99.5c0 -38 -8.83301 -72.167 -26.5 -102.5
s-41.334 -54.333 -71.001 -72s-62.5 -26.5 -98.5 -26.5zM19.001 748.004c-4 0 -5.33105 1.33301 -3.99805 4l130 153c1.33301 2.66699 3.33301 4 6 4h115c2.66699 0 4.66699 -1.33301 6 -4l130 -153c1.33301 -2.66699 0 -4 -4 -4h-117
c-2.66699 0 -4.33398 1.33301 -5.00098 4l-70 87l-71 -87c-0.666992 -2.66699 -2.33398 -4 -5.00098 -4h-111z" />
    <glyph glyph-name="scircumflex" unicode="&#x15d;" horiz-adv-x="436" 
d="M210 -10c-36 0 -68.832 9.1709 -98.499 27.5039s-53.334 42.666 -71.001 72.999s-26.5 63.833 -26.5 100.5v46c0 3.33301 1.66699 5 5 5h112c2.66699 0 4 -1.66699 4 -5v-46c0 -22 7.33301 -40.833 22 -56.5s32.334 -23.5 53.001 -23.5s38.334 8 53.001 24
s22 34.667 22 56c0 24.667 -16 46 -48 64l-50 28l-64 36c-36.667 21.333 -63.834 48.166 -81.501 80.499s-26.5 68.833 -26.5 109.5c0 37.333 9 70.833 27 100.5s41.833 53.167 71.5 70.5s61.834 26 96.501 26c35.333 0 67.833 -8.83301 97.5 -26.5
s53.334 -41.334 71.001 -71.001s26.5 -62.834 26.5 -99.501v-82c0 -2.66699 -1.33301 -4 -4 -4h-112c-2.66699 0 -4 1.33301 -4 4l-1 82c0 23.333 -7.33301 42.333 -22 57s-32 22 -52 22c-20.667 0 -38.334 -7.83301 -53.001 -23.5s-22 -34.167 -22 -55.5
c0 -22 4.66699 -40.333 14 -55s26.333 -28.667 51 -42c3.33301 -2 9.83301 -5.5 19.5 -10.5l31.5 -17l30.5 -16.5c9 -4.66699 14.5 -7.66699 16.5 -9c33.333 -18.667 59.666 -41.5 78.999 -68.5s29 -60.167 29 -99.5c0 -38 -8.83301 -72.167 -26.5 -102.5
s-41.334 -54.333 -71.001 -72s-62.5 -26.5 -98.5 -26.5zM19.001 748.004c-4 0 -5.33105 1.33301 -3.99805 4l130 153c1.33301 2.66699 3.33301 4 6 4h115c2.66699 0 4.66699 -1.33301 6 -4l130 -153c1.33301 -2.66699 0 -4 -4 -4h-117
c-2.66699 0 -4.33398 1.33301 -5.00098 4l-70 87l-71 -87c-0.666992 -2.66699 -2.33398 -4 -5.00098 -4h-111z" />
    <glyph glyph-name="Scedilla" unicode="&#x15e;" horiz-adv-x="436" 
d="M210 -10c-36 0 -68.832 9.1709 -98.499 27.5039s-53.334 42.666 -71.001 72.999s-26.5 63.833 -26.5 100.5v46c0 3.33301 1.66699 5 5 5h112c2.66699 0 4 -1.66699 4 -5v-46c0 -22 7.33301 -40.833 22 -56.5s32.334 -23.5 53.001 -23.5s38.334 8 53.001 24
s22 34.667 22 56c0 24.667 -16 46 -48 64l-50 28l-64 36c-36.667 21.333 -63.834 48.166 -81.501 80.499s-26.5 68.833 -26.5 109.5c0 37.333 9 70.833 27 100.5s41.833 53.167 71.5 70.5s61.834 26 96.501 26c35.333 0 67.833 -8.83301 97.5 -26.5
s53.334 -41.334 71.001 -71.001s26.5 -62.834 26.5 -99.501v-82c0 -2.66699 -1.33301 -4 -4 -4h-112c-2.66699 0 -4 1.33301 -4 4l-1 82c0 23.333 -7.33301 42.333 -22 57s-32 22 -52 22c-20.667 0 -38.334 -7.83301 -53.001 -23.5s-22 -34.167 -22 -55.5
c0 -22 4.66699 -40.333 14 -55s26.333 -28.667 51 -42c3.33301 -2 9.83301 -5.5 19.5 -10.5l31.5 -17l30.5 -16.5c9 -4.66699 14.5 -7.66699 16.5 -9c33.333 -18.667 59.666 -41.5 78.999 -68.5s29 -60.167 29 -99.5c0 -38 -8.83301 -72.167 -26.5 -102.5
s-41.334 -54.333 -71.001 -72s-62.5 -26.5 -98.5 -26.5zM111.001 -97.9961c-4 0 -5.33398 1.33301 -4.00098 4l67 110c1.33301 2.66699 3.33301 4 6 4h83c3.33301 0 4.66602 -1.33301 3.99902 -4l-32 -57c34.667 -5.33301 62.334 -18 83.001 -38s31 -44 31 -72
c0 -26.667 -7.16699 -51 -21.5 -73s-33.5 -39.333 -57.5 -52s-51.333 -19 -82 -19c-18 0 -36.167 1.5 -54.5 4.5s-32.166 7.16699 -41.499 12.5c-1.33301 1.33301 -2 2.33301 -2 3l-3 88c0 4 2 5.33301 6 4c20 -6.66699 37.833 -11.167 53.5 -13.5s28.834 -3.5 39.501 -3.5
c21.333 0 37.666 4 48.999 12s17 18.667 17 32c0 17.333 -10.333 31.333 -31 42s-53.667 16 -99 16h-11z" />
    <glyph glyph-name="scedilla" unicode="&#x15f;" horiz-adv-x="436" 
d="M210 -10c-36 0 -68.832 9.1709 -98.499 27.5039s-53.334 42.666 -71.001 72.999s-26.5 63.833 -26.5 100.5v46c0 3.33301 1.66699 5 5 5h112c2.66699 0 4 -1.66699 4 -5v-46c0 -22 7.33301 -40.833 22 -56.5s32.334 -23.5 53.001 -23.5s38.334 8 53.001 24
s22 34.667 22 56c0 24.667 -16 46 -48 64l-50 28l-64 36c-36.667 21.333 -63.834 48.166 -81.501 80.499s-26.5 68.833 -26.5 109.5c0 37.333 9 70.833 27 100.5s41.833 53.167 71.5 70.5s61.834 26 96.501 26c35.333 0 67.833 -8.83301 97.5 -26.5
s53.334 -41.334 71.001 -71.001s26.5 -62.834 26.5 -99.501v-82c0 -2.66699 -1.33301 -4 -4 -4h-112c-2.66699 0 -4 1.33301 -4 4l-1 82c0 23.333 -7.33301 42.333 -22 57s-32 22 -52 22c-20.667 0 -38.334 -7.83301 -53.001 -23.5s-22 -34.167 -22 -55.5
c0 -22 4.66699 -40.333 14 -55s26.333 -28.667 51 -42c3.33301 -2 9.83301 -5.5 19.5 -10.5l31.5 -17l30.5 -16.5c9 -4.66699 14.5 -7.66699 16.5 -9c33.333 -18.667 59.666 -41.5 78.999 -68.5s29 -60.167 29 -99.5c0 -38 -8.83301 -72.167 -26.5 -102.5
s-41.334 -54.333 -71.001 -72s-62.5 -26.5 -98.5 -26.5zM111.001 -97.9961c-4 0 -5.33398 1.33301 -4.00098 4l67 110c1.33301 2.66699 3.33301 4 6 4h83c3.33301 0 4.66602 -1.33301 3.99902 -4l-32 -57c34.667 -5.33301 62.334 -18 83.001 -38s31 -44 31 -72
c0 -26.667 -7.16699 -51 -21.5 -73s-33.5 -39.333 -57.5 -52s-51.333 -19 -82 -19c-18 0 -36.167 1.5 -54.5 4.5s-32.166 7.16699 -41.499 12.5c-1.33301 1.33301 -2 2.33301 -2 3l-3 88c0 4 2 5.33301 6 4c20 -6.66699 37.833 -11.167 53.5 -13.5s28.834 -3.5 39.501 -3.5
c21.333 0 37.666 4 48.999 12s17 18.667 17 32c0 17.333 -10.333 31.333 -31 42s-53.667 16 -99 16h-11z" />
    <glyph glyph-name="Scaron" unicode="&#x160;" horiz-adv-x="436" 
d="M210 -10c-36 0 -68.832 9.1709 -98.499 27.5039s-53.334 42.666 -71.001 72.999s-26.5 63.833 -26.5 100.5v46c0 3.33301 1.66699 5 5 5h112c2.66699 0 4 -1.66699 4 -5v-46c0 -22 7.33301 -40.833 22 -56.5s32.334 -23.5 53.001 -23.5s38.334 8 53.001 24
s22 34.667 22 56c0 24.667 -16 46 -48 64l-50 28l-64 36c-36.667 21.333 -63.834 48.166 -81.501 80.499s-26.5 68.833 -26.5 109.5c0 37.333 9 70.833 27 100.5s41.833 53.167 71.5 70.5s61.834 26 96.501 26c35.333 0 67.833 -8.83301 97.5 -26.5
s53.334 -41.334 71.001 -71.001s26.5 -62.834 26.5 -99.501v-82c0 -2.66699 -1.33301 -4 -4 -4h-112c-2.66699 0 -4 1.33301 -4 4l-1 82c0 23.333 -7.33301 42.333 -22 57s-32 22 -52 22c-20.667 0 -38.334 -7.83301 -53.001 -23.5s-22 -34.167 -22 -55.5
c0 -22 4.66699 -40.333 14 -55s26.333 -28.667 51 -42c3.33301 -2 9.83301 -5.5 19.5 -10.5l31.5 -17l30.5 -16.5c9 -4.66699 14.5 -7.66699 16.5 -9c33.333 -18.667 59.666 -41.5 78.999 -68.5s29 -60.167 29 -99.5c0 -38 -8.83301 -72.167 -26.5 -102.5
s-41.334 -54.333 -71.001 -72s-62.5 -26.5 -98.5 -26.5zM151.001 750.004c-2.66699 0 -4.66895 1.33301 -6.00195 4l-130 153c-1.33301 2.66699 0 4 4 4h114c2.66699 0 4.33398 -1.33301 5.00098 -4l70 -87l71 87c0.666992 2.66699 2.33398 4 5.00098 4h114
c4 0 5.33301 -1.33301 4 -4l-130 -153c-1.33301 -2.66699 -3.33301 -4 -6 -4h-115z" />
    <glyph glyph-name="scaron" unicode="&#x161;" horiz-adv-x="436" 
d="M210 -10c-36 0 -68.832 9.1709 -98.499 27.5039s-53.334 42.666 -71.001 72.999s-26.5 63.833 -26.5 100.5v46c0 3.33301 1.66699 5 5 5h112c2.66699 0 4 -1.66699 4 -5v-46c0 -22 7.33301 -40.833 22 -56.5s32.334 -23.5 53.001 -23.5s38.334 8 53.001 24
s22 34.667 22 56c0 24.667 -16 46 -48 64l-50 28l-64 36c-36.667 21.333 -63.834 48.166 -81.501 80.499s-26.5 68.833 -26.5 109.5c0 37.333 9 70.833 27 100.5s41.833 53.167 71.5 70.5s61.834 26 96.501 26c35.333 0 67.833 -8.83301 97.5 -26.5
s53.334 -41.334 71.001 -71.001s26.5 -62.834 26.5 -99.501v-82c0 -2.66699 -1.33301 -4 -4 -4h-112c-2.66699 0 -4 1.33301 -4 4l-1 82c0 23.333 -7.33301 42.333 -22 57s-32 22 -52 22c-20.667 0 -38.334 -7.83301 -53.001 -23.5s-22 -34.167 -22 -55.5
c0 -22 4.66699 -40.333 14 -55s26.333 -28.667 51 -42c3.33301 -2 9.83301 -5.5 19.5 -10.5l31.5 -17l30.5 -16.5c9 -4.66699 14.5 -7.66699 16.5 -9c33.333 -18.667 59.666 -41.5 78.999 -68.5s29 -60.167 29 -99.5c0 -38 -8.83301 -72.167 -26.5 -102.5
s-41.334 -54.333 -71.001 -72s-62.5 -26.5 -98.5 -26.5zM151.001 750.004c-2.66699 0 -4.66895 1.33301 -6.00195 4l-130 153c-1.33301 2.66699 0 4 4 4h114c2.66699 0 4.33398 -1.33301 5.00098 -4l70 -87l71 87c0.666992 2.66699 2.33398 4 5.00098 4h114
c4 0 5.33301 -1.33301 4 -4l-130 -153c-1.33301 -2.66699 -3.33301 -4 -6 -4h-115z" />
    <glyph glyph-name="uni0162" unicode="&#x162;" horiz-adv-x="400" 
d="M140 0c-2.66699 0 -4 1.66699 -4 5v570h-130c-3.33301 0 -5 1.66699 -5 5l1 112c0 2.66699 1.33301 4 4 4h380c3.33301 0 5 -1.33301 5 -4v-112c0 -3.33301 -1.33301 -5 -4 -5h-131l1 -570c0 -3.33301 -1.33301 -5 -4 -5h-113zM79 -98c-4 0 -5.33398 1.33301 -4.00098 4
l67 110c1.33301 2.66699 3.33301 4 6 4h83c3.33301 0 4.66602 -1.33301 3.99902 -4l-32 -57c34.667 -5.33301 62.334 -18 83.001 -38s31 -44 31 -72c0 -26.667 -7.16699 -51 -21.5 -73s-33.5 -39.333 -57.5 -52s-51.333 -19 -82 -19c-18 0 -36.167 1.5 -54.5 4.5
s-32.166 7.16699 -41.499 12.5c-1.33301 1.33301 -2 2.33301 -2 3l-3 88c0 4 2 5.33301 6 4c20 -6.66699 37.833 -11.167 53.5 -13.5s28.834 -3.5 39.501 -3.5c21.333 0 37.666 4 48.999 12s17 18.667 17 32c0 17.333 -10.333 31.333 -31 42s-53.667 16 -99 16h-11z" />
    <glyph glyph-name="uni0163" unicode="&#x163;" horiz-adv-x="400" 
d="M140 0c-2.66699 0 -4 1.66699 -4 5v570h-130c-3.33301 0 -5 1.66699 -5 5l1 112c0 2.66699 1.33301 4 4 4h380c3.33301 0 5 -1.33301 5 -4v-112c0 -3.33301 -1.33301 -5 -4 -5h-131l1 -570c0 -3.33301 -1.33301 -5 -4 -5h-113zM79 -98c-4 0 -5.33398 1.33301 -4.00098 4
l67 110c1.33301 2.66699 3.33301 4 6 4h83c3.33301 0 4.66602 -1.33301 3.99902 -4l-32 -57c34.667 -5.33301 62.334 -18 83.001 -38s31 -44 31 -72c0 -26.667 -7.16699 -51 -21.5 -73s-33.5 -39.333 -57.5 -52s-51.333 -19 -82 -19c-18 0 -36.167 1.5 -54.5 4.5
s-32.166 7.16699 -41.499 12.5c-1.33301 1.33301 -2 2.33301 -2 3l-3 88c0 4 2 5.33301 6 4c20 -6.66699 37.833 -11.167 53.5 -13.5s28.834 -3.5 39.501 -3.5c21.333 0 37.666 4 48.999 12s17 18.667 17 32c0 17.333 -10.333 31.333 -31 42s-53.667 16 -99 16h-11z" />
    <glyph glyph-name="Tcaron" unicode="&#x164;" horiz-adv-x="400" 
d="M140 0c-2.66699 0 -4 1.66699 -4 5v570h-130c-3.33301 0 -5 1.66699 -5 5l1 112c0 2.66699 1.33301 4 4 4h380c3.33301 0 5 -1.33301 5 -4v-112c0 -3.33301 -1.33301 -5 -4 -5h-131l1 -570c0 -3.33301 -1.33301 -5 -4 -5h-113zM137 750
c-2.66699 0 -4.66895 1.33301 -6.00195 4l-130 153c-1.33301 2.66699 0 4 4 4h114c2.66699 0 4.33398 -1.33301 5.00098 -4l70 -87l71 87c0.666992 2.66699 2.33398 4 5.00098 4h114c4 0 5.33301 -1.33301 4 -4l-130 -153c-1.33301 -2.66699 -3.33301 -4 -6 -4h-115z" />
    <glyph glyph-name="tcaron" unicode="&#x165;" horiz-adv-x="400" 
d="M140 0c-2.66699 0 -4 1.66699 -4 5v570h-130c-3.33301 0 -5 1.66699 -5 5l1 112c0 2.66699 1.33301 4 4 4h380c3.33301 0 5 -1.33301 5 -4v-112c0 -3.33301 -1.33301 -5 -4 -5h-131l1 -570c0 -3.33301 -1.33301 -5 -4 -5h-113zM137 750
c-2.66699 0 -4.66895 1.33301 -6.00195 4l-130 153c-1.33301 2.66699 0 4 4 4h114c2.66699 0 4.33398 -1.33301 5.00098 -4l70 -87l71 87c0.666992 2.66699 2.33398 4 5.00098 4h114c4 0 5.33301 -1.33301 4 -4l-130 -153c-1.33301 -2.66699 -3.33301 -4 -6 -4h-115z" />
    <glyph glyph-name="Tbar" unicode="&#x166;" horiz-adv-x="400" 
d="M140 0c-2.66699 0 -4 1.66699 -4 5v305h-84c-2.66699 0 -4 1.66699 -4 5v104c0 3.33301 1.66699 5 5 5h83v151h-130c-3.33301 0 -5 1.66699 -5 5l1 112c0 2.66699 1.33301 4 4 4h380c3.33301 0 5 -1.33301 5 -4v-112c0 -3.33301 -1.33301 -5 -4 -5h-131v-151h87
c2.66699 0 4 -1.66699 4 -5v-104c0 -3.33301 -1.33301 -5 -4 -5h-87l1 -305c0 -3.33301 -1.33301 -5 -4 -5h-113z" />
    <glyph glyph-name="tbar" unicode="&#x167;" horiz-adv-x="400" 
d="M140 0c-2.66699 0 -4 1.66699 -4 5v305h-84c-2.66699 0 -4 1.66699 -4 5v104c0 3.33301 1.66699 5 5 5h83v151h-130c-3.33301 0 -5 1.66699 -5 5l1 112c0 2.66699 1.33301 4 4 4h380c3.33301 0 5 -1.33301 5 -4v-112c0 -3.33301 -1.33301 -5 -4 -5h-131v-151h87
c2.66699 0 4 -1.66699 4 -5v-104c0 -3.33301 -1.33301 -5 -4 -5h-87l1 -305c0 -3.33301 -1.33301 -5 -4 -5h-113z" />
    <glyph glyph-name="Utilde" unicode="&#x168;" horiz-adv-x="460" 
d="M224 -10c-35.333 0 -67.9971 9.16602 -97.9971 27.499s-53.833 42.833 -71.5 73.5s-26.5 64.334 -26.5 101.001l2 500c0 2.66699 1.33301 4 4 4h112c2.66699 0 4 -1.33301 4 -4v-500c0 -22.667 7.16699 -41.834 21.5 -57.501s31.833 -23.5 52.5 -23.5
c21.333 0 39.166 7.83301 53.499 23.5s21.5 34.834 21.5 57.501v500c0 2.66699 1.33301 4 4 4h112c2.66699 0 4 -1.33301 4 -4l2 -500c0 -37.333 -8.83301 -71.333 -26.5 -102s-41.334 -55 -71.001 -73s-62.834 -27 -99.501 -27zM312.003 752.999
c-18.667 0 -35.833 3.50098 -51.5 10.501s-29.834 14 -42.501 21s-24.667 10.5 -36 10.5c-12.667 0 -22.334 -3.16699 -29.001 -9.5s-10 -14.166 -10 -23.499c0 -2.66699 -1.33301 -4 -4 -4h-90c-2.66699 0 -4 1.33301 -4 4c0 17.333 5.16699 35.166 15.5 53.499
s25 33.833 44 46.5s41.833 19 68.5 19c19.333 0 36.333 -3.16699 51 -9.5s27.834 -12.833 39.501 -19.5s21.834 -10 30.501 -10c9.33301 0 17.5 3 24.5 9s10.5 15.333 10.5 28c0 2.66699 1.33301 4 4 4h90c2.66699 0 4 -1.33301 4 -4c0 -27.333 -5.5 -50.333 -16.5 -69
s-25.333 -32.834 -43 -42.501s-36.167 -14.5 -55.5 -14.5z" />
    <glyph glyph-name="Umacron" unicode="&#x16a;" horiz-adv-x="460" 
d="M224 -10c-35.333 0 -67.9971 9.16602 -97.9971 27.499s-53.833 42.833 -71.5 73.5s-26.5 64.334 -26.5 101.001l2 500c0 2.66699 1.33301 4 4 4h112c2.66699 0 4 -1.33301 4 -4v-500c0 -22.667 7.16699 -41.834 21.5 -57.501s31.833 -23.5 52.5 -23.5
c21.333 0 39.166 7.83301 53.499 23.5s21.5 34.834 21.5 57.501v500c0 2.66699 1.33301 4 4 4h112c2.66699 0 4 -1.33301 4 -4l2 -500c0 -37.333 -8.83301 -71.333 -26.5 -102s-41.334 -55 -71.001 -73s-62.834 -27 -99.501 -27zM70.0029 771.999
c-2.66699 0 -4 1.33301 -4 4v81c0 2.66699 1.33301 4 4 4h299c2.66699 0 4 -1.33301 4 -4v-81c0 -2.66699 -1.33301 -4 -4 -4h-299z" />
    <glyph glyph-name="umacron" unicode="&#x16b;" horiz-adv-x="460" 
d="M224 -10c-35.333 0 -67.9971 9.16602 -97.9971 27.499s-53.833 42.833 -71.5 73.5s-26.5 64.334 -26.5 101.001l2 500c0 2.66699 1.33301 4 4 4h112c2.66699 0 4 -1.33301 4 -4v-500c0 -22.667 7.16699 -41.834 21.5 -57.501s31.833 -23.5 52.5 -23.5
c21.333 0 39.166 7.83301 53.499 23.5s21.5 34.834 21.5 57.501v500c0 2.66699 1.33301 4 4 4h112c2.66699 0 4 -1.33301 4 -4l2 -500c0 -37.333 -8.83301 -71.333 -26.5 -102s-41.334 -55 -71.001 -73s-62.834 -27 -99.501 -27zM70.0029 771.999
c-2.66699 0 -4 1.33301 -4 4v81c0 2.66699 1.33301 4 4 4h299c2.66699 0 4 -1.33301 4 -4v-81c0 -2.66699 -1.33301 -4 -4 -4h-299z" />
    <glyph glyph-name="Ubreve" unicode="&#x16c;" horiz-adv-x="460" 
d="M224 -10c-35.333 0 -67.9971 9.16602 -97.9971 27.499s-53.833 42.833 -71.5 73.5s-26.5 64.334 -26.5 101.001l2 500c0 2.66699 1.33301 4 4 4h112c2.66699 0 4 -1.33301 4 -4v-500c0 -22.667 7.16699 -41.834 21.5 -57.501s31.833 -23.5 52.5 -23.5
c21.333 0 39.166 7.83301 53.499 23.5s21.5 34.834 21.5 57.501v500c0 2.66699 1.33301 4 4 4h112c2.66699 0 4 -1.33301 4 -4l2 -500c0 -37.333 -8.83301 -71.333 -26.5 -102s-41.334 -55 -71.001 -73s-62.834 -27 -99.501 -27zM221.003 746.999
c-32 0 -60.832 7.00195 -86.499 21.002s-46 32.333 -61 55s-22.5 47 -22.5 73c-1.33301 2.66699 0 4 4 4h90c0 -18.667 7.5 -35.5 22.5 -50.5s33.833 -22.5 56.5 -22.5c23.333 0 42.5 7.5 57.5 22.5s22.5 31.833 22.5 50.5h90c2.66699 0 4 -1.33301 4 -4
c0 -26.667 -7.83301 -51.334 -23.5 -74.001s-36.834 -40.834 -63.501 -54.501s-56.667 -20.5 -90 -20.5z" />
    <glyph glyph-name="ubreve" unicode="&#x16d;" horiz-adv-x="460" 
d="M224 -10c-35.333 0 -67.9971 9.16602 -97.9971 27.499s-53.833 42.833 -71.5 73.5s-26.5 64.334 -26.5 101.001l2 500c0 2.66699 1.33301 4 4 4h112c2.66699 0 4 -1.33301 4 -4v-500c0 -22.667 7.16699 -41.834 21.5 -57.501s31.833 -23.5 52.5 -23.5
c21.333 0 39.166 7.83301 53.499 23.5s21.5 34.834 21.5 57.501v500c0 2.66699 1.33301 4 4 4h112c2.66699 0 4 -1.33301 4 -4l2 -500c0 -37.333 -8.83301 -71.333 -26.5 -102s-41.334 -55 -71.001 -73s-62.834 -27 -99.501 -27zM221.003 746.999
c-32 0 -60.832 7.00195 -86.499 21.002s-46 32.333 -61 55s-22.5 47 -22.5 73c-1.33301 2.66699 0 4 4 4h90c0 -18.667 7.5 -35.5 22.5 -50.5s33.833 -22.5 56.5 -22.5c23.333 0 42.5 7.5 57.5 22.5s22.5 31.833 22.5 50.5h90c2.66699 0 4 -1.33301 4 -4
c0 -26.667 -7.83301 -51.334 -23.5 -74.001s-36.834 -40.834 -63.501 -54.501s-56.667 -20.5 -90 -20.5z" />
    <glyph glyph-name="Uring" unicode="&#x16e;" horiz-adv-x="460" 
d="M224 -10c-35.333 0 -67.9971 9.16602 -97.9971 27.499s-53.833 42.833 -71.5 73.5s-26.5 64.334 -26.5 101.001l2 500c0 2.66699 1.33301 4 4 4h112c2.66699 0 4 -1.33301 4 -4v-500c0 -22.667 7.16699 -41.834 21.5 -57.501s31.833 -23.5 52.5 -23.5
c21.333 0 39.166 7.83301 53.499 23.5s21.5 34.834 21.5 57.501v500c0 2.66699 1.33301 4 4 4h112c2.66699 0 4 -1.33301 4 -4l2 -500c0 -37.333 -8.83301 -71.333 -26.5 -102s-41.334 -55 -71.001 -73s-62.834 -27 -99.501 -27zM223.003 740.999
c-24.667 0 -46.334 9.5 -65.001 28.5s-28 40.833 -28 65.5c0 26 9.33301 48.333 28 67s40.334 28 65.001 28c24 0 45.333 -9.33301 64 -28s28 -41 28 -67c0 -26.667 -9.5 -49 -28.5 -67s-40.167 -27 -63.5 -27zM222.003 787.999c12 0 22.333 4.66699 31 14s13 20.333 13 33
c0 13.333 -4.33301 24.666 -13 33.999s-19 14 -31 14c-12.667 0 -23.334 -4.66699 -32.001 -14s-13 -20.666 -13 -33.999c0 -12.667 4.33301 -23.667 13 -33s19.334 -14 32.001 -14z" />
    <glyph glyph-name="uring" unicode="&#x16f;" horiz-adv-x="460" 
d="M224 -10c-35.333 0 -67.9971 9.16602 -97.9971 27.499s-53.833 42.833 -71.5 73.5s-26.5 64.334 -26.5 101.001l2 500c0 2.66699 1.33301 4 4 4h112c2.66699 0 4 -1.33301 4 -4v-500c0 -22.667 7.16699 -41.834 21.5 -57.501s31.833 -23.5 52.5 -23.5
c21.333 0 39.166 7.83301 53.499 23.5s21.5 34.834 21.5 57.501v500c0 2.66699 1.33301 4 4 4h112c2.66699 0 4 -1.33301 4 -4l2 -500c0 -37.333 -8.83301 -71.333 -26.5 -102s-41.334 -55 -71.001 -73s-62.834 -27 -99.501 -27zM223.003 740.999
c-24.667 0 -46.334 9.5 -65.001 28.5s-28 40.833 -28 65.5c0 26 9.33301 48.333 28 67s40.334 28 65.001 28c24 0 45.333 -9.33301 64 -28s28 -41 28 -67c0 -26.667 -9.5 -49 -28.5 -67s-40.167 -27 -63.5 -27zM222.003 787.999c12 0 22.333 4.66699 31 14s13 20.333 13 33
c0 13.333 -4.33301 24.666 -13 33.999s-19 14 -31 14c-12.667 0 -23.334 -4.66699 -32.001 -14s-13 -20.666 -13 -33.999c0 -12.667 4.33301 -23.667 13 -33s19.334 -14 32.001 -14z" />
    <glyph glyph-name="Uhungarumlaut" unicode="&#x170;" horiz-adv-x="460" 
d="M224 -10c-35.333 0 -67.9971 9.16602 -97.9971 27.499s-53.833 42.833 -71.5 73.5s-26.5 64.334 -26.5 101.001l2 500c0 2.66699 1.33301 4 4 4h112c2.66699 0 4 -1.33301 4 -4v-500c0 -22.667 7.16699 -41.834 21.5 -57.501s31.833 -23.5 52.5 -23.5
c21.333 0 39.166 7.83301 53.499 23.5s21.5 34.834 21.5 57.501v500c0 2.66699 1.33301 4 4 4h112c2.66699 0 4 -1.33301 4 -4l2 -500c0 -37.333 -8.83301 -71.333 -26.5 -102s-41.334 -55 -71.001 -73s-62.834 -27 -99.501 -27zM269.003 746.999
c-3.33301 0 -4.66797 1.33301 -4.00098 4l68 173c0.666992 2.66699 2.33398 4 5.00098 4h114c4 0 5.33301 -1.33301 4 -4l-81 -173c-1.33301 -2.66699 -3.33301 -4 -6 -4h-100zM53.001 746.999c-3.33301 0 -4.66797 1.33301 -4.00098 4l65 173
c0.666992 2.66699 2.33398 4 5.00098 4h114c4 0 5.33301 -1.33301 4 -4l-78 -173c-1.33301 -2.66699 -3.33301 -4 -6 -4h-100z" />
    <glyph glyph-name="uhungarumlaut" unicode="&#x171;" horiz-adv-x="460" 
d="M224 -10c-35.333 0 -67.9971 9.16602 -97.9971 27.499s-53.833 42.833 -71.5 73.5s-26.5 64.334 -26.5 101.001l2 500c0 2.66699 1.33301 4 4 4h112c2.66699 0 4 -1.33301 4 -4v-500c0 -22.667 7.16699 -41.834 21.5 -57.501s31.833 -23.5 52.5 -23.5
c21.333 0 39.166 7.83301 53.499 23.5s21.5 34.834 21.5 57.501v500c0 2.66699 1.33301 4 4 4h112c2.66699 0 4 -1.33301 4 -4l2 -500c0 -37.333 -8.83301 -71.333 -26.5 -102s-41.334 -55 -71.001 -73s-62.834 -27 -99.501 -27zM269.003 746.999
c-3.33301 0 -4.66797 1.33301 -4.00098 4l68 173c0.666992 2.66699 2.33398 4 5.00098 4h114c4 0 5.33301 -1.33301 4 -4l-81 -173c-1.33301 -2.66699 -3.33301 -4 -6 -4h-100zM53.001 746.999c-3.33301 0 -4.66797 1.33301 -4.00098 4l65 173
c0.666992 2.66699 2.33398 4 5.00098 4h114c4 0 5.33301 -1.33301 4 -4l-78 -173c-1.33301 -2.66699 -3.33301 -4 -6 -4h-100z" />
    <glyph glyph-name="Uogonek" unicode="&#x172;" horiz-adv-x="460" 
d="M224 -10c-35.333 0 -67.9971 9.16602 -97.9971 27.499s-53.833 42.833 -71.5 73.5s-26.5 64.334 -26.5 101.001l2 500c0 2.66699 1.33301 4 4 4h112c2.66699 0 4 -1.33301 4 -4v-500c0 -22.667 7.16699 -41.834 21.5 -57.501s31.833 -23.5 52.5 -23.5
c21.333 0 39.166 7.83301 53.499 23.5s21.5 34.834 21.5 57.501v500c0 2.66699 1.33301 4 4 4h112c2.66699 0 4 -1.33301 4 -4l2 -500c0 -37.333 -8.83301 -71.333 -26.5 -102s-41.334 -55 -71.001 -73s-62.834 -27 -99.501 -27zM268.003 -296.001
c-47.333 0 -85.667 7.33105 -115 21.998s-50.833 34.334 -64.5 59.001s-20.5 51.334 -20.5 80.001c0 41.333 15.5 76.5 46.5 105.5s71.167 53.167 120.5 72.5l37 -44c-40.667 -20.667 -67.5 -39 -80.5 -55s-19.5 -33.667 -19.5 -53c0 -20.667 8 -37.167 24 -49.5
s39.667 -18.5 71 -18.5c2 0 3.33301 -0.833008 4 -2.5s1 -5.16699 1 -10.5l1 -98c0 -5.33301 -1.66699 -8 -5 -8z" />
    <glyph glyph-name="uogonek" unicode="&#x173;" horiz-adv-x="460" 
d="M224 -10c-35.333 0 -67.9971 9.16602 -97.9971 27.499s-53.833 42.833 -71.5 73.5s-26.5 64.334 -26.5 101.001l2 500c0 2.66699 1.33301 4 4 4h112c2.66699 0 4 -1.33301 4 -4v-500c0 -22.667 7.16699 -41.834 21.5 -57.501s31.833 -23.5 52.5 -23.5
c21.333 0 39.166 7.83301 53.499 23.5s21.5 34.834 21.5 57.501v500c0 2.66699 1.33301 4 4 4h112c2.66699 0 4 -1.33301 4 -4l2 -500c0 -37.333 -8.83301 -71.333 -26.5 -102s-41.334 -55 -71.001 -73s-62.834 -27 -99.501 -27zM268.003 -296.001
c-47.333 0 -85.667 7.33105 -115 21.998s-50.833 34.334 -64.5 59.001s-20.5 51.334 -20.5 80.001c0 41.333 15.5 76.5 46.5 105.5s71.167 53.167 120.5 72.5l37 -44c-40.667 -20.667 -67.5 -39 -80.5 -55s-19.5 -33.667 -19.5 -53c0 -20.667 8 -37.167 24 -49.5
s39.667 -18.5 71 -18.5c2 0 3.33301 -0.833008 4 -2.5s1 -5.16699 1 -10.5l1 -98c0 -5.33301 -1.66699 -8 -5 -8z" />
    <glyph glyph-name="Wcircumflex" unicode="&#x174;" horiz-adv-x="629" 
d="M132 0c-2.66699 0 -4.33398 1.66699 -5.00098 5l-118 687c-0.666992 2.66699 0.333008 4 3 4h112c2.66699 0 4.33398 -1.33301 5.00098 -4l64 -452l66 452c0.666992 2.66699 2.66699 4 6 4h90c2.66699 0 4.33398 -1.33301 5.00098 -4l65 -452l65 452
c0.666992 2.66699 2.33398 4 5.00098 4h111c3.33301 0 4.66602 -1.33301 3.99902 -4l-119 -687c-0.666992 -1.33301 -1.66699 -2.5 -3 -3.5l-2 -1.5h-121c-2 0 -3.66699 1.66699 -5 5l-51 359l-51 -359c-0.666992 -3.33301 -2.33398 -5 -5.00098 -5h-121zM120 748
c-4 0 -5.33105 1.33301 -3.99805 4l130 153c1.33301 2.66699 3.33301 4 6 4h115c2.66699 0 4.66699 -1.33301 6 -4l130 -153c1.33301 -2.66699 0 -4 -4 -4h-117c-2.66699 0 -4.33398 1.33301 -5.00098 4l-70 87l-71 -87c-0.666992 -2.66699 -2.33398 -4 -5.00098 -4h-111z
" />
    <glyph glyph-name="wcircumflex" unicode="&#x175;" horiz-adv-x="629" 
d="M132 0c-2.66699 0 -4.33398 1.66699 -5.00098 5l-118 687c-0.666992 2.66699 0.333008 4 3 4h112c2.66699 0 4.33398 -1.33301 5.00098 -4l64 -452l66 452c0.666992 2.66699 2.66699 4 6 4h90c2.66699 0 4.33398 -1.33301 5.00098 -4l65 -452l65 452
c0.666992 2.66699 2.33398 4 5.00098 4h111c3.33301 0 4.66602 -1.33301 3.99902 -4l-119 -687c-0.666992 -1.33301 -1.66699 -2.5 -3 -3.5l-2 -1.5h-121c-2 0 -3.66699 1.66699 -5 5l-51 359l-51 -359c-0.666992 -3.33301 -2.33398 -5 -5.00098 -5h-121zM120 748
c-4 0 -5.33105 1.33301 -3.99805 4l130 153c1.33301 2.66699 3.33301 4 6 4h115c2.66699 0 4.66699 -1.33301 6 -4l130 -153c1.33301 -2.66699 0 -4 -4 -4h-117c-2.66699 0 -4.33398 1.33301 -5.00098 4l-70 87l-71 -87c-0.666992 -2.66699 -2.33398 -4 -5.00098 -4h-111z
" />
    <glyph glyph-name="Ycircumflex" unicode="&#x176;" horiz-adv-x="401" 
d="M133 0c-2 0 -3.00098 1.33301 -3.00098 4l1 284l-134 404c-0.666992 2.66699 0.333008 4 3 4h111c3.33301 0 5.33301 -1.33301 6 -4l74 -269l75 269c0.666992 2.66699 2.33398 4 5.00098 4h112c2.66699 0 3.66699 -1.33301 3 -4l-135 -400l1 -288
c0 -2.66699 -1.33301 -4 -4 -4h-115zM-0.000976562 748c-4 0 -5.33105 1.33301 -3.99805 4l130 153c1.33301 2.66699 3.33301 4 6 4h115c2.66699 0 4.66699 -1.33301 6 -4l130 -153c1.33301 -2.66699 0 -4 -4 -4h-117c-2.66699 0 -4.33398 1.33301 -5.00098 4l-70 87
l-71 -87c-0.666992 -2.66699 -2.33398 -4 -5.00098 -4h-111z" />
    <glyph glyph-name="ycircumflex" unicode="&#x177;" horiz-adv-x="401" 
d="M133 0c-2 0 -3.00098 1.33301 -3.00098 4l1 284l-134 404c-0.666992 2.66699 0.333008 4 3 4h111c3.33301 0 5.33301 -1.33301 6 -4l74 -269l75 269c0.666992 2.66699 2.33398 4 5.00098 4h112c2.66699 0 3.66699 -1.33301 3 -4l-135 -400l1 -288
c0 -2.66699 -1.33301 -4 -4 -4h-115zM-0.000976562 748c-4 0 -5.33105 1.33301 -3.99805 4l130 153c1.33301 2.66699 3.33301 4 6 4h115c2.66699 0 4.66699 -1.33301 6 -4l130 -153c1.33301 -2.66699 0 -4 -4 -4h-117c-2.66699 0 -4.33398 1.33301 -5.00098 4l-70 87
l-71 -87c-0.666992 -2.66699 -2.33398 -4 -5.00098 -4h-111z" />
    <glyph glyph-name="Ydieresis" unicode="&#x178;" horiz-adv-x="401" 
d="M133 0c-2 0 -3.00098 1.33301 -3.00098 4l1 284l-134 404c-0.666992 2.66699 0.333008 4 3 4h111c3.33301 0 5.33301 -1.33301 6 -4l74 -269l75 269c0.666992 2.66699 2.33398 4 5.00098 4h112c2.66699 0 3.66699 -1.33301 3 -4l-135 -400l1 -288
c0 -2.66699 -1.33301 -4 -4 -4h-115zM237.999 764c-2.66699 0 -4 1.33301 -4 4v113c0 2.66699 1.33301 4 4 4h113c2.66699 0 4 -1.33301 4 -4v-113c0 -2.66699 -1.33301 -4 -4 -4h-113zM29.999 764c-2.66699 0 -4 1.33301 -4 4v113c0 2.66699 1.33301 4 4 4h113
c2.66699 0 4 -1.33301 4 -4v-113c0 -2.66699 -1.33301 -4 -4 -4h-113z" />
    <glyph glyph-name="Zacute" unicode="&#x179;" horiz-adv-x="414" 
d="M13 0c-3.33301 0 -5 1.66699 -5 5l1 109l245 468h-232c-2.66699 0 -4 1.33301 -4 4v105c0 3.33301 1.33301 5 4 5h362c3.33301 0 5 -1.66699 5 -5v-108l-244 -466h241c2.66699 0 4 -1.66699 4 -5l1 -107c0 -3.33301 -1.66699 -5 -5 -5h-373zM142 747
c-3.33301 0 -4.66797 1.33301 -4.00098 4l80 173c0.666992 2.66699 2.33398 4 5.00098 4h114c4 0 5.33301 -1.33301 4 -4l-93 -173c-1.33301 -2.66699 -3.33301 -4 -6 -4h-100z" />
    <glyph glyph-name="zacute" unicode="&#x17a;" horiz-adv-x="414" 
d="M13 0c-3.33301 0 -5 1.66699 -5 5l1 109l245 468h-232c-2.66699 0 -4 1.33301 -4 4v105c0 3.33301 1.33301 5 4 5h362c3.33301 0 5 -1.66699 5 -5v-108l-244 -466h241c2.66699 0 4 -1.66699 4 -5l1 -107c0 -3.33301 -1.66699 -5 -5 -5h-373zM142 747
c-3.33301 0 -4.66797 1.33301 -4.00098 4l80 173c0.666992 2.66699 2.33398 4 5.00098 4h114c4 0 5.33301 -1.33301 4 -4l-93 -173c-1.33301 -2.66699 -3.33301 -4 -6 -4h-100z" />
    </font>
</defs>
</svg>
