<svg width="329" height="386" viewBox="0 0 329 386" fill="none" xmlns="http://www.w3.org/2000/svg">
<g filter="url(#filter0_d_13_154)">
<path d="M18.5394 339.86C-11.7782 300.697 12.9246 195.414 26.8816 146.755L73.8418 8.72147C75.3138 6.20486 77.7577 1.17757 83.7797 3.11005C89.2999 4.8815 88.6873 9.72227 88.38 12.0592C73.667 52.7262 42.7069 139.978 36.571 163.648C30.4352 187.318 40.9262 208.522 49.6067 211.505C86.2498 224.097 134.026 248.564 150.394 281.383C166.762 314.202 146.816 363.928 107.931 374.363C69.0447 384.799 42.4866 370.795 18.5394 339.86Z" fill="#F0F0F0"/>
<path d="M186.529 337.983C156.211 298.819 180.914 193.536 194.871 144.877L241.831 6.84378C243.303 4.32717 245.747 -0.700119 251.769 1.23236C257.289 3.00381 256.677 7.84458 256.37 10.1815C241.656 50.8485 210.696 138.1 204.561 161.77C198.425 185.44 208.916 206.644 217.596 209.627C254.239 222.219 302.016 246.686 318.383 279.505C334.751 312.324 314.806 362.05 275.92 372.486C237.034 382.921 210.476 368.917 186.529 337.983Z" fill="#F0F0F0"/>
</g>
<defs>
<filter id="filter0_d_13_154" x="0.105713" y="0.800049" width="328.028" height="384.982" filterUnits="userSpaceOnUse" color-interpolation-filters="sRGB">
<feFlood flood-opacity="0" result="BackgroundImageFix"/>
<feColorMatrix in="SourceAlpha" type="matrix" values="0 0 0 0 0 0 0 0 0 0 0 0 0 0 0 0 0 0 127 0" result="hardAlpha"/>
<feOffset dy="4"/>
<feGaussianBlur stdDeviation="2"/>
<feComposite in2="hardAlpha" operator="out"/>
<feColorMatrix type="matrix" values="0 0 0 0 0 0 0 0 0 0 0 0 0 0 0 0 0 0 0.25 0"/>
<feBlend mode="normal" in2="BackgroundImageFix" result="effect1_dropShadow_13_154"/>
<feBlend mode="normal" in="SourceGraphic" in2="effect1_dropShadow_13_154" result="shape"/>
</filter>
</defs>
</svg>
